<svg width="184" height="28" viewBox="0 0 184 28" fill="none" xmlns="http://www.w3.org/2000/svg">
<path d="M12.1901 19.1812L12.6463 18.0562H16.5156L16.9718 19.1812H12.1901ZM11.3093 21.4312L11.7497 20.3062H17.3965L17.8841 21.4312H11.3093ZM10.4284 23.6812L10.8689 22.5562H18.293L18.7649 23.6812H10.4284ZM1.22688 26.7749H0L10.3026 0.899902H11.5295L21.8164 26.7749H20.6052L10.9161 2.41553L1.22688 26.7749ZM11.0576 5.0874L11.7025 6.5249L3.64917 26.7749H2.43802L11.0576 5.0874ZM12.316 8.05615L12.9137 9.60303L6.10292 26.7749H4.87605L12.316 8.05615ZM13.5114 11.1499L14.1091 12.728L8.52522 26.7749H7.31407L13.5114 11.1499ZM29.1304 26.7749H27.9036L17.6167 0.899902H18.8278L29.1304 26.7749ZM16.3898 0.899902L26.6924 26.7749H25.4813L15.1787 0.899902H16.3898ZM13.9518 0.899902L24.2544 26.7749H23.0275L12.7406 0.899902H13.9518Z" fill="white"/>
<path d="M39.9049 16.1812H44.7023C45.6461 16.1812 46.4483 15.8999 47.1089 15.3374C47.7695 14.7749 48.0998 13.9832 48.0998 12.9624C48.0998 12.1707 47.7538 11.4624 47.0617 10.8374C46.3696 10.2124 45.5832 9.8999 44.7023 9.8999H36.7748V26.7749H35.6423V8.7749H44.7023C45.9082 8.7749 46.9621 9.19678 47.8639 10.0405C48.7762 10.8843 49.2323 11.8582 49.2323 12.9624C49.2323 14.2853 48.7919 15.3426 47.9111 16.1343C47.0303 16.9155 45.9607 17.3062 44.7023 17.3062H39.9049V16.1812ZM39.9049 18.4312H44.7023C46.2543 18.4312 47.586 17.9207 48.6976 16.8999C49.8091 15.8791 50.3648 14.5666 50.3648 12.9624C50.3648 11.5562 49.7986 10.3218 48.6661 9.25928C47.5336 8.18636 46.2123 7.6499 44.7023 7.6499H34.5098V26.7749H33.3773V6.5249H44.7023C46.5269 6.5249 48.1156 7.17074 49.4683 8.4624C50.821 9.74365 51.4973 11.2437 51.4973 12.9624C51.4973 14.8374 50.8262 16.4051 49.484 17.6655C48.1523 18.9259 46.5584 19.5562 44.7023 19.5562H39.9049V18.4312ZM39.9049 20.6812H44.7023C46.118 20.6812 47.4287 20.3478 48.6346 19.6812C49.851 19.0145 50.821 18.0874 51.5445 16.8999C52.2681 15.7124 52.6298 14.3999 52.6298 12.9624C52.6298 11.6395 52.2681 10.3947 51.5445 9.22803C50.8315 8.06136 49.8615 7.13428 48.6346 6.44678C47.4182 5.74886 46.1075 5.3999 44.7023 5.3999H32.2448V26.7749H31.1123V4.2749H44.7023C45.8978 4.2749 47.0512 4.50928 48.1628 4.97803C49.2848 5.44678 50.2547 6.07699 51.0727 6.86865C51.8906 7.6499 52.5407 8.57699 53.0231 9.6499C53.5159 10.7124 53.7624 11.8166 53.7624 12.9624C53.7624 14.3062 53.5212 15.5405 53.0388 16.6655C52.5564 17.7905 51.9011 18.728 51.0727 19.478C50.2443 20.2176 49.2795 20.7905 48.1785 21.1968C47.0879 21.603 45.9292 21.8062 44.7023 21.8062H39.9049V20.6812ZM39.0398 26.7749H37.9073V11.0249H44.7023C45.321 11.0249 45.8506 11.2176 46.291 11.603C46.7419 11.978 46.9673 12.4312 46.9673 12.9624C46.9673 14.3582 46.2123 15.0562 44.7023 15.0562H39.9049V13.9312H44.7023C45.4573 13.9312 45.8348 13.6082 45.8348 12.9624C45.8348 12.7332 45.7247 12.5405 45.5045 12.3843C45.2843 12.228 45.0169 12.1499 44.7023 12.1499H39.0398V26.7749Z" fill="white"/>
<path d="M65.1031 16.1812H69.9005C70.8442 16.1812 71.6464 15.8999 72.3071 15.3374C72.9677 14.7749 73.298 13.9832 73.298 12.9624C73.298 12.1707 72.952 11.4624 72.2599 10.8374C71.5678 10.2124 70.7813 9.8999 69.9005 9.8999H61.973V26.7749H60.8405V8.7749H69.9005C71.1064 8.7749 72.1603 9.19678 73.0621 10.0405C73.9743 10.8843 74.4305 11.8582 74.4305 12.9624C74.4305 14.2853 73.9901 15.3426 73.1092 16.1343C72.2284 16.9155 71.1588 17.3062 69.9005 17.3062H65.1031V16.1812ZM65.1031 18.4312H69.9005C71.4524 18.4312 72.7842 17.9207 73.8957 16.8999C75.0072 15.8791 75.563 14.5666 75.563 12.9624C75.563 11.5562 74.9967 10.3218 73.8643 9.25928C72.7318 8.18636 71.4105 7.6499 69.9005 7.6499H59.708V26.7749H58.5755V6.5249H69.9005C71.7251 6.5249 73.3137 7.17074 74.6664 8.4624C76.0191 9.74365 76.6955 11.2437 76.6955 12.9624C76.6955 14.8374 76.0244 16.4051 74.6822 17.6655C73.3504 18.9259 71.7565 19.5562 69.9005 19.5562H65.1031V18.4312ZM65.1031 20.6812H69.9005C71.3161 20.6812 72.6269 20.3478 73.8328 19.6812C75.0492 19.0145 76.0191 18.0874 76.7427 16.8999C77.4662 15.7124 77.828 14.3999 77.828 12.9624C77.828 11.6395 77.4662 10.3947 76.7427 9.22803C76.0296 8.06136 75.0597 7.13428 73.8328 6.44678C72.6164 5.74886 71.3056 5.3999 69.9005 5.3999H57.443V26.7749H56.3105V4.2749H69.9005C71.0959 4.2749 72.2494 4.50928 73.3609 4.97803C74.4829 5.44678 75.4529 6.07699 76.2708 6.86865C77.0887 7.6499 77.7389 8.57699 78.2212 9.6499C78.7141 10.7124 78.9605 11.8166 78.9605 12.9624C78.9605 14.3062 78.7193 15.5405 78.237 16.6655C77.7546 17.7905 77.0992 18.728 76.2708 19.478C75.4424 20.2176 74.4777 20.7905 73.3766 21.1968C72.2861 21.603 71.1274 21.8062 69.9005 21.8062H65.1031V20.6812ZM64.238 26.7749H63.1055V11.0249H69.9005C70.5192 11.0249 71.0487 11.2176 71.4891 11.603C71.94 11.978 72.1655 12.4312 72.1655 12.9624C72.1655 14.3582 71.4105 15.0562 69.9005 15.0562H65.1031V13.9312H69.9005C70.6555 13.9312 71.033 13.6082 71.033 12.9624C71.033 12.7332 70.9229 12.5405 70.7027 12.3843C70.4825 12.228 70.2151 12.1499 69.9005 12.1499H64.238V26.7749Z" fill="white"/>
<path d="M87.1711 26.7749H86.0386V4.2749H87.1711V26.7749ZM84.9061 26.7749H83.7736V4.2749H84.9061V26.7749ZM82.6411 26.7749H81.5086V4.2749H82.6411V26.7749ZM89.4361 21.1499H100.274V22.2749H89.4361V23.3999H100.274V24.5249H89.4361V25.6499H100.274V26.7749H88.3036V4.2749H100.274V5.3999H89.4361V6.5249H100.274V7.6499H89.4361V8.7749H100.274V9.8999H89.4361V12.6968H99.6444V13.8218H89.4361V14.9468H99.6444V16.0718H89.4361V17.1968H99.6444V18.3218H89.4361V21.1499Z" fill="white"/>
<path d="M107.006 10.5093H108.138V26.7749H107.006V10.5093ZM102.476 5.3999V4.2749H119.463V5.3999H102.476ZM102.476 7.6499V6.5249H119.463V7.6499H102.476ZM102.476 9.8999V8.7749H119.463V9.8999H102.476ZM113.801 10.5093H114.933V26.7749H113.801V10.5093ZM111.536 10.5093H112.668V26.7749H111.536V10.5093ZM109.271 10.5093H110.403V26.7749H109.271V10.5093Z" fill="white"/>
<path d="M128.759 4.2749H129.892V26.7749H128.759V4.2749ZM126.494 4.2749H127.627V26.7749H126.494V4.2749ZM124.229 4.2749H125.362V26.7749H124.229V4.2749ZM121.964 4.2749H123.097V26.7749H121.964V4.2749Z" fill="white"/>
<path d="M139.644 20.0249V11.0249C139.644 11.0249 141.736 11.0249 145.92 11.0249C147.084 11.0249 148.08 11.4624 148.908 12.3374C149.747 13.2124 150.167 14.2645 150.167 15.4937C150.167 16.7645 149.752 17.8374 148.924 18.7124C148.096 19.5874 147.094 20.0249 145.92 20.0249H139.644ZM140.776 18.8999H145.92C146.769 18.8999 147.493 18.5718 148.09 17.9155C148.698 17.2593 149.003 16.452 149.003 15.4937C149.003 14.577 148.698 13.7905 148.09 13.1343C147.493 12.478 146.769 12.1499 145.92 12.1499H140.776V18.8999ZM138.511 21.1499H145.92C147.409 21.1499 148.683 20.603 149.742 19.5093C150.801 18.4051 151.33 17.0666 151.33 15.4937C151.33 13.952 150.796 12.6343 149.726 11.5405C148.667 10.4468 147.398 9.8999 145.92 9.8999H138.511V21.1499ZM137.379 22.2749V8.7749H145.92C147.713 8.7749 149.254 9.43636 150.544 10.7593C151.844 12.0718 152.494 13.6499 152.494 15.4937C152.494 17.3791 151.85 18.9832 150.56 20.3062C149.27 21.6187 147.723 22.2749 145.92 22.2749H137.379ZM136.246 23.3999H145.92C147.304 23.3999 148.588 23.0509 149.773 22.353C150.958 21.6551 151.902 20.6968 152.605 19.478C153.307 18.2593 153.658 16.9312 153.658 15.4937C153.658 14.0874 153.307 12.7801 152.605 11.5718C151.902 10.3634 150.953 9.41032 149.758 8.7124C148.573 8.00407 147.293 7.6499 145.92 7.6499H136.246V23.3999ZM135.114 24.5249V6.5249H145.92C147.503 6.5249 148.976 6.92594 150.34 7.72803C151.713 8.53011 152.804 9.62386 153.611 11.0093C154.419 12.3843 154.822 13.8791 154.822 15.4937C154.822 17.1291 154.419 18.6447 153.611 20.0405C152.804 21.4259 151.713 22.5197 150.34 23.3218C148.976 24.1239 147.503 24.5249 145.92 24.5249H135.114ZM133.981 25.6499H145.92C147.713 25.6499 149.38 25.202 150.922 24.3062C152.463 23.3999 153.69 22.1655 154.602 20.603C155.525 19.0405 155.986 17.3374 155.986 15.4937C155.986 13.6812 155.525 11.9989 154.602 10.4468C153.69 8.88428 152.458 7.65511 150.906 6.75928C149.364 5.85303 147.702 5.3999 145.92 5.3999H133.981V25.6499ZM145.92 26.7749H132.849V4.2749H145.92C147.912 4.2749 149.768 4.78011 151.488 5.79053C153.218 6.79053 154.592 8.15511 155.609 9.88428C156.636 11.603 157.15 13.4728 157.15 15.4937C157.15 17.0249 156.846 18.4884 156.238 19.8843C155.64 21.2801 154.833 22.4832 153.816 23.4937C152.809 24.4937 151.614 25.2905 150.229 25.8843C148.845 26.478 147.409 26.7749 145.92 26.7749Z" fill="white"/>
<path d="M168.334 12.353C167.453 13.228 167.012 14.2853 167.012 15.5249C167.012 16.7645 167.453 17.827 168.334 18.7124C169.225 19.5874 170.295 20.0249 171.542 20.0249C172.79 20.0249 173.855 19.5874 174.736 18.7124C175.627 17.827 176.072 16.7645 176.072 15.5249C176.072 14.2853 175.627 13.228 174.736 12.353C173.855 11.4676 172.79 11.0249 171.542 11.0249C170.295 11.0249 169.225 11.4676 168.334 12.353ZM167.532 19.5093C166.43 18.4051 165.88 17.077 165.88 15.5249C165.88 13.9728 166.43 12.6499 167.532 11.5562C168.643 10.452 169.98 9.8999 171.542 9.8999C173.105 9.8999 174.437 10.452 175.538 11.5562C176.649 12.6499 177.205 13.9728 177.205 15.5249C177.205 17.077 176.649 18.4051 175.538 19.5093C174.437 20.603 173.105 21.1499 171.542 21.1499C169.98 21.1499 168.643 20.603 167.532 19.5093ZM166.729 10.7593C165.408 12.0822 164.747 13.6707 164.747 15.5249C164.747 17.3791 165.408 18.9676 166.729 20.2905C168.061 21.6134 169.665 22.2749 171.542 22.2749C173.419 22.2749 175.019 21.6134 176.34 20.2905C177.672 18.9676 178.337 17.3791 178.337 15.5249C178.337 13.6707 177.672 12.0822 176.34 10.7593C175.019 9.43636 173.419 8.7749 171.542 8.7749C169.665 8.7749 168.061 9.43636 166.729 10.7593ZM164.669 19.478C163.966 18.2697 163.615 16.952 163.615 15.5249C163.615 14.0978 163.966 12.7801 164.669 11.5718C165.382 10.3634 166.347 9.41032 167.563 8.7124C168.779 8.00407 170.106 7.6499 171.542 7.6499C172.979 7.6499 174.306 8.00407 175.522 8.7124C176.738 9.41032 177.698 10.3634 178.4 11.5718C179.113 12.7801 179.47 14.0978 179.47 15.5249C179.47 16.952 179.113 18.2697 178.4 19.478C177.698 20.6864 176.738 21.6447 175.522 22.353C174.306 23.0509 172.979 23.3999 171.542 23.3999C170.106 23.3999 168.779 23.0509 167.563 22.353C166.347 21.6447 165.382 20.6864 164.669 19.478ZM163.19 12.0405C162.718 13.1447 162.482 14.3062 162.482 15.5249C162.482 16.7437 162.718 17.9103 163.19 19.0249C163.673 20.1291 164.318 21.0874 165.125 21.8999C165.943 22.702 166.908 23.3426 168.019 23.8218C169.141 24.2905 170.316 24.5249 171.542 24.5249C172.769 24.5249 173.939 24.2905 175.05 23.8218C176.172 23.3426 177.137 22.702 177.944 21.8999C178.762 21.0874 179.407 20.1291 179.879 19.0249C180.361 17.9103 180.602 16.7437 180.602 15.5249C180.602 14.3062 180.361 13.1447 179.879 12.0405C179.407 10.9259 178.762 9.96761 177.944 9.16553C177.137 8.35303 176.172 7.7124 175.05 7.24365C173.939 6.76449 172.769 6.5249 171.542 6.5249C170.316 6.5249 169.141 6.76449 168.019 7.24365C166.908 7.7124 165.943 8.35303 165.125 9.16553C164.318 9.96761 163.673 10.9259 163.19 12.0405ZM162.152 19.4624C161.617 18.2124 161.35 16.8999 161.35 15.5249C161.35 14.1499 161.617 12.8374 162.152 11.5874C162.697 10.3374 163.421 9.26449 164.323 8.36865C165.235 7.4624 166.32 6.74365 167.579 6.2124C168.837 5.67074 170.158 5.3999 171.542 5.3999C172.927 5.3999 174.248 5.67074 175.506 6.2124C176.765 6.74365 177.845 7.4624 178.746 8.36865C179.659 9.26449 180.382 10.3374 180.917 11.5874C181.462 12.8374 181.735 14.1499 181.735 15.5249C181.735 16.8999 181.462 18.2124 180.917 19.4624C180.382 20.7124 179.659 21.7905 178.746 22.6968C177.845 23.5926 176.765 24.3114 175.506 24.853C174.248 25.3843 172.927 25.6499 171.542 25.6499C170.158 25.6499 168.837 25.3843 167.579 24.853C166.32 24.3114 165.235 23.5926 164.323 22.6968C163.421 21.7905 162.697 20.7124 162.152 19.4624ZM161.114 11.1655C160.516 12.5509 160.217 14.0041 160.217 15.5249C160.217 17.0457 160.516 18.5041 161.114 19.8999C161.712 21.2853 162.514 22.4832 163.521 23.4937C164.538 24.4937 165.744 25.2905 167.138 25.8843C168.543 26.478 170.012 26.7749 171.542 26.7749C173.073 26.7749 174.536 26.478 175.931 25.8843C177.336 25.2905 178.542 24.4937 179.549 23.4937C180.566 22.4832 181.373 21.2853 181.971 19.8999C182.569 18.5041 182.867 17.0457 182.867 15.5249C182.867 14.0041 182.569 12.5509 181.971 11.1655C181.373 9.76969 180.566 8.57178 179.549 7.57178C178.542 6.56136 177.336 5.75928 175.931 5.16553C174.536 4.57178 173.073 4.2749 171.542 4.2749C170.012 4.2749 168.543 4.57178 167.138 5.16553C165.744 5.75928 164.538 6.56136 163.521 7.57178C162.514 8.57178 161.712 9.76969 161.114 11.1655ZM160.076 20.3374C159.415 18.8062 159.085 17.202 159.085 15.5249C159.085 13.8478 159.415 12.2489 160.076 10.728C160.737 9.19678 161.623 7.87907 162.734 6.7749C163.846 5.67074 165.167 4.79053 166.698 4.13428C168.239 3.47803 169.854 3.1499 171.542 3.1499C173.231 3.1499 174.84 3.47803 176.371 4.13428C177.913 4.79053 179.239 5.67074 180.351 6.7749C181.462 7.87907 182.348 9.19678 183.009 10.728C183.67 12.2489 184 13.8478 184 15.5249C184 17.202 183.67 18.8062 183.009 20.3374C182.348 21.8582 181.462 23.1707 180.351 24.2749C179.239 25.3791 177.913 26.2593 176.371 26.9155C174.84 27.5718 173.231 27.8999 171.542 27.8999C169.854 27.8999 168.239 27.5718 166.698 26.9155C165.167 26.2593 163.846 25.3791 162.734 24.2749C161.623 23.1707 160.737 21.8582 160.076 20.3374Z" fill="white"/>
</svg>
