<svg width="118" height="118" viewBox="0 0 118 118" fill="none" xmlns="http://www.w3.org/2000/svg">
<rect width="118" height="118" fill="url(#paint0_linear_179_30756)"/>
<path d="M55.6362 9.96496C56.5825 9.33579 57.6948 9 58.8325 9C59.9703 9 61.0826 9.33579 62.0288 9.96496C66.9574 13.0519 71.6859 16.4448 76.1863 20.1235C76.1863 20.1235 77.4121 20.9693 77.4456 19.5401C77.3245 17.6878 77.4356 15.8276 77.7761 14.0025C77.9581 13.5273 78.2799 13.118 78.6994 12.828C79.119 12.5381 79.6166 12.381 80.1273 12.3775C80.1273 12.3775 85.6873 12.6525 89.2183 13.1234C90.7956 13.3317 92.0255 14.59 92.1929 16.1651C92.1929 16.1651 94.4646 31.2487 94.975 36.6863C94.975 36.6863 95.4143 39.453 99.439 44.1447C99.439 44.1447 107.61 55.5407 108.559 57.7241C108.559 57.7241 110.459 61.6658 106.371 62.1992C106.371 62.1992 98.9118 62.9492 98.1922 63.1159C97.7103 63.1745 97.2702 63.418 96.9656 63.7945C96.6609 64.1711 96.5157 64.6511 96.5606 65.1326C96.5606 65.1326 96.1674 91.3664 94.2387 103.967C94.2387 103.967 93.7325 108.967 90.9671 108.854C90.9671 108.854 83.2985 108.608 81.5162 108.658C81.5162 108.658 80.7506 108.658 80.8636 107.633C80.8636 107.633 84.7711 66.7284 82.1229 46.0489C82.1229 46.0489 82.0057 43.3822 79.9641 42.7905C79.9641 42.7905 78.1024 42.0405 76.3202 44.4197C68.5861 55.203 64.3521 68.0861 64.1876 81.337C64.1876 81.337 63.9784 87.8496 64.9741 89.4747C64.9741 89.4747 65.5933 90.6163 68.7687 90.8747L72.785 91.4164C72.785 91.4164 73.5213 91.4164 73.4544 92.3872C73.4544 92.3872 72.5423 104.387 72.2829 106.525C72.2661 107.011 72.1657 107.49 71.9859 107.942C71.9859 107.942 71.8395 108.35 70.5802 108.3C70.5802 108.3 52.8583 108.175 50.8627 108.3C50.8627 108.3 50.026 108.3 49.8503 107.862C49.6704 107.421 48.6203 92.3747 48.6537 90.2413C48.6385 90.0251 48.6901 89.8094 48.8016 89.6232C48.913 89.437 49.0789 89.2892 49.2771 89.1997C50.6291 88.3496 51.7718 87.2076 52.6205 85.8581C53.4693 84.5086 54.0024 82.9862 54.1803 81.4037C54.3979 79.1203 54.4313 76.8286 54.2807 74.5452C54.2807 74.5452 54.9334 51.5365 55.0965 47.8364C55.0965 47.8364 55.2262 46.5864 53.5904 46.3573C53.1983 46.2659 52.7857 46.3329 52.4431 46.5438C52.1004 46.7546 51.8556 47.0921 51.7622 47.4823V47.6073C51.7622 47.7406 50.6159 62.7867 50.8292 68.7785C50.8292 68.7785 51.2225 72.7035 48.4948 72.7827C48.4948 72.7827 45.8423 73.1785 45.7126 69.9077C45.7126 69.9077 45.9093 55.1491 46.5619 47.8573C46.5653 47.4543 46.4182 47.0644 46.1492 46.7633C45.8801 46.4622 45.5083 46.2715 45.106 46.2281C44.6897 46.1708 44.2672 46.2757 43.9266 46.521C43.586 46.7663 43.3535 47.133 43.2778 47.5448C43.2673 47.5872 43.2673 47.6315 43.2778 47.6739C43.2778 47.6739 42.1314 61.7992 42.3448 69.2535C42.3448 69.2535 42.6711 72.8702 39.7761 72.7369C39.7761 72.7369 37.3579 73.0119 37.224 69.8035C37.224 69.8035 37.8809 49.5948 38.0608 48.0364C38.042 47.6494 37.885 47.2817 37.618 46.9998C37.3511 46.7178 36.9917 46.5402 36.6049 46.4989H36.4417C36.0328 46.4651 35.6261 46.5855 35.3021 46.8363C34.9782 47.0872 34.7608 47.4501 34.6929 47.8531C34.6878 47.9016 34.6878 47.9505 34.6929 47.9989C34.6929 47.9989 33.6135 72.166 33.76 79.262C33.76 79.262 33.6638 86.5579 39.0732 89.5205C39.0732 89.5205 39.8765 89.9788 39.8932 90.6747C39.8932 90.6747 40.4998 103.492 41.0521 107.629C41.0521 107.629 41.2487 108.621 40.3659 108.621L26.7482 109C26.0345 108.996 25.3492 108.721 24.8322 108.23C24.3153 107.74 24.0055 107.072 23.9661 106.362C22.2018 92.7829 21.3617 79.1001 21.4517 65.4076C21.4992 64.9012 21.3591 64.395 21.0578 63.9843C20.7565 63.5737 20.3148 63.287 19.8159 63.1784C19.8159 63.1784 12.8501 62.5409 11.1641 62.12C10.7311 62.0075 10.3302 61.7965 9.99291 61.5037C9.65558 61.2109 9.39098 60.8442 9.21991 60.4324C9.04884 60.0206 8.97595 59.5748 9.00696 59.1302C9.03797 58.6856 9.17204 58.2543 9.39863 57.8699C20.7153 38.4266 36.5747 21.9926 55.6362 9.96496Z" fill="black"/>
<defs>
<linearGradient id="paint0_linear_179_30756" x1="59" y1="0" x2="59" y2="118" gradientUnits="userSpaceOnUse">
<stop stop-color="#E43DFF"/>
<stop offset="1" stop-color="#FFC700" stop-opacity="0"/>
</linearGradient>
</defs>
</svg>
