<svg width="97" height="97" viewBox="0 0 97 97" fill="none" xmlns="http://www.w3.org/2000/svg">
<path d="M84.875 75.7812H12.125C11.3211 75.7812 10.5501 75.4619 9.98158 74.8934C9.41311 74.3249 9.09375 73.5539 9.09375 72.75C9.09375 71.9461 9.41311 71.1751 9.98158 70.6066C10.5501 70.0381 11.3211 69.7188 12.125 69.7188H84.875C85.6789 69.7188 86.45 70.0381 87.0184 70.6066C87.5869 71.1751 87.9062 71.9461 87.9062 72.75C87.9062 73.5539 87.5869 74.3249 87.0184 74.8934C86.45 75.4619 85.6789 75.7812 84.875 75.7812ZM78.8125 84.875H18.1875C17.3836 84.875 16.6126 84.5556 16.0441 83.9872C15.4756 83.4187 15.1562 82.6477 15.1562 81.8438C15.1562 81.0398 15.4756 80.2688 16.0441 79.7003C16.6126 79.1319 17.3836 78.8125 18.1875 78.8125H78.8125C79.6164 78.8125 80.3875 79.1319 80.9559 79.7003C81.5244 80.2688 81.8438 81.0398 81.8438 81.8438C81.8438 82.6477 81.5244 83.4187 80.9559 83.9872C80.3875 84.5556 79.6164 84.875 78.8125 84.875ZM6.0625 51.5312H3.03125V60.625C3.03125 62.2329 3.66998 63.7749 4.80692 64.9118C5.94385 66.0488 7.48588 66.6875 9.09375 66.6875H18.1875V63.6562C18.184 60.4416 16.9054 57.3596 14.6323 55.0865C12.3592 52.8133 9.27717 51.5348 6.0625 51.5312Z" fill="#0066FF" fill-opacity="0.7"/>
<path d="M90.9375 45.4688H93.9688V33.3438H90.9375C86.1156 33.3382 81.4927 31.4203 78.0831 28.0107C74.6735 24.601 72.7555 19.9782 72.75 15.1562V12.125H24.25V15.1562C24.2445 19.9782 22.3265 24.601 18.9169 28.0107C15.5073 31.4203 10.8844 33.3382 6.0625 33.3438H3.03125V45.4688H6.0625C10.8844 45.4743 15.5073 47.3922 18.9169 50.8018C22.3265 54.2115 24.2445 58.8343 24.25 63.6562V66.6875H72.75V63.6562C72.7555 58.8343 74.6735 54.2115 78.0831 50.8018C81.4927 47.3922 86.1156 45.4743 90.9375 45.4688ZM48.5 57.5938C44.9029 57.5938 41.3865 56.5271 38.3956 54.5286C35.4046 52.5301 33.0735 49.6896 31.6969 46.3663C30.3204 43.043 29.9602 39.3861 30.662 35.858C31.3637 32.33 33.0959 29.0893 35.6395 26.5457C38.1831 24.0022 41.4238 22.27 44.9518 21.5682C48.4798 20.8664 52.1367 21.2266 55.4601 22.6032C58.7834 23.9798 61.6239 26.3109 63.6224 29.3018C65.6208 32.2927 66.6875 35.8091 66.6875 39.4062C66.682 44.2282 64.764 48.851 61.3544 52.2607C57.9448 55.6703 53.3219 57.5882 48.5 57.5938Z" fill="#0066FF" fill-opacity="0.7"/>
<path d="M48.5 51.5312C55.1965 51.5312 60.625 46.1027 60.625 39.4062C60.625 32.7098 55.1965 27.2812 48.5 27.2812C41.8035 27.2812 36.375 32.7098 36.375 39.4062C36.375 46.1027 41.8035 51.5312 48.5 51.5312Z" fill="#0066FF" fill-opacity="0.7"/>
<path d="M78.8125 63.6562V66.6875H87.9062C89.5141 66.6875 91.0561 66.0488 92.1931 64.9118C93.33 63.7749 93.9688 62.2329 93.9688 60.625V51.5312H90.9375C87.7228 51.5348 84.6408 52.8133 82.3677 55.0865C80.0946 57.3596 78.816 60.4416 78.8125 63.6562ZM90.9375 27.2812H93.9688V18.1875C93.9688 16.5796 93.33 15.0376 92.1931 13.9007C91.0561 12.7637 89.5141 12.125 87.9062 12.125H78.8125V15.1562C78.816 18.3709 80.0946 21.4529 82.3677 23.726C84.6408 25.9992 87.7228 27.2777 90.9375 27.2812ZM18.1875 15.1562V12.125H9.09375C7.48588 12.125 5.94385 12.7637 4.80692 13.9007C3.66998 15.0376 3.03125 16.5796 3.03125 18.1875V27.2812H6.0625C9.27717 27.2777 12.3592 25.9992 14.6323 23.726C16.9054 21.4529 18.184 18.3709 18.1875 15.1562Z" fill="#0066FF" fill-opacity="0.7"/>
</svg>
