<svg width="308" height="46" viewBox="0 0 308 46" fill="none" xmlns="http://www.w3.org/2000/svg">
<path d="M89.9462 32.9538C90.1746 35.5308 90.8599 37.6891 92.0021 39.4286C93.1443 41.1681 94.9717 42.7465 97.4845 44.1639L96.1139 45.1303H66.3032L65.1039 43.3908C68.8731 42.8109 71.2716 42.2311 72.2996 41.6513C73.4418 41.0714 74.0128 40.0084 74.0128 38.4622C74.0128 37.6246 73.0991 29.7969 71.2716 14.979L70.2437 6.57143L47.1147 43.6807H42.3175L19.3598 6.86134L16.9613 28.895C16.5044 31.9874 16.276 34.1457 16.276 35.3698C16.276 37.0448 16.6186 38.5266 17.3039 39.8151C18.1035 41.0392 19.5312 42.4888 21.5871 44.1639L20.0451 45.1303H1.02796L0 43.3908C2.96965 42.8754 5.08267 42.4244 6.33906 42.0378C7.70967 41.6513 8.62341 41.1036 9.08028 40.395C9.65137 39.6863 10.0511 38.591 10.2796 37.1092L12.3355 18.5546C12.9066 14.2381 13.1921 11.4034 13.1921 10.0504C13.1921 7.85994 12.7352 6.2493 11.8215 5.21849C11.022 4.18767 9.13739 2.86695 6.16774 1.2563L7.36702 0H32.3806L50.0272 30.0546L68.7017 0H90.8028L92.516 1.06302C90.3459 2.86694 88.8611 4.34874 88.0616 5.5084C87.3763 6.66807 87.0336 8.18207 87.0336 10.0504C87.0336 11.2745 87.2621 13.1751 87.7189 15.7521L89.9462 32.9538Z" fill="black"/>
<path d="M137.679 42.8109C140.992 42.8109 143.904 42.4888 146.417 41.8445C148.93 41.1359 151.385 39.9762 153.784 38.3655L155.84 39.2353C153.213 41.3614 149.843 43.0364 145.732 44.2605C141.734 45.4202 137.337 46 132.539 46C127.285 46 122.545 45.2913 118.319 43.874C114.208 42.4566 110.952 40.5238 108.554 38.0756C106.155 35.563 104.956 32.7283 104.956 29.5714C104.956 24.5462 107.64 20.5518 113.008 17.5882C118.491 14.5602 125.743 13.0462 134.767 13.0462C141.163 13.0462 146.36 13.916 150.357 15.6555C154.469 17.3305 156.525 19.521 156.525 22.2269C156.525 25.3193 154.184 27.7997 149.501 29.6681C144.932 31.472 138.65 32.374 130.655 32.374C127.457 32.374 124.544 32.2451 121.917 31.9874C122.488 35.3375 124.202 37.979 127.057 39.9118C129.912 41.8445 133.453 42.8109 137.679 42.8109ZM132.882 15.3655C129.341 15.3655 126.543 16.5896 124.487 19.0378C122.545 21.4216 121.575 24.7717 121.575 29.0882V30.6345C122.831 30.6345 124.373 30.57 126.2 30.4412C130.997 30.1191 134.652 29.2493 137.165 27.8319C139.792 26.3501 141.106 24.4174 141.106 22.0336C141.106 20.1008 140.306 18.5224 138.707 17.2983C137.222 16.0098 135.281 15.3655 132.882 15.3655Z" fill="black"/>
<path d="M223.638 39.6218C223.638 41.5546 224.723 42.521 226.893 42.521C229.063 42.521 231.176 42.0378 233.232 41.0714L234.603 42.0378C230.377 44.6793 225.408 46 219.697 46C215.586 46 212.616 45.4202 210.789 44.2605C209.075 43.0364 208.219 41.0714 208.219 38.3655V23.5798C208.219 19.8431 206.106 17.9748 201.88 17.9748C197.768 17.9748 194.398 19.5532 191.771 22.7101C189.259 25.8669 188.002 29.9902 188.002 35.0798C188.002 37.0126 188.288 38.591 188.859 39.8151C189.43 40.9748 190.344 42.1022 191.6 43.1975L192.971 44.1639L191.6 45.1303H166.758L165.73 43.4874L168.128 43.1975C169.956 42.9398 171.155 42.5532 171.726 42.0378C172.297 41.458 172.583 40.3627 172.583 38.7521V19.9076C172.583 18.6835 171.84 18.0714 170.356 18.0714H164.873L164.359 17.0084C166.644 15.9132 169.499 15.0112 172.926 14.3025C176.352 13.5938 179.779 13.2395 183.205 13.2395C184.69 13.2395 185.832 13.4328 186.632 13.8193C187.545 14.2059 188.002 14.7213 188.002 15.3655V23.6765C189.601 20.6485 192.457 18.1359 196.569 16.1387C200.68 14.077 205.021 13.0462 209.589 13.0462C214.501 13.0462 218.041 13.9482 220.211 15.7521C222.496 17.556 223.638 20.423 223.638 24.3529V39.6218Z" fill="black"/>
<path d="M281.616 36.3361C280.017 39.1709 277.218 41.4902 273.221 43.2941C269.337 45.098 265.168 46 260.714 46C255.688 46 251.976 45.098 249.578 43.2941C247.179 41.4902 245.98 38.7199 245.98 34.9832V19.2311C245.98 18.3291 245.238 17.8782 243.753 17.8782H238.442L237.928 16.8151C240.212 15.7199 243.067 14.8179 246.494 14.1092C249.92 13.4006 253.29 13.0462 256.602 13.0462C258.087 13.0462 259.229 13.2395 260.029 13.6261C260.942 14.0126 261.399 14.528 261.399 15.1723V34.5C261.399 36.6905 261.97 38.3978 263.113 39.6218C264.255 40.7815 265.854 41.3613 267.91 41.3613C272.136 41.3613 275.505 39.9118 278.018 37.0126C280.645 34.049 281.958 30.2157 281.958 25.5126C281.958 23 281.616 21.0672 280.93 19.7143C280.359 18.2969 279.274 17.0728 277.675 16.042L276.133 14.979L277.504 14.1092L297.206 13.2395V39.6218C297.206 41.5546 298.234 42.521 300.29 42.521C302.46 42.521 304.573 42.0378 306.629 41.0714L308 42.0378C304.002 44.6793 299.034 46 293.095 46C288.754 46 285.728 45.2913 284.014 43.874C282.415 42.4566 281.616 39.944 281.616 36.3361Z" fill="black"/>
</svg>
