<svg width="41" height="40" viewBox="0 0 41 40" fill="none" xmlns="http://www.w3.org/2000/svg">
<path d="M28 15.6666L13 7.0166" stroke="black" stroke-width="2" stroke-linecap="round" stroke-linejoin="round"/>
<path d="M35.5 26.6666V13.3333C35.4994 12.7487 35.3451 12.1746 35.0526 11.6685C34.76 11.1624 34.3396 10.7422 33.8333 10.4499L22.1667 3.78325C21.6599 3.49069 21.0851 3.33667 20.5 3.33667C19.9149 3.33667 19.3401 3.49069 18.8333 3.78325L7.16667 10.4499C6.66044 10.7422 6.23997 11.1624 5.94744 11.6685C5.6549 12.1746 5.5006 12.7487 5.5 13.3333V26.6666C5.5006 27.2511 5.6549 27.8252 5.94744 28.3313C6.23997 28.8374 6.66044 29.2576 7.16667 29.5499L18.8333 36.2166C19.3401 36.5091 19.9149 36.6632 20.5 36.6632C21.0851 36.6632 21.6599 36.5091 22.1667 36.2166L33.8333 29.5499C34.3396 29.2576 34.76 28.8374 35.0526 28.3313C35.3451 27.8252 35.4994 27.2511 35.5 26.6666Z" stroke="black" stroke-width="2" stroke-linecap="round" stroke-linejoin="round"/>
<path d="M5.9502 11.6001L20.5002 20.0168L35.0502 11.6001" stroke="black" stroke-width="2" stroke-linecap="round" stroke-linejoin="round"/>
<path d="M20.5 36.8V20" stroke="black" stroke-width="2" stroke-linecap="round" stroke-linejoin="round"/>
</svg>
