<svg width="446" height="66" viewBox="0 0 446 66" fill="none" xmlns="http://www.w3.org/2000/svg">
<path d="M51.9098 17.003C51.9098 19.8872 50.9708 22.436 49.093 24.6494C47.3045 26.7957 44.8901 28.439 41.8497 29.5793C38.8988 30.7195 35.769 31.2896 32.4604 31.2896C28.9729 31.2896 25.6643 30.6189 22.5345 29.2774L22.8027 28.3719L25.083 28.4726L27.3633 28.3719C30.8508 27.9695 33.5782 26.7957 35.5454 24.8506C37.5127 22.8384 38.4964 20.189 38.4964 16.9024C38.4964 13.2134 37.3786 10.128 35.143 7.64634C32.9969 5.09756 30.0013 3.82317 26.1561 3.82317C24.0994 3.82317 22.5792 4.25915 21.5955 5.1311C20.7013 6.00305 20.2542 6.97561 20.2542 8.04878V36.1189C20.2542 38.8018 20.5225 40.9146 21.059 42.4573C21.685 44 22.758 45.5427 24.2782 47.0854L25.3513 48.2927L24.2782 49.2988H0.938936L0 47.4878C2.32499 47.0183 3.93459 46.5823 4.82882 46.1799C5.81246 45.7774 6.48313 45.2073 6.84082 44.4695C7.19851 43.7317 7.37736 42.5579 7.37736 40.9482V14.186C7.37736 11.8384 7.10909 10.061 6.57255 8.85366C6.12544 7.57927 5.00766 6.53963 3.21921 5.73475L1.6096 5.03049L2.14614 3.72256C4.73939 3.1189 8.09274 2.58232 12.2062 2.1128C16.409 1.64329 20.3883 1.40854 24.1441 1.40854C33.2652 1.40854 40.1507 2.85061 44.8007 5.73475C49.5401 8.55183 51.9098 12.3079 51.9098 17.003Z" fill="black"/>
<path d="M81.939 46.8841C84.5322 46.8841 86.8125 46.5488 88.7798 45.878C90.7471 45.1402 92.6697 43.9329 94.5475 42.2561L96.1571 43.1616C94.1004 45.375 91.4624 47.1189 88.2432 48.3933C85.1134 49.6006 81.6707 50.2043 77.9149 50.2043C73.8015 50.2043 70.0905 49.4665 66.7818 47.9908C63.5626 46.5152 61.0141 44.503 59.1362 41.9543C57.2583 39.3384 56.3194 36.3872 56.3194 33.1006C56.3194 27.8689 58.4208 23.7104 62.6237 20.625C66.916 17.4726 72.5943 15.8963 79.6587 15.8963C84.6663 15.8963 88.7351 16.8018 91.8649 18.6128C95.0841 20.3567 96.6937 22.6372 96.6937 25.4543C96.6937 28.6738 94.8605 31.2561 91.1942 33.2012C87.6173 35.0793 82.6991 36.0183 76.4395 36.0183C73.9356 36.0183 71.6554 35.8841 69.5986 35.6159C70.0458 39.1037 71.3871 41.8537 73.6227 43.8658C75.8582 45.878 78.6303 46.8841 81.939 46.8841ZM78.1832 18.311C75.4111 18.311 73.2203 19.5854 71.6107 22.1341C70.0905 24.6159 69.3304 28.1037 69.3304 32.5976V34.2073C70.314 34.2073 71.5212 34.1402 72.952 34.0061C76.7077 33.6707 79.5693 32.7652 81.5366 31.2896C83.5933 29.7469 84.6216 27.7348 84.6216 25.253C84.6216 23.2409 83.9957 21.5976 82.7438 20.3232C81.5813 18.9817 80.0611 18.311 78.1832 18.311Z" fill="black"/>
<path d="M118.521 43.564C118.521 45.5762 119.37 46.5823 121.069 46.5823C122.768 46.5823 124.423 46.0793 126.032 45.0732L127.105 46.0793C123.976 48.8293 120.086 50.2043 115.436 50.2043C112.306 50.2043 110.026 49.6677 108.595 48.5945C107.164 47.4543 106.449 45.6768 106.449 43.2622V6.33841C106.449 5.39939 105.868 4.92988 104.705 4.92988H100.413L100.01 3.92378C101.709 2.71646 103.9 1.77744 106.583 1.1067C109.355 0.368902 112.082 0 114.765 0C115.928 0 116.822 0.201219 117.448 0.603657C118.163 0.939022 118.521 1.44207 118.521 2.1128V43.564Z" fill="black"/>
<path d="M145.492 27.064C143.614 27.8689 141.379 28.2713 138.785 28.2713C136.908 28.2713 135.432 27.8689 134.359 27.064C133.286 26.1921 132.749 24.9848 132.749 23.4421C132.749 21.1616 134.225 19.3506 137.176 18.0091C140.216 16.6006 144.151 15.8963 148.98 15.8963C154.703 15.8963 159.174 16.8354 162.393 18.7134C165.702 20.5915 167.356 23.1402 167.356 26.3598V43.7652C167.356 45.6433 168.25 46.5823 170.039 46.5823C171.738 46.5823 173.392 46.0793 175.002 45.0732L176.075 46.0793C172.766 48.8293 168.831 50.2043 164.271 50.2043C161.588 50.2043 159.531 49.7012 158.101 48.6951C156.759 47.689 155.955 46.1128 155.686 43.9665H155.15C153.719 45.9116 151.796 47.4543 149.382 48.5945C147.057 49.6677 144.374 50.2043 141.334 50.2043C137.936 50.2043 135.209 49.4329 133.152 47.8902C131.095 46.2805 130.067 44.2012 130.067 41.6524C130.067 38.7683 131.9 36.4878 135.566 34.811C139.233 33.1341 144.196 32.2957 150.455 32.2957C151.618 32.2957 153.272 32.3628 155.418 32.4969V27.4665C155.418 24.1799 154.882 21.8323 153.808 20.4238C152.735 18.9482 150.992 18.2104 148.577 18.2104C146.878 18.2104 145.537 18.6128 144.553 19.4177C143.57 20.2226 143.078 21.2622 143.078 22.5366C143.078 24.5488 143.883 26.0579 145.492 27.064ZM147.504 45.1738C152.78 45.1738 155.418 41.5854 155.418 34.4085C150.947 34.4085 147.594 34.9787 145.358 36.1189C143.122 37.1921 142.005 38.7348 142.005 40.7469C142.005 42.0884 142.496 43.1616 143.48 43.9665C144.464 44.7713 145.805 45.1738 147.504 45.1738Z" fill="black"/>
<path d="M222.919 16.0976V49.2988C222.919 54.5976 220.862 58.689 216.749 61.5732C212.725 64.5244 207.091 66 199.848 66C195.377 66 191.755 65.3628 188.983 64.0884C186.211 62.814 184.825 61.1372 184.825 59.0579C184.825 57.2469 185.54 55.7713 186.971 54.6311C188.402 53.5579 190.28 53.0213 192.605 53.0213C194.304 53.0213 195.958 53.2896 197.567 53.8262C195.958 55.0335 195.153 56.6768 195.153 58.7561C195.153 60.2317 195.734 61.439 196.897 62.378C198.149 63.3171 199.714 63.7866 201.592 63.7866C207.851 63.7866 210.981 59.9634 210.981 52.3171V39.5396C209.818 42.0884 207.762 44.2012 204.811 45.878C201.949 47.4878 198.864 48.2927 195.555 48.2927C191.621 48.2927 188.715 47.3872 186.837 45.5762C184.959 43.7652 184.02 41.0152 184.02 37.3262V22.3354C184.02 21.3963 183.439 20.9268 182.276 20.9268H178.118L177.716 19.8201C179.415 18.6799 181.65 17.7409 184.422 17.003C187.194 16.2652 189.832 15.8963 192.336 15.8963C193.499 15.8963 194.393 16.0976 195.019 16.5C195.734 16.9024 196.092 17.439 196.092 18.1098V38.4329C196.092 42.189 197.657 44.0671 200.787 44.0671C203.827 44.0671 206.286 42.6921 208.164 39.9421C210.042 37.1921 210.981 33.5366 210.981 28.9756C210.981 26.561 210.713 24.5823 210.176 23.0396C209.64 21.497 208.79 20.1555 207.628 19.0152L206.554 17.9085L207.493 17.003L222.919 16.0976Z" fill="black"/>
<path d="M248.974 27.064C247.096 27.8689 244.861 28.2713 242.268 28.2713C240.39 28.2713 238.914 27.8689 237.841 27.064C236.768 26.1921 236.232 24.9848 236.232 23.4421C236.232 21.1616 237.707 19.3506 240.658 18.0091C243.698 16.6006 247.633 15.8963 252.462 15.8963C258.185 15.8963 262.656 16.8354 265.875 18.7134C269.184 20.5915 270.838 23.1402 270.838 26.3598V43.7652C270.838 45.6433 271.732 46.5823 273.521 46.5823C275.22 46.5823 276.874 46.0793 278.484 45.0732L279.557 46.0793C276.248 48.8293 272.314 50.2043 267.753 50.2043C265.07 50.2043 263.014 49.7012 261.583 48.6951C260.241 47.689 259.437 46.1128 259.168 43.9665H258.632C257.201 45.9116 255.279 47.4543 252.864 48.5945C250.539 49.6677 247.856 50.2043 244.816 50.2043C241.418 50.2043 238.691 49.4329 236.634 47.8902C234.577 46.2805 233.549 44.2012 233.549 41.6524C233.549 38.7683 235.382 36.4878 239.048 34.811C242.715 33.1341 247.678 32.2957 253.937 32.2957C255.1 32.2957 256.754 32.3628 258.9 32.4969V27.4665C258.9 24.1799 258.364 21.8323 257.291 20.4238C256.217 18.9482 254.474 18.2104 252.059 18.2104C250.36 18.2104 249.019 18.6128 248.035 19.4177C247.052 20.2226 246.56 21.2622 246.56 22.5366C246.56 24.5488 247.365 26.0579 248.974 27.064ZM250.986 45.1738C256.262 45.1738 258.9 41.5854 258.9 34.4085C254.429 34.4085 251.076 34.9787 248.84 36.1189C246.605 37.1921 245.487 38.7348 245.487 40.7469C245.487 42.0884 245.979 43.1616 246.962 43.9665C247.946 44.7713 249.287 45.1738 250.986 45.1738Z" fill="black"/>
<path d="M329.218 43.564C329.218 45.5762 330.067 46.5823 331.766 46.5823C333.465 46.5823 335.12 46.0793 336.729 45.0732L337.802 46.0793C334.494 48.8293 330.604 50.2043 326.133 50.2043C322.913 50.2043 320.588 49.6006 319.158 48.3933C317.816 47.1189 317.146 45.0732 317.146 42.2561V26.8628C317.146 22.9726 315.491 21.0274 312.183 21.0274C308.963 21.0274 306.326 22.6707 304.269 25.9573C302.301 29.2439 301.318 33.5366 301.318 38.8354C301.318 40.8476 301.541 42.4909 301.989 43.7652C302.436 44.9726 303.151 46.1463 304.135 47.2866L305.208 48.2927L304.135 49.2988H284.685L283.88 47.5884L285.758 47.2866C287.189 47.0183 288.128 46.6159 288.575 46.0793C289.022 45.4756 289.246 44.3354 289.246 42.6585V23.0396C289.246 21.7652 288.665 21.128 287.502 21.128H283.21L282.807 20.0213C284.596 18.8811 286.831 17.9421 289.514 17.2043C292.197 16.4665 294.879 16.0976 297.562 16.0976C298.725 16.0976 299.619 16.2988 300.245 16.7012C300.96 17.1037 301.318 17.6402 301.318 18.311V26.9634C302.57 23.811 304.805 21.1951 308.025 19.1159C311.244 16.9695 314.642 15.8963 318.219 15.8963C322.064 15.8963 324.836 16.8354 326.535 18.7134C328.323 20.5915 329.218 23.5762 329.218 27.6677V43.564Z" fill="black"/>
<path d="M357.172 27.064C355.294 27.8689 353.059 28.2713 350.465 28.2713C348.587 28.2713 347.112 27.8689 346.039 27.064C344.966 26.1921 344.429 24.9848 344.429 23.4421C344.429 21.1616 345.905 19.3506 348.856 18.0091C351.896 16.6006 355.831 15.8963 360.659 15.8963C366.382 15.8963 370.854 16.8354 374.073 18.7134C377.381 20.5915 379.036 23.1402 379.036 26.3598V43.7652C379.036 45.6433 379.93 46.5823 381.718 46.5823C383.418 46.5823 385.072 46.0793 386.681 45.0732L387.755 46.0793C384.446 48.8293 380.511 50.2043 375.951 50.2043C373.268 50.2043 371.211 49.7012 369.781 48.6951C368.439 47.689 367.634 46.1128 367.366 43.9665H366.83C365.399 45.9116 363.476 47.4543 361.062 48.5945C358.737 49.6677 356.054 50.2043 353.014 50.2043C349.616 50.2043 346.888 49.4329 344.832 47.8902C342.775 46.2805 341.747 44.2012 341.747 41.6524C341.747 38.7683 343.58 36.4878 347.246 34.811C350.912 33.1341 355.875 32.2957 362.135 32.2957C363.297 32.2957 364.952 32.3628 367.098 32.4969V27.4665C367.098 24.1799 366.561 21.8323 365.488 20.4238C364.415 18.9482 362.671 18.2104 360.257 18.2104C358.558 18.2104 357.217 18.6128 356.233 19.4177C355.249 20.2226 354.758 21.2622 354.758 22.5366C354.758 24.5488 355.562 26.0579 357.172 27.064ZM359.184 45.1738C364.46 45.1738 367.098 41.5854 367.098 34.4085C362.627 34.4085 359.273 34.9787 357.038 36.1189C354.802 37.1921 353.685 38.7348 353.685 40.7469C353.685 42.0884 354.176 43.1616 355.16 43.9665C356.144 44.7713 357.485 45.1738 359.184 45.1738Z" fill="black"/>
<path d="M437.415 43.564C437.415 45.5762 438.265 46.5823 439.964 46.5823C441.663 46.5823 443.317 46.0793 444.927 45.0732L446 46.0793C442.691 48.8293 438.801 50.2043 434.33 50.2043C431.111 50.2043 428.786 49.6006 427.355 48.3933C426.014 47.1189 425.343 45.0732 425.343 42.2561V26.8628C425.343 22.9726 423.689 21.0274 420.38 21.0274C417.161 21.0274 414.523 22.6707 412.467 25.9573C410.499 29.2439 409.516 33.5366 409.516 38.8354C409.516 40.8476 409.739 42.4909 410.186 43.7652C410.633 44.9726 411.349 46.1463 412.332 47.2866L413.405 48.2927L412.332 49.2988H392.883L392.078 47.5884L393.956 47.2866C395.387 47.0183 396.326 46.6159 396.773 46.0793C397.22 45.4756 397.444 44.3354 397.444 42.6585V23.0396C397.444 21.7652 396.862 21.128 395.7 21.128H391.408L391.005 20.0213C392.794 18.8811 395.029 17.9421 397.712 17.2043C400.395 16.4665 403.077 16.0976 405.76 16.0976C406.922 16.0976 407.817 16.2988 408.443 16.7012C409.158 17.1037 409.516 17.6402 409.516 18.311V26.9634C410.768 23.811 413.003 21.1951 416.222 19.1159C419.441 16.9695 422.84 15.8963 426.416 15.8963C430.262 15.8963 433.034 16.8354 434.733 18.7134C436.521 20.5915 437.415 23.5762 437.415 27.6677V43.564Z" fill="black"/>
</svg>
