<svg width="626" height="112" viewBox="0 0 626 112" fill="none" xmlns="http://www.w3.org/2000/svg">
<g filter="url(#filter0_d_100_201)">
<mask id="path-1-outside-1_100_201" maskUnits="userSpaceOnUse" x="4" y="0" width="618" height="104" fill="black">
<rect fill="white" x="4" width="618" height="104"/>
<path d="M89.0222 8.91273C89.2799 10.3139 89.4518 11.303 89.5377 11.88C89.7095 12.3745 89.7954 13.0752 89.7954 13.9818C89.7954 16.7018 89.1511 19.257 87.8624 21.6473C86.6596 23.9552 84.9843 25.6036 82.8365 26.5927C81.1183 24.3673 79.0134 22.4715 76.522 20.9055C74.0305 19.257 71.2813 17.9382 68.2744 16.9491C65.3534 15.8776 62.3035 15.0945 59.1247 14.6C55.946 14.1055 52.8531 13.8582 49.8462 13.8582C46.8393 13.8582 44.0042 14.1055 41.3409 14.6C38.7635 15.0121 36.4439 15.6303 34.382 16.4545C32.406 17.1964 30.8166 18.1442 29.6139 19.2982C28.497 20.4521 27.9386 21.7709 27.9386 23.2546C28.1963 25.0679 29.3561 26.9224 31.418 28.8182C33.4799 30.6315 36.0143 32.4449 39.0213 34.2582C42.0282 35.9891 45.3358 37.72 48.9441 39.4509C52.6384 41.1818 56.2467 42.8303 59.7691 44.3964C64.1506 46.3746 67.9307 48.2291 71.1095 49.96C74.2882 51.6085 76.9086 53.463 78.9705 55.5236C81.0324 57.5018 82.5788 59.7685 83.6097 62.3236C84.6407 64.8788 85.1562 67.9697 85.1562 71.5964C85.1562 75.8 84.4259 79.7564 82.9654 83.4655C81.5049 87.0921 79.3571 90.2655 76.522 92.9855C73.7728 95.7055 70.4222 97.8073 66.4702 99.2909C62.5183 100.857 58.0938 101.64 53.1968 101.64C48.3857 101.64 43.188 100.939 37.6037 99.5382C32.0194 98.137 26.7788 96.2 21.8818 93.7273C17.0707 91.337 13.0328 88.5758 9.76813 85.4436C6.58938 82.2291 5 78.8497 5 75.3055C5 73.657 5.47252 71.5552 6.41755 69C7.4485 66.4449 9.25266 63.7661 11.83 60.9636C12.0878 63.4364 13.4624 66.3624 15.9538 69.7418C18.5312 73.1212 22.3543 76.2533 27.4231 79.1382C32.1483 81.7758 37.0023 83.7127 41.9852 84.9491C47.0541 86.103 51.7792 86.68 56.1608 86.68C60.9718 86.68 64.8809 86.103 67.8878 84.9491C70.8947 83.7952 73.2573 82.4352 74.9755 80.8691C76.6938 79.2206 77.8966 77.5721 78.5839 75.9237C79.2712 74.2752 79.6578 72.9564 79.7437 71.9673C79.6578 70.3188 78.8416 68.7527 77.2952 67.2691C75.8347 65.703 73.8157 64.2194 71.2384 62.8182C68.7469 61.3346 65.8259 59.8509 62.4753 58.3673C59.1247 56.8836 55.6453 55.4 52.037 53.9164C46.6245 51.6085 41.9423 49.4655 37.9903 47.4873C34.1243 45.4267 30.9025 43.3661 28.3252 41.3055C25.8337 39.1624 23.9866 36.937 22.7838 34.6291C21.667 32.3212 21.1086 29.6836 21.1086 26.7164C21.1086 22.1006 22.5691 17.7321 25.4901 13.6109C28.4111 9.4897 32.6208 6.35758 38.1192 4.21455C40.8684 3.06061 43.7894 2.23637 46.8822 1.74182C50.061 1.24727 53.1538 1 56.1608 1C61.831 1 67.3723 1.74182 72.7848 3.22546C78.1973 4.70909 83.6097 6.60485 89.0222 8.91273Z"/>
<path d="M148.707 39.5745C151.542 39.5745 153.733 40.3164 155.28 41.8C156.912 43.2836 157.728 45.3442 157.728 47.9818C157.728 48.6412 157.642 49.3418 157.47 50.0836C157.385 50.743 157.256 51.32 157.084 51.8146C155.967 51.6497 154.721 51.5261 153.347 51.4436C151.972 51.2788 150.34 51.1964 148.45 51.1964C144.755 51.1964 141.018 51.5261 137.238 52.1855C133.458 52.7624 129.85 53.257 126.413 53.6691C124.437 58.0376 122.633 62.2824 121.001 66.4036C119.368 70.4424 117.951 74.1515 116.748 77.5309C115.631 80.9103 114.729 83.8364 114.042 86.3091C113.44 88.7818 113.097 90.6364 113.011 91.8727C119.97 90.4715 126.972 89.2764 134.016 88.2873C141.147 87.2982 148.621 86.5564 156.439 86.0618C157.385 87.463 158.158 88.9879 158.759 90.6364C159.446 92.2849 159.79 94.057 159.79 95.9527C159.79 96.4473 159.79 96.983 159.79 97.56C159.79 98.137 159.704 98.714 159.532 99.2909C157.127 99.2085 154.592 99.1261 151.929 99.0436C149.266 99.0436 145.786 99.0436 141.491 99.0436C138.656 99.0436 135.949 99.0849 133.372 99.1673C130.881 99.3321 128.346 99.5382 125.769 99.7855C123.191 100.033 120.442 100.362 117.521 100.775C114.686 101.187 111.464 101.681 107.856 102.258C103.904 100.775 100.081 97.1479 96.3868 91.3782C97.8473 88.4109 99.8663 83.9188 102.444 77.9018C105.107 71.8024 108.457 63.6836 112.495 53.5455C108.629 52.3915 106.095 50.3309 104.892 47.3636C105.322 46.9515 106.567 46.457 108.629 45.88C110.691 45.2206 113.226 44.5612 116.233 43.9018C117.521 40.6873 118.595 37.8849 119.454 35.4945C120.399 33.1042 121.215 30.8788 121.903 28.8182C122.59 26.6752 123.191 24.6145 123.707 22.6364C124.308 20.5758 124.867 18.3503 125.382 15.96C122.375 15.7952 120.013 15.0121 118.294 13.6109C116.576 12.1273 115.717 10.2315 115.717 7.92364C115.717 7.26424 115.803 6.48121 115.975 5.57454C116.233 4.66788 116.49 3.88485 116.748 3.22546C118.466 3.47273 120.099 3.63758 121.645 3.72C123.277 3.80243 125.382 3.84364 127.96 3.84364C133.372 3.84364 138.441 3.72 143.166 3.47273C147.891 3.14303 152.144 2.81333 155.924 2.48364C159.79 2.15394 163.098 1.86546 165.847 1.61818C168.596 1.28848 170.701 1.12363 172.161 1.12363C174.137 1.12363 175.899 2.11273 177.445 4.09091C178.991 6.06909 180.151 8.87151 180.924 12.4982C178.261 12.2509 176.07 12.0861 174.352 12.0036C172.72 11.9212 171.259 11.88 169.971 11.88C165.245 11.88 160.907 12.1273 156.955 12.6218C153.089 13.0339 149.352 13.4873 145.743 13.9818C145.228 14.7236 144.627 15.6715 143.939 16.8255C143.338 17.9794 142.522 19.5867 141.491 21.6473C140.46 23.7079 139.171 26.3042 137.625 29.4364C136.164 32.5685 134.36 36.4836 132.212 41.1818C135.477 40.6873 138.527 40.3164 141.362 40.0691C144.283 39.7394 146.731 39.5745 148.707 39.5745Z"/>
<path d="M261.644 24.12C261.644 28.0764 260.699 31.8267 258.809 35.3709C257.005 38.8327 254.471 41.9649 251.206 44.7673C247.941 47.4873 244.118 49.7952 239.737 51.6909C235.355 53.5867 230.587 54.8643 225.432 55.5236C226.721 59.2327 228.268 63.0655 230.072 67.0218C231.962 70.8958 233.981 74.6461 236.128 78.2727C238.276 81.8994 240.51 85.2376 242.83 88.2873C245.149 91.337 247.426 93.8509 249.66 95.8291C249.23 96.6533 248.586 97.4776 247.727 98.3018C246.953 99.1261 246.008 99.8679 244.892 100.527C243.861 101.269 242.744 101.846 241.541 102.258C240.424 102.753 239.35 103 238.319 103C236.429 103 234.625 102.135 232.907 100.404C231.189 98.6727 229.427 95.9527 227.623 92.2437C225.905 88.4521 224.058 83.5891 222.082 77.6545C220.192 71.6376 218.087 64.4255 215.767 56.0182C214.822 56.0182 213.877 56.0182 212.932 56.0182C211.987 56.0182 211.257 55.9358 210.741 55.7709C210.14 55.4412 209.496 54.8642 208.808 54.04C206.489 58.8206 204.427 63.3127 202.623 67.5164C200.819 71.72 199.186 75.8 197.726 79.7564C196.351 83.6303 195.105 87.4218 193.989 91.1309C192.958 94.7576 192.055 98.4667 191.282 102.258C188.361 101.599 185.827 100.404 183.679 98.6727C181.531 96.9418 179.512 94.5103 177.622 91.3782C177.966 90.6364 178.31 89.9358 178.653 89.2764C179.083 88.5346 179.598 87.5455 180.2 86.3091C180.801 84.9903 181.531 83.3418 182.39 81.3636C183.335 79.3855 184.538 76.7479 185.999 73.4509C187.545 70.1539 189.349 66.1152 191.411 61.3346C193.559 56.5539 196.136 50.743 199.143 43.9018C200.518 40.8521 201.678 38.1733 202.623 35.8655C203.654 33.5576 204.556 31.3733 205.329 29.3127C206.102 27.1697 206.789 25.0679 207.391 23.0073C208.078 20.8642 208.765 18.4327 209.453 15.7127C205.501 17.0315 201.807 18.5152 198.37 20.1636C195.019 21.7297 192.227 23.4194 189.994 25.2327C189.22 24.7382 188.404 23.9964 187.545 23.0073C186.772 22.0182 186.042 20.9467 185.354 19.7927C184.667 18.5564 184.066 17.32 183.55 16.0836C183.035 14.8473 182.734 13.7345 182.648 12.7455C185.225 11.097 188.361 9.57212 192.055 8.17092C195.836 6.7697 199.831 5.57455 204.04 4.58546C208.25 3.51394 212.546 2.6897 216.927 2.11273C221.309 1.53576 225.389 1.24727 229.17 1.24727C239.479 1.24727 247.469 3.30788 253.139 7.42909C258.809 11.4679 261.644 17.0315 261.644 24.12ZM230.201 13.7345C229.599 14.4764 228.654 15.96 227.365 18.1855C226.077 20.4109 224.573 23.0897 222.855 26.2218C221.223 29.2715 219.462 32.6097 217.571 36.2364C215.767 39.863 214.006 43.4485 212.288 46.9927C218.731 46.9927 224.659 46.4158 230.072 45.2618C235.484 44.1079 240.166 42.5006 244.118 40.44C248.07 38.297 251.12 35.8242 253.268 33.0218C255.502 30.137 256.619 26.9636 256.619 23.5018C256.619 19.3806 255.072 16.2485 251.979 14.1055C248.886 11.88 244.118 10.7673 237.675 10.7673C236.214 10.7673 234.754 10.8497 233.293 11.0146C231.833 11.097 230.286 11.2206 228.654 11.3855L230.201 13.7345Z"/>
<path d="M301.326 100.156C299.35 101.145 297.245 101.64 295.011 101.64C292.262 101.31 289.599 100.651 287.021 99.6618C284.53 98.6727 282.683 97.4776 281.48 96.0764C280.793 92.0376 280.234 88.3285 279.805 84.9491C279.375 81.5697 279.032 78.3964 278.774 75.4291C278.516 72.3794 278.344 69.4946 278.258 66.7746C278.172 63.9721 278.13 61.1697 278.13 58.3673C278.13 54.6582 278.172 50.743 278.258 46.6218C278.344 42.5006 278.43 38.1321 278.516 33.5164C278.688 28.8182 278.817 23.8315 278.903 18.5564C278.989 13.1988 279.032 7.38788 279.032 1.12363C280.148 1.12363 281.824 1.45333 284.057 2.11273C286.291 2.6897 288.482 3.3903 290.63 4.21455C292.863 5.03879 294.839 5.90424 296.558 6.81091C298.276 7.63515 299.221 8.33576 299.393 8.91273C298.534 11.2206 297.76 14.2291 297.073 17.9382C296.472 21.6473 295.956 25.7685 295.527 30.3018C295.183 34.8352 294.925 39.6158 294.754 44.6436C294.582 49.6715 294.496 54.6582 294.496 59.6036C294.496 63.3127 294.539 66.6509 294.625 69.6182C294.711 72.503 294.796 75.1406 294.882 77.5309C295.054 79.8388 295.269 82.023 295.527 84.0837C295.784 86.0618 296.085 88.04 296.429 90.0182C298.834 83.0121 301.455 76.0061 304.29 69C307.211 61.9939 310.175 55.2764 313.182 48.8473C316.275 42.3358 319.324 36.2776 322.331 30.6727C325.338 25.0679 328.173 20.2048 330.837 16.0836C333.586 11.88 336.034 8.58303 338.182 6.19273C340.33 3.72 342.091 2.40121 343.466 2.23636C344.411 2.40121 345.399 2.77213 346.43 3.34909C347.547 3.84364 348.578 4.46181 349.523 5.20363C350.468 5.94545 351.327 6.7697 352.1 7.67637C352.873 8.58303 353.475 9.4897 353.904 10.3964C350.725 11.4679 347.289 13.9818 343.595 17.9382C339.986 21.8946 336.335 26.6752 332.641 32.28C328.947 37.8024 325.338 43.8606 321.816 50.4545C318.379 56.9661 315.244 63.3539 312.409 69.6182C309.659 75.8824 307.297 81.7346 305.321 87.1746C303.345 92.6146 302.013 96.9418 301.326 100.156Z"/>
<path d="M343.748 85.1964C343.748 82.2291 344.22 78.3964 345.165 73.6982C346.196 68.9176 347.485 63.8073 349.031 58.3673C350.664 52.8449 352.511 47.24 354.573 41.5527C356.635 35.783 358.739 30.3842 360.887 25.3564C363.035 20.3285 365.14 15.9188 367.202 12.1273C369.264 8.33576 371.111 5.61576 372.743 3.96727C373.602 4.04969 374.719 4.37939 376.094 4.95637C377.554 5.45091 379.015 6.06909 380.475 6.81091C381.936 7.55272 383.267 8.37697 384.47 9.28364C385.673 10.1079 386.446 10.8909 386.79 11.6327C384.298 13.7758 381.807 17.0315 379.315 21.4C376.91 25.6861 374.547 30.5903 372.228 36.1127C369.994 41.6352 367.889 47.4873 365.913 53.6691C363.937 59.7685 362.219 65.703 360.758 71.4727C359.298 77.2424 358.138 82.6 357.279 87.5455C356.506 92.4909 356.119 96.4885 356.119 99.5382C356.119 100.939 356.248 101.805 356.506 102.135C354.616 102.052 353.241 101.722 352.382 101.145C351.523 100.651 350.835 100.074 350.32 99.4146C349.89 98.8376 349.461 98.2194 349.031 97.56C348.688 96.983 348.129 96.5297 347.356 96.2C346.755 95.9527 346.239 95.3758 345.81 94.4691C345.38 93.5624 344.993 92.5733 344.65 91.5018C344.392 90.3479 344.177 89.1939 344.005 88.04C343.834 86.8861 343.748 85.9382 343.748 85.1964Z"/>
<path d="M385.814 68.0109C385.814 62.2412 386.501 56.5952 387.876 51.0727C389.337 45.4679 391.355 40.1927 393.933 35.2473C396.51 30.2194 399.56 25.6449 403.082 21.5236C406.691 17.32 410.6 13.6933 414.81 10.6436C419.105 7.59394 423.658 5.24485 428.47 3.59637C433.281 1.86546 438.221 1 443.289 1C449.217 1 453.814 2.19515 457.078 4.58546C460.429 6.97576 462.104 10.3139 462.104 14.6C462.104 16.2485 461.846 17.9382 461.331 19.6691C460.901 21.4 460.214 23.1309 459.269 24.8618C458.41 26.5103 457.379 28.1176 456.176 29.6836C454.974 31.2497 453.642 32.6097 452.181 33.7636C449.948 33.4339 448.015 32.4861 446.382 30.92C444.75 29.2715 443.719 27.3758 443.289 25.2327C446.296 22.8424 448.659 20.3697 450.377 17.8145C452.181 15.177 453.083 12.7867 453.083 10.6436C453.083 7.01697 450.721 5.20363 445.996 5.20363C444.02 5.20363 441.958 5.61576 439.81 6.44C437.748 7.18182 435.643 8.25333 433.495 9.65454C431.348 11.0558 429.243 12.7455 427.181 14.7236C425.205 16.7018 423.358 18.8861 421.64 21.2764C409.698 37.7612 403.727 54.617 403.727 71.8436C403.727 77.943 404.715 82.8473 406.691 86.5564C408.667 90.2655 411.287 92.4497 414.552 93.1091C418.246 92.2849 422.928 90.0182 428.598 86.3091C434.269 82.6 440.454 77.7782 447.155 71.8436C448.015 72.6679 448.53 73.5333 448.702 74.44C446.21 77.5721 443.633 80.5806 440.97 83.4655C438.307 86.3503 435.643 88.9879 432.98 91.3782C430.403 93.7685 427.825 95.8703 425.248 97.6836C422.756 99.497 420.437 100.898 418.289 101.887C407.636 101.722 399.56 98.7964 394.062 93.1091C388.563 87.4218 385.814 79.0558 385.814 68.0109Z"/>
<path d="M510.898 39.5745C513.733 39.5745 515.924 40.3164 517.47 41.8C519.103 43.2836 519.919 45.3442 519.919 47.9818C519.919 48.6412 519.833 49.3418 519.661 50.0836C519.575 50.743 519.446 51.32 519.274 51.8146C518.158 51.6497 516.912 51.5261 515.537 51.4436C514.163 51.2788 512.53 51.1964 510.64 51.1964C506.946 51.1964 503.209 51.5261 499.429 52.1855C495.649 52.7624 492.04 53.257 488.604 53.6691C486.628 58.0376 484.824 62.2824 483.191 66.4036C481.559 70.4424 480.141 74.1515 478.939 77.5309C477.822 80.9103 476.92 83.8364 476.232 86.3091C475.631 88.7818 475.287 90.6364 475.202 91.8727C482.16 90.4715 489.162 89.2764 496.207 88.2873C503.338 87.2982 510.812 86.5564 518.63 86.0618C519.575 87.463 520.348 88.9879 520.95 90.6364C521.637 92.2849 521.981 94.057 521.981 95.9527C521.981 96.4473 521.981 96.983 521.981 97.56C521.981 98.137 521.895 98.714 521.723 99.2909C519.317 99.2085 516.783 99.1261 514.12 99.0436C511.456 99.0436 507.977 99.0436 503.681 99.0436C500.846 99.0436 498.14 99.0849 495.563 99.1673C493.071 99.3321 490.537 99.5382 487.959 99.7855C485.382 100.033 482.633 100.362 479.712 100.775C476.877 101.187 473.655 101.681 470.047 102.258C466.095 100.775 462.272 97.1479 458.577 91.3782C460.038 88.4109 462.057 83.9188 464.634 77.9018C467.298 71.8024 470.648 63.6836 474.686 53.5455C470.82 52.3915 468.286 50.3309 467.083 47.3636C467.512 46.9515 468.758 46.457 470.82 45.88C472.882 45.2206 475.416 44.5612 478.423 43.9018C479.712 40.6873 480.786 37.8849 481.645 35.4945C482.59 33.1042 483.406 30.8788 484.093 28.8182C484.781 26.6752 485.382 24.6145 485.898 22.6364C486.499 20.5758 487.057 18.3503 487.573 15.96C484.566 15.7952 482.203 15.0121 480.485 13.6109C478.767 12.1273 477.908 10.2315 477.908 7.92364C477.908 7.26424 477.994 6.48121 478.165 5.57454C478.423 4.66788 478.681 3.88485 478.939 3.22546C480.657 3.47273 482.289 3.63758 483.836 3.72C485.468 3.80243 487.573 3.84364 490.15 3.84364C495.563 3.84364 500.632 3.72 505.357 3.47273C510.082 3.14303 514.335 2.81333 518.115 2.48364C521.981 2.15394 525.288 1.86546 528.038 1.61818C530.787 1.28848 532.892 1.12363 534.352 1.12363C536.328 1.12363 538.089 2.11273 539.636 4.09091C541.182 6.06909 542.342 8.87151 543.115 12.4982C540.452 12.2509 538.261 12.0861 536.543 12.0036C534.911 11.9212 533.45 11.88 532.161 11.88C527.436 11.88 523.098 12.1273 519.146 12.6218C515.28 13.0339 511.542 13.4873 507.934 13.9818C507.419 14.7236 506.817 15.6715 506.13 16.8255C505.529 17.9794 504.712 19.5867 503.681 21.6473C502.65 23.7079 501.362 26.3042 499.815 29.4364C498.355 32.5685 496.551 36.4836 494.403 41.1818C497.668 40.6873 500.717 40.3164 503.553 40.0691C506.474 39.7394 508.922 39.5745 510.898 39.5745Z"/>
<path d="M620.227 8.91273C620.484 10.3139 620.656 11.303 620.742 11.88C620.914 12.3745 621 13.0752 621 13.9818C621 16.7018 620.356 19.257 619.067 21.6473C617.864 23.9552 616.189 25.6036 614.041 26.5927C612.323 24.3673 610.218 22.4715 607.727 20.9055C605.235 19.257 602.486 17.9382 599.479 16.9491C596.558 15.8776 593.508 15.0945 590.329 14.6C587.151 14.1055 584.058 13.8582 581.051 13.8582C578.044 13.8582 575.209 14.1055 572.545 14.6C569.968 15.0121 567.648 15.6303 565.587 16.4545C563.611 17.1964 562.021 18.1442 560.818 19.2982C559.702 20.4521 559.143 21.7709 559.143 23.2546C559.401 25.0679 560.561 26.9224 562.623 28.8182C564.685 30.6315 567.219 32.4449 570.226 34.2582C573.233 35.9891 576.54 37.72 580.149 39.4509C583.843 41.1818 587.451 42.8303 590.974 44.3964C595.355 46.3746 599.135 48.2291 602.314 49.96C605.493 51.6085 608.113 53.463 610.175 55.5236C612.237 57.5018 613.783 59.7685 614.814 62.3236C615.845 64.8788 616.361 67.9697 616.361 71.5964C616.361 75.8 615.63 79.7564 614.17 83.4655C612.709 87.0921 610.562 90.2655 607.727 92.9855C604.977 95.7055 601.627 97.8073 597.675 99.2909C593.723 100.857 589.298 101.64 584.401 101.64C579.59 101.64 574.393 100.939 568.808 99.5382C563.224 98.137 557.983 96.2 553.086 93.7273C548.275 91.337 544.237 88.5758 540.973 85.4436C537.794 82.2291 536.205 78.8497 536.205 75.3055C536.205 73.657 536.677 71.5552 537.622 69C538.653 66.4449 540.457 63.7661 543.035 60.9636C543.292 63.4364 544.667 66.3624 547.158 69.7418C549.736 73.1212 553.559 76.2533 558.628 79.1382C563.353 81.7758 568.207 83.7127 573.19 84.9491C578.259 86.103 582.984 86.68 587.365 86.68C592.176 86.68 596.085 86.103 599.092 84.9491C602.099 83.7952 604.462 82.4352 606.18 80.8691C607.898 79.2206 609.101 77.5721 609.788 75.9237C610.476 74.2752 610.862 72.9564 610.948 71.9673C610.862 70.3188 610.046 68.7527 608.5 67.2691C607.039 65.703 605.02 64.2194 602.443 62.8182C599.951 61.3346 597.03 59.8509 593.68 58.3673C590.329 56.8836 586.85 55.4 583.242 53.9164C577.829 51.6085 573.147 49.4655 569.195 47.4873C565.329 45.4267 562.107 43.3661 559.53 41.3055C557.038 39.1624 555.191 36.937 553.988 34.6291C552.872 32.3212 552.313 29.6836 552.313 26.7164C552.313 22.1006 553.774 17.7321 556.695 13.6109C559.616 9.4897 563.825 6.35758 569.324 4.21455C572.073 3.06061 574.994 2.23637 578.087 1.74182C581.266 1.24727 584.358 1 587.365 1C593.036 1 598.577 1.74182 603.989 3.22546C609.402 4.70909 614.814 6.60485 620.227 8.91273Z"/>
</mask>
<path d="M89.0222 8.91273C89.2799 10.3139 89.4518 11.303 89.5377 11.88C89.7095 12.3745 89.7954 13.0752 89.7954 13.9818C89.7954 16.7018 89.1511 19.257 87.8624 21.6473C86.6596 23.9552 84.9843 25.6036 82.8365 26.5927C81.1183 24.3673 79.0134 22.4715 76.522 20.9055C74.0305 19.257 71.2813 17.9382 68.2744 16.9491C65.3534 15.8776 62.3035 15.0945 59.1247 14.6C55.946 14.1055 52.8531 13.8582 49.8462 13.8582C46.8393 13.8582 44.0042 14.1055 41.3409 14.6C38.7635 15.0121 36.4439 15.6303 34.382 16.4545C32.406 17.1964 30.8166 18.1442 29.6139 19.2982C28.497 20.4521 27.9386 21.7709 27.9386 23.2546C28.1963 25.0679 29.3561 26.9224 31.418 28.8182C33.4799 30.6315 36.0143 32.4449 39.0213 34.2582C42.0282 35.9891 45.3358 37.72 48.9441 39.4509C52.6384 41.1818 56.2467 42.8303 59.7691 44.3964C64.1506 46.3746 67.9307 48.2291 71.1095 49.96C74.2882 51.6085 76.9086 53.463 78.9705 55.5236C81.0324 57.5018 82.5788 59.7685 83.6097 62.3236C84.6407 64.8788 85.1562 67.9697 85.1562 71.5964C85.1562 75.8 84.4259 79.7564 82.9654 83.4655C81.5049 87.0921 79.3571 90.2655 76.522 92.9855C73.7728 95.7055 70.4222 97.8073 66.4702 99.2909C62.5183 100.857 58.0938 101.64 53.1968 101.64C48.3857 101.64 43.188 100.939 37.6037 99.5382C32.0194 98.137 26.7788 96.2 21.8818 93.7273C17.0707 91.337 13.0328 88.5758 9.76813 85.4436C6.58938 82.2291 5 78.8497 5 75.3055C5 73.657 5.47252 71.5552 6.41755 69C7.4485 66.4449 9.25266 63.7661 11.83 60.9636C12.0878 63.4364 13.4624 66.3624 15.9538 69.7418C18.5312 73.1212 22.3543 76.2533 27.4231 79.1382C32.1483 81.7758 37.0023 83.7127 41.9852 84.9491C47.0541 86.103 51.7792 86.68 56.1608 86.68C60.9718 86.68 64.8809 86.103 67.8878 84.9491C70.8947 83.7952 73.2573 82.4352 74.9755 80.8691C76.6938 79.2206 77.8966 77.5721 78.5839 75.9237C79.2712 74.2752 79.6578 72.9564 79.7437 71.9673C79.6578 70.3188 78.8416 68.7527 77.2952 67.2691C75.8347 65.703 73.8157 64.2194 71.2384 62.8182C68.7469 61.3346 65.8259 59.8509 62.4753 58.3673C59.1247 56.8836 55.6453 55.4 52.037 53.9164C46.6245 51.6085 41.9423 49.4655 37.9903 47.4873C34.1243 45.4267 30.9025 43.3661 28.3252 41.3055C25.8337 39.1624 23.9866 36.937 22.7838 34.6291C21.667 32.3212 21.1086 29.6836 21.1086 26.7164C21.1086 22.1006 22.5691 17.7321 25.4901 13.6109C28.4111 9.4897 32.6208 6.35758 38.1192 4.21455C40.8684 3.06061 43.7894 2.23637 46.8822 1.74182C50.061 1.24727 53.1538 1 56.1608 1C61.831 1 67.3723 1.74182 72.7848 3.22546C78.1973 4.70909 83.6097 6.60485 89.0222 8.91273Z" fill="url(#paint0_linear_100_201)"/>
<path d="M148.707 39.5745C151.542 39.5745 153.733 40.3164 155.28 41.8C156.912 43.2836 157.728 45.3442 157.728 47.9818C157.728 48.6412 157.642 49.3418 157.47 50.0836C157.385 50.743 157.256 51.32 157.084 51.8146C155.967 51.6497 154.721 51.5261 153.347 51.4436C151.972 51.2788 150.34 51.1964 148.45 51.1964C144.755 51.1964 141.018 51.5261 137.238 52.1855C133.458 52.7624 129.85 53.257 126.413 53.6691C124.437 58.0376 122.633 62.2824 121.001 66.4036C119.368 70.4424 117.951 74.1515 116.748 77.5309C115.631 80.9103 114.729 83.8364 114.042 86.3091C113.44 88.7818 113.097 90.6364 113.011 91.8727C119.97 90.4715 126.972 89.2764 134.016 88.2873C141.147 87.2982 148.621 86.5564 156.439 86.0618C157.385 87.463 158.158 88.9879 158.759 90.6364C159.446 92.2849 159.79 94.057 159.79 95.9527C159.79 96.4473 159.79 96.983 159.79 97.56C159.79 98.137 159.704 98.714 159.532 99.2909C157.127 99.2085 154.592 99.1261 151.929 99.0436C149.266 99.0436 145.786 99.0436 141.491 99.0436C138.656 99.0436 135.949 99.0849 133.372 99.1673C130.881 99.3321 128.346 99.5382 125.769 99.7855C123.191 100.033 120.442 100.362 117.521 100.775C114.686 101.187 111.464 101.681 107.856 102.258C103.904 100.775 100.081 97.1479 96.3868 91.3782C97.8473 88.4109 99.8663 83.9188 102.444 77.9018C105.107 71.8024 108.457 63.6836 112.495 53.5455C108.629 52.3915 106.095 50.3309 104.892 47.3636C105.322 46.9515 106.567 46.457 108.629 45.88C110.691 45.2206 113.226 44.5612 116.233 43.9018C117.521 40.6873 118.595 37.8849 119.454 35.4945C120.399 33.1042 121.215 30.8788 121.903 28.8182C122.59 26.6752 123.191 24.6145 123.707 22.6364C124.308 20.5758 124.867 18.3503 125.382 15.96C122.375 15.7952 120.013 15.0121 118.294 13.6109C116.576 12.1273 115.717 10.2315 115.717 7.92364C115.717 7.26424 115.803 6.48121 115.975 5.57454C116.233 4.66788 116.49 3.88485 116.748 3.22546C118.466 3.47273 120.099 3.63758 121.645 3.72C123.277 3.80243 125.382 3.84364 127.96 3.84364C133.372 3.84364 138.441 3.72 143.166 3.47273C147.891 3.14303 152.144 2.81333 155.924 2.48364C159.79 2.15394 163.098 1.86546 165.847 1.61818C168.596 1.28848 170.701 1.12363 172.161 1.12363C174.137 1.12363 175.899 2.11273 177.445 4.09091C178.991 6.06909 180.151 8.87151 180.924 12.4982C178.261 12.2509 176.07 12.0861 174.352 12.0036C172.72 11.9212 171.259 11.88 169.971 11.88C165.245 11.88 160.907 12.1273 156.955 12.6218C153.089 13.0339 149.352 13.4873 145.743 13.9818C145.228 14.7236 144.627 15.6715 143.939 16.8255C143.338 17.9794 142.522 19.5867 141.491 21.6473C140.46 23.7079 139.171 26.3042 137.625 29.4364C136.164 32.5685 134.36 36.4836 132.212 41.1818C135.477 40.6873 138.527 40.3164 141.362 40.0691C144.283 39.7394 146.731 39.5745 148.707 39.5745Z" fill="url(#paint1_linear_100_201)"/>
<path d="M261.644 24.12C261.644 28.0764 260.699 31.8267 258.809 35.3709C257.005 38.8327 254.471 41.9649 251.206 44.7673C247.941 47.4873 244.118 49.7952 239.737 51.6909C235.355 53.5867 230.587 54.8643 225.432 55.5236C226.721 59.2327 228.268 63.0655 230.072 67.0218C231.962 70.8958 233.981 74.6461 236.128 78.2727C238.276 81.8994 240.51 85.2376 242.83 88.2873C245.149 91.337 247.426 93.8509 249.66 95.8291C249.23 96.6533 248.586 97.4776 247.727 98.3018C246.953 99.1261 246.008 99.8679 244.892 100.527C243.861 101.269 242.744 101.846 241.541 102.258C240.424 102.753 239.35 103 238.319 103C236.429 103 234.625 102.135 232.907 100.404C231.189 98.6727 229.427 95.9527 227.623 92.2437C225.905 88.4521 224.058 83.5891 222.082 77.6545C220.192 71.6376 218.087 64.4255 215.767 56.0182C214.822 56.0182 213.877 56.0182 212.932 56.0182C211.987 56.0182 211.257 55.9358 210.741 55.7709C210.14 55.4412 209.496 54.8642 208.808 54.04C206.489 58.8206 204.427 63.3127 202.623 67.5164C200.819 71.72 199.186 75.8 197.726 79.7564C196.351 83.6303 195.105 87.4218 193.989 91.1309C192.958 94.7576 192.055 98.4667 191.282 102.258C188.361 101.599 185.827 100.404 183.679 98.6727C181.531 96.9418 179.512 94.5103 177.622 91.3782C177.966 90.6364 178.31 89.9358 178.653 89.2764C179.083 88.5346 179.598 87.5455 180.2 86.3091C180.801 84.9903 181.531 83.3418 182.39 81.3636C183.335 79.3855 184.538 76.7479 185.999 73.4509C187.545 70.1539 189.349 66.1152 191.411 61.3346C193.559 56.5539 196.136 50.743 199.143 43.9018C200.518 40.8521 201.678 38.1733 202.623 35.8655C203.654 33.5576 204.556 31.3733 205.329 29.3127C206.102 27.1697 206.789 25.0679 207.391 23.0073C208.078 20.8642 208.765 18.4327 209.453 15.7127C205.501 17.0315 201.807 18.5152 198.37 20.1636C195.019 21.7297 192.227 23.4194 189.994 25.2327C189.22 24.7382 188.404 23.9964 187.545 23.0073C186.772 22.0182 186.042 20.9467 185.354 19.7927C184.667 18.5564 184.066 17.32 183.55 16.0836C183.035 14.8473 182.734 13.7345 182.648 12.7455C185.225 11.097 188.361 9.57212 192.055 8.17092C195.836 6.7697 199.831 5.57455 204.04 4.58546C208.25 3.51394 212.546 2.6897 216.927 2.11273C221.309 1.53576 225.389 1.24727 229.17 1.24727C239.479 1.24727 247.469 3.30788 253.139 7.42909C258.809 11.4679 261.644 17.0315 261.644 24.12ZM230.201 13.7345C229.599 14.4764 228.654 15.96 227.365 18.1855C226.077 20.4109 224.573 23.0897 222.855 26.2218C221.223 29.2715 219.462 32.6097 217.571 36.2364C215.767 39.863 214.006 43.4485 212.288 46.9927C218.731 46.9927 224.659 46.4158 230.072 45.2618C235.484 44.1079 240.166 42.5006 244.118 40.44C248.07 38.297 251.12 35.8242 253.268 33.0218C255.502 30.137 256.619 26.9636 256.619 23.5018C256.619 19.3806 255.072 16.2485 251.979 14.1055C248.886 11.88 244.118 10.7673 237.675 10.7673C236.214 10.7673 234.754 10.8497 233.293 11.0146C231.833 11.097 230.286 11.2206 228.654 11.3855L230.201 13.7345Z" fill="url(#paint2_linear_100_201)"/>
<path d="M301.326 100.156C299.35 101.145 297.245 101.64 295.011 101.64C292.262 101.31 289.599 100.651 287.021 99.6618C284.53 98.6727 282.683 97.4776 281.48 96.0764C280.793 92.0376 280.234 88.3285 279.805 84.9491C279.375 81.5697 279.032 78.3964 278.774 75.4291C278.516 72.3794 278.344 69.4946 278.258 66.7746C278.172 63.9721 278.13 61.1697 278.13 58.3673C278.13 54.6582 278.172 50.743 278.258 46.6218C278.344 42.5006 278.43 38.1321 278.516 33.5164C278.688 28.8182 278.817 23.8315 278.903 18.5564C278.989 13.1988 279.032 7.38788 279.032 1.12363C280.148 1.12363 281.824 1.45333 284.057 2.11273C286.291 2.6897 288.482 3.3903 290.63 4.21455C292.863 5.03879 294.839 5.90424 296.558 6.81091C298.276 7.63515 299.221 8.33576 299.393 8.91273C298.534 11.2206 297.76 14.2291 297.073 17.9382C296.472 21.6473 295.956 25.7685 295.527 30.3018C295.183 34.8352 294.925 39.6158 294.754 44.6436C294.582 49.6715 294.496 54.6582 294.496 59.6036C294.496 63.3127 294.539 66.6509 294.625 69.6182C294.711 72.503 294.796 75.1406 294.882 77.5309C295.054 79.8388 295.269 82.023 295.527 84.0837C295.784 86.0618 296.085 88.04 296.429 90.0182C298.834 83.0121 301.455 76.0061 304.29 69C307.211 61.9939 310.175 55.2764 313.182 48.8473C316.275 42.3358 319.324 36.2776 322.331 30.6727C325.338 25.0679 328.173 20.2048 330.837 16.0836C333.586 11.88 336.034 8.58303 338.182 6.19273C340.33 3.72 342.091 2.40121 343.466 2.23636C344.411 2.40121 345.399 2.77213 346.43 3.34909C347.547 3.84364 348.578 4.46181 349.523 5.20363C350.468 5.94545 351.327 6.7697 352.1 7.67637C352.873 8.58303 353.475 9.4897 353.904 10.3964C350.725 11.4679 347.289 13.9818 343.595 17.9382C339.986 21.8946 336.335 26.6752 332.641 32.28C328.947 37.8024 325.338 43.8606 321.816 50.4545C318.379 56.9661 315.244 63.3539 312.409 69.6182C309.659 75.8824 307.297 81.7346 305.321 87.1746C303.345 92.6146 302.013 96.9418 301.326 100.156Z" fill="url(#paint3_linear_100_201)"/>
<path d="M343.748 85.1964C343.748 82.2291 344.22 78.3964 345.165 73.6982C346.196 68.9176 347.485 63.8073 349.031 58.3673C350.664 52.8449 352.511 47.24 354.573 41.5527C356.635 35.783 358.739 30.3842 360.887 25.3564C363.035 20.3285 365.14 15.9188 367.202 12.1273C369.264 8.33576 371.111 5.61576 372.743 3.96727C373.602 4.04969 374.719 4.37939 376.094 4.95637C377.554 5.45091 379.015 6.06909 380.475 6.81091C381.936 7.55272 383.267 8.37697 384.47 9.28364C385.673 10.1079 386.446 10.8909 386.79 11.6327C384.298 13.7758 381.807 17.0315 379.315 21.4C376.91 25.6861 374.547 30.5903 372.228 36.1127C369.994 41.6352 367.889 47.4873 365.913 53.6691C363.937 59.7685 362.219 65.703 360.758 71.4727C359.298 77.2424 358.138 82.6 357.279 87.5455C356.506 92.4909 356.119 96.4885 356.119 99.5382C356.119 100.939 356.248 101.805 356.506 102.135C354.616 102.052 353.241 101.722 352.382 101.145C351.523 100.651 350.835 100.074 350.32 99.4146C349.89 98.8376 349.461 98.2194 349.031 97.56C348.688 96.983 348.129 96.5297 347.356 96.2C346.755 95.9527 346.239 95.3758 345.81 94.4691C345.38 93.5624 344.993 92.5733 344.65 91.5018C344.392 90.3479 344.177 89.1939 344.005 88.04C343.834 86.8861 343.748 85.9382 343.748 85.1964Z" fill="url(#paint4_linear_100_201)"/>
<path d="M385.814 68.0109C385.814 62.2412 386.501 56.5952 387.876 51.0727C389.337 45.4679 391.355 40.1927 393.933 35.2473C396.51 30.2194 399.56 25.6449 403.082 21.5236C406.691 17.32 410.6 13.6933 414.81 10.6436C419.105 7.59394 423.658 5.24485 428.47 3.59637C433.281 1.86546 438.221 1 443.289 1C449.217 1 453.814 2.19515 457.078 4.58546C460.429 6.97576 462.104 10.3139 462.104 14.6C462.104 16.2485 461.846 17.9382 461.331 19.6691C460.901 21.4 460.214 23.1309 459.269 24.8618C458.41 26.5103 457.379 28.1176 456.176 29.6836C454.974 31.2497 453.642 32.6097 452.181 33.7636C449.948 33.4339 448.015 32.4861 446.382 30.92C444.75 29.2715 443.719 27.3758 443.289 25.2327C446.296 22.8424 448.659 20.3697 450.377 17.8145C452.181 15.177 453.083 12.7867 453.083 10.6436C453.083 7.01697 450.721 5.20363 445.996 5.20363C444.02 5.20363 441.958 5.61576 439.81 6.44C437.748 7.18182 435.643 8.25333 433.495 9.65454C431.348 11.0558 429.243 12.7455 427.181 14.7236C425.205 16.7018 423.358 18.8861 421.64 21.2764C409.698 37.7612 403.727 54.617 403.727 71.8436C403.727 77.943 404.715 82.8473 406.691 86.5564C408.667 90.2655 411.287 92.4497 414.552 93.1091C418.246 92.2849 422.928 90.0182 428.598 86.3091C434.269 82.6 440.454 77.7782 447.155 71.8436C448.015 72.6679 448.53 73.5333 448.702 74.44C446.21 77.5721 443.633 80.5806 440.97 83.4655C438.307 86.3503 435.643 88.9879 432.98 91.3782C430.403 93.7685 427.825 95.8703 425.248 97.6836C422.756 99.497 420.437 100.898 418.289 101.887C407.636 101.722 399.56 98.7964 394.062 93.1091C388.563 87.4218 385.814 79.0558 385.814 68.0109Z" fill="url(#paint5_linear_100_201)"/>
<path d="M510.898 39.5745C513.733 39.5745 515.924 40.3164 517.47 41.8C519.103 43.2836 519.919 45.3442 519.919 47.9818C519.919 48.6412 519.833 49.3418 519.661 50.0836C519.575 50.743 519.446 51.32 519.274 51.8146C518.158 51.6497 516.912 51.5261 515.537 51.4436C514.163 51.2788 512.53 51.1964 510.64 51.1964C506.946 51.1964 503.209 51.5261 499.429 52.1855C495.649 52.7624 492.04 53.257 488.604 53.6691C486.628 58.0376 484.824 62.2824 483.191 66.4036C481.559 70.4424 480.141 74.1515 478.939 77.5309C477.822 80.9103 476.92 83.8364 476.232 86.3091C475.631 88.7818 475.287 90.6364 475.202 91.8727C482.16 90.4715 489.162 89.2764 496.207 88.2873C503.338 87.2982 510.812 86.5564 518.63 86.0618C519.575 87.463 520.348 88.9879 520.95 90.6364C521.637 92.2849 521.981 94.057 521.981 95.9527C521.981 96.4473 521.981 96.983 521.981 97.56C521.981 98.137 521.895 98.714 521.723 99.2909C519.317 99.2085 516.783 99.1261 514.12 99.0436C511.456 99.0436 507.977 99.0436 503.681 99.0436C500.846 99.0436 498.14 99.0849 495.563 99.1673C493.071 99.3321 490.537 99.5382 487.959 99.7855C485.382 100.033 482.633 100.362 479.712 100.775C476.877 101.187 473.655 101.681 470.047 102.258C466.095 100.775 462.272 97.1479 458.577 91.3782C460.038 88.4109 462.057 83.9188 464.634 77.9018C467.298 71.8024 470.648 63.6836 474.686 53.5455C470.82 52.3915 468.286 50.3309 467.083 47.3636C467.512 46.9515 468.758 46.457 470.82 45.88C472.882 45.2206 475.416 44.5612 478.423 43.9018C479.712 40.6873 480.786 37.8849 481.645 35.4945C482.59 33.1042 483.406 30.8788 484.093 28.8182C484.781 26.6752 485.382 24.6145 485.898 22.6364C486.499 20.5758 487.057 18.3503 487.573 15.96C484.566 15.7952 482.203 15.0121 480.485 13.6109C478.767 12.1273 477.908 10.2315 477.908 7.92364C477.908 7.26424 477.994 6.48121 478.165 5.57454C478.423 4.66788 478.681 3.88485 478.939 3.22546C480.657 3.47273 482.289 3.63758 483.836 3.72C485.468 3.80243 487.573 3.84364 490.15 3.84364C495.563 3.84364 500.632 3.72 505.357 3.47273C510.082 3.14303 514.335 2.81333 518.115 2.48364C521.981 2.15394 525.288 1.86546 528.038 1.61818C530.787 1.28848 532.892 1.12363 534.352 1.12363C536.328 1.12363 538.089 2.11273 539.636 4.09091C541.182 6.06909 542.342 8.87151 543.115 12.4982C540.452 12.2509 538.261 12.0861 536.543 12.0036C534.911 11.9212 533.45 11.88 532.161 11.88C527.436 11.88 523.098 12.1273 519.146 12.6218C515.28 13.0339 511.542 13.4873 507.934 13.9818C507.419 14.7236 506.817 15.6715 506.13 16.8255C505.529 17.9794 504.712 19.5867 503.681 21.6473C502.65 23.7079 501.362 26.3042 499.815 29.4364C498.355 32.5685 496.551 36.4836 494.403 41.1818C497.668 40.6873 500.717 40.3164 503.553 40.0691C506.474 39.7394 508.922 39.5745 510.898 39.5745Z" fill="url(#paint6_linear_100_201)"/>
<path d="M620.227 8.91273C620.484 10.3139 620.656 11.303 620.742 11.88C620.914 12.3745 621 13.0752 621 13.9818C621 16.7018 620.356 19.257 619.067 21.6473C617.864 23.9552 616.189 25.6036 614.041 26.5927C612.323 24.3673 610.218 22.4715 607.727 20.9055C605.235 19.257 602.486 17.9382 599.479 16.9491C596.558 15.8776 593.508 15.0945 590.329 14.6C587.151 14.1055 584.058 13.8582 581.051 13.8582C578.044 13.8582 575.209 14.1055 572.545 14.6C569.968 15.0121 567.648 15.6303 565.587 16.4545C563.611 17.1964 562.021 18.1442 560.818 19.2982C559.702 20.4521 559.143 21.7709 559.143 23.2546C559.401 25.0679 560.561 26.9224 562.623 28.8182C564.685 30.6315 567.219 32.4449 570.226 34.2582C573.233 35.9891 576.54 37.72 580.149 39.4509C583.843 41.1818 587.451 42.8303 590.974 44.3964C595.355 46.3746 599.135 48.2291 602.314 49.96C605.493 51.6085 608.113 53.463 610.175 55.5236C612.237 57.5018 613.783 59.7685 614.814 62.3236C615.845 64.8788 616.361 67.9697 616.361 71.5964C616.361 75.8 615.63 79.7564 614.17 83.4655C612.709 87.0921 610.562 90.2655 607.727 92.9855C604.977 95.7055 601.627 97.8073 597.675 99.2909C593.723 100.857 589.298 101.64 584.401 101.64C579.59 101.64 574.393 100.939 568.808 99.5382C563.224 98.137 557.983 96.2 553.086 93.7273C548.275 91.337 544.237 88.5758 540.973 85.4436C537.794 82.2291 536.205 78.8497 536.205 75.3055C536.205 73.657 536.677 71.5552 537.622 69C538.653 66.4449 540.457 63.7661 543.035 60.9636C543.292 63.4364 544.667 66.3624 547.158 69.7418C549.736 73.1212 553.559 76.2533 558.628 79.1382C563.353 81.7758 568.207 83.7127 573.19 84.9491C578.259 86.103 582.984 86.68 587.365 86.68C592.176 86.68 596.085 86.103 599.092 84.9491C602.099 83.7952 604.462 82.4352 606.18 80.8691C607.898 79.2206 609.101 77.5721 609.788 75.9237C610.476 74.2752 610.862 72.9564 610.948 71.9673C610.862 70.3188 610.046 68.7527 608.5 67.2691C607.039 65.703 605.02 64.2194 602.443 62.8182C599.951 61.3346 597.03 59.8509 593.68 58.3673C590.329 56.8836 586.85 55.4 583.242 53.9164C577.829 51.6085 573.147 49.4655 569.195 47.4873C565.329 45.4267 562.107 43.3661 559.53 41.3055C557.038 39.1624 555.191 36.937 553.988 34.6291C552.872 32.3212 552.313 29.6836 552.313 26.7164C552.313 22.1006 553.774 17.7321 556.695 13.6109C559.616 9.4897 563.825 6.35758 569.324 4.21455C572.073 3.06061 574.994 2.23637 578.087 1.74182C581.266 1.24727 584.358 1 587.365 1C593.036 1 598.577 1.74182 603.989 3.22546C609.402 4.70909 614.814 6.60485 620.227 8.91273Z" fill="url(#paint7_linear_100_201)"/>
<path d="M89.0222 8.91273C89.2799 10.3139 89.4518 11.303 89.5377 11.88C89.7095 12.3745 89.7954 13.0752 89.7954 13.9818C89.7954 16.7018 89.1511 19.257 87.8624 21.6473C86.6596 23.9552 84.9843 25.6036 82.8365 26.5927C81.1183 24.3673 79.0134 22.4715 76.522 20.9055C74.0305 19.257 71.2813 17.9382 68.2744 16.9491C65.3534 15.8776 62.3035 15.0945 59.1247 14.6C55.946 14.1055 52.8531 13.8582 49.8462 13.8582C46.8393 13.8582 44.0042 14.1055 41.3409 14.6C38.7635 15.0121 36.4439 15.6303 34.382 16.4545C32.406 17.1964 30.8166 18.1442 29.6139 19.2982C28.497 20.4521 27.9386 21.7709 27.9386 23.2546C28.1963 25.0679 29.3561 26.9224 31.418 28.8182C33.4799 30.6315 36.0143 32.4449 39.0213 34.2582C42.0282 35.9891 45.3358 37.72 48.9441 39.4509C52.6384 41.1818 56.2467 42.8303 59.7691 44.3964C64.1506 46.3746 67.9307 48.2291 71.1095 49.96C74.2882 51.6085 76.9086 53.463 78.9705 55.5236C81.0324 57.5018 82.5788 59.7685 83.6097 62.3236C84.6407 64.8788 85.1562 67.9697 85.1562 71.5964C85.1562 75.8 84.4259 79.7564 82.9654 83.4655C81.5049 87.0921 79.3571 90.2655 76.522 92.9855C73.7728 95.7055 70.4222 97.8073 66.4702 99.2909C62.5183 100.857 58.0938 101.64 53.1968 101.64C48.3857 101.64 43.188 100.939 37.6037 99.5382C32.0194 98.137 26.7788 96.2 21.8818 93.7273C17.0707 91.337 13.0328 88.5758 9.76813 85.4436C6.58938 82.2291 5 78.8497 5 75.3055C5 73.657 5.47252 71.5552 6.41755 69C7.4485 66.4449 9.25266 63.7661 11.83 60.9636C12.0878 63.4364 13.4624 66.3624 15.9538 69.7418C18.5312 73.1212 22.3543 76.2533 27.4231 79.1382C32.1483 81.7758 37.0023 83.7127 41.9852 84.9491C47.0541 86.103 51.7792 86.68 56.1608 86.68C60.9718 86.68 64.8809 86.103 67.8878 84.9491C70.8947 83.7952 73.2573 82.4352 74.9755 80.8691C76.6938 79.2206 77.8966 77.5721 78.5839 75.9237C79.2712 74.2752 79.6578 72.9564 79.7437 71.9673C79.6578 70.3188 78.8416 68.7527 77.2952 67.2691C75.8347 65.703 73.8157 64.2194 71.2384 62.8182C68.7469 61.3346 65.8259 59.8509 62.4753 58.3673C59.1247 56.8836 55.6453 55.4 52.037 53.9164C46.6245 51.6085 41.9423 49.4655 37.9903 47.4873C34.1243 45.4267 30.9025 43.3661 28.3252 41.3055C25.8337 39.1624 23.9866 36.937 22.7838 34.6291C21.667 32.3212 21.1086 29.6836 21.1086 26.7164C21.1086 22.1006 22.5691 17.7321 25.4901 13.6109C28.4111 9.4897 32.6208 6.35758 38.1192 4.21455C40.8684 3.06061 43.7894 2.23637 46.8822 1.74182C50.061 1.24727 53.1538 1 56.1608 1C61.831 1 67.3723 1.74182 72.7848 3.22546C78.1973 4.70909 83.6097 6.60485 89.0222 8.91273Z" stroke="black" stroke-width="2" mask="url(#path-1-outside-1_100_201)"/>
<path d="M148.707 39.5745C151.542 39.5745 153.733 40.3164 155.28 41.8C156.912 43.2836 157.728 45.3442 157.728 47.9818C157.728 48.6412 157.642 49.3418 157.47 50.0836C157.385 50.743 157.256 51.32 157.084 51.8146C155.967 51.6497 154.721 51.5261 153.347 51.4436C151.972 51.2788 150.34 51.1964 148.45 51.1964C144.755 51.1964 141.018 51.5261 137.238 52.1855C133.458 52.7624 129.85 53.257 126.413 53.6691C124.437 58.0376 122.633 62.2824 121.001 66.4036C119.368 70.4424 117.951 74.1515 116.748 77.5309C115.631 80.9103 114.729 83.8364 114.042 86.3091C113.44 88.7818 113.097 90.6364 113.011 91.8727C119.97 90.4715 126.972 89.2764 134.016 88.2873C141.147 87.2982 148.621 86.5564 156.439 86.0618C157.385 87.463 158.158 88.9879 158.759 90.6364C159.446 92.2849 159.79 94.057 159.79 95.9527C159.79 96.4473 159.79 96.983 159.79 97.56C159.79 98.137 159.704 98.714 159.532 99.2909C157.127 99.2085 154.592 99.1261 151.929 99.0436C149.266 99.0436 145.786 99.0436 141.491 99.0436C138.656 99.0436 135.949 99.0849 133.372 99.1673C130.881 99.3321 128.346 99.5382 125.769 99.7855C123.191 100.033 120.442 100.362 117.521 100.775C114.686 101.187 111.464 101.681 107.856 102.258C103.904 100.775 100.081 97.1479 96.3868 91.3782C97.8473 88.4109 99.8663 83.9188 102.444 77.9018C105.107 71.8024 108.457 63.6836 112.495 53.5455C108.629 52.3915 106.095 50.3309 104.892 47.3636C105.322 46.9515 106.567 46.457 108.629 45.88C110.691 45.2206 113.226 44.5612 116.233 43.9018C117.521 40.6873 118.595 37.8849 119.454 35.4945C120.399 33.1042 121.215 30.8788 121.903 28.8182C122.59 26.6752 123.191 24.6145 123.707 22.6364C124.308 20.5758 124.867 18.3503 125.382 15.96C122.375 15.7952 120.013 15.0121 118.294 13.6109C116.576 12.1273 115.717 10.2315 115.717 7.92364C115.717 7.26424 115.803 6.48121 115.975 5.57454C116.233 4.66788 116.49 3.88485 116.748 3.22546C118.466 3.47273 120.099 3.63758 121.645 3.72C123.277 3.80243 125.382 3.84364 127.96 3.84364C133.372 3.84364 138.441 3.72 143.166 3.47273C147.891 3.14303 152.144 2.81333 155.924 2.48364C159.79 2.15394 163.098 1.86546 165.847 1.61818C168.596 1.28848 170.701 1.12363 172.161 1.12363C174.137 1.12363 175.899 2.11273 177.445 4.09091C178.991 6.06909 180.151 8.87151 180.924 12.4982C178.261 12.2509 176.07 12.0861 174.352 12.0036C172.72 11.9212 171.259 11.88 169.971 11.88C165.245 11.88 160.907 12.1273 156.955 12.6218C153.089 13.0339 149.352 13.4873 145.743 13.9818C145.228 14.7236 144.627 15.6715 143.939 16.8255C143.338 17.9794 142.522 19.5867 141.491 21.6473C140.46 23.7079 139.171 26.3042 137.625 29.4364C136.164 32.5685 134.36 36.4836 132.212 41.1818C135.477 40.6873 138.527 40.3164 141.362 40.0691C144.283 39.7394 146.731 39.5745 148.707 39.5745Z" stroke="black" stroke-width="2" mask="url(#path-1-outside-1_100_201)"/>
<path d="M261.644 24.12C261.644 28.0764 260.699 31.8267 258.809 35.3709C257.005 38.8327 254.471 41.9649 251.206 44.7673C247.941 47.4873 244.118 49.7952 239.737 51.6909C235.355 53.5867 230.587 54.8643 225.432 55.5236C226.721 59.2327 228.268 63.0655 230.072 67.0218C231.962 70.8958 233.981 74.6461 236.128 78.2727C238.276 81.8994 240.51 85.2376 242.83 88.2873C245.149 91.337 247.426 93.8509 249.66 95.8291C249.23 96.6533 248.586 97.4776 247.727 98.3018C246.953 99.1261 246.008 99.8679 244.892 100.527C243.861 101.269 242.744 101.846 241.541 102.258C240.424 102.753 239.35 103 238.319 103C236.429 103 234.625 102.135 232.907 100.404C231.189 98.6727 229.427 95.9527 227.623 92.2437C225.905 88.4521 224.058 83.5891 222.082 77.6545C220.192 71.6376 218.087 64.4255 215.767 56.0182C214.822 56.0182 213.877 56.0182 212.932 56.0182C211.987 56.0182 211.257 55.9358 210.741 55.7709C210.14 55.4412 209.496 54.8642 208.808 54.04C206.489 58.8206 204.427 63.3127 202.623 67.5164C200.819 71.72 199.186 75.8 197.726 79.7564C196.351 83.6303 195.105 87.4218 193.989 91.1309C192.958 94.7576 192.055 98.4667 191.282 102.258C188.361 101.599 185.827 100.404 183.679 98.6727C181.531 96.9418 179.512 94.5103 177.622 91.3782C177.966 90.6364 178.31 89.9358 178.653 89.2764C179.083 88.5346 179.598 87.5455 180.2 86.3091C180.801 84.9903 181.531 83.3418 182.39 81.3636C183.335 79.3855 184.538 76.7479 185.999 73.4509C187.545 70.1539 189.349 66.1152 191.411 61.3346C193.559 56.5539 196.136 50.743 199.143 43.9018C200.518 40.8521 201.678 38.1733 202.623 35.8655C203.654 33.5576 204.556 31.3733 205.329 29.3127C206.102 27.1697 206.789 25.0679 207.391 23.0073C208.078 20.8642 208.765 18.4327 209.453 15.7127C205.501 17.0315 201.807 18.5152 198.37 20.1636C195.019 21.7297 192.227 23.4194 189.994 25.2327C189.22 24.7382 188.404 23.9964 187.545 23.0073C186.772 22.0182 186.042 20.9467 185.354 19.7927C184.667 18.5564 184.066 17.32 183.55 16.0836C183.035 14.8473 182.734 13.7345 182.648 12.7455C185.225 11.097 188.361 9.57212 192.055 8.17092C195.836 6.7697 199.831 5.57455 204.04 4.58546C208.25 3.51394 212.546 2.6897 216.927 2.11273C221.309 1.53576 225.389 1.24727 229.17 1.24727C239.479 1.24727 247.469 3.30788 253.139 7.42909C258.809 11.4679 261.644 17.0315 261.644 24.12ZM230.201 13.7345C229.599 14.4764 228.654 15.96 227.365 18.1855C226.077 20.4109 224.573 23.0897 222.855 26.2218C221.223 29.2715 219.462 32.6097 217.571 36.2364C215.767 39.863 214.006 43.4485 212.288 46.9927C218.731 46.9927 224.659 46.4158 230.072 45.2618C235.484 44.1079 240.166 42.5006 244.118 40.44C248.07 38.297 251.12 35.8242 253.268 33.0218C255.502 30.137 256.619 26.9636 256.619 23.5018C256.619 19.3806 255.072 16.2485 251.979 14.1055C248.886 11.88 244.118 10.7673 237.675 10.7673C236.214 10.7673 234.754 10.8497 233.293 11.0146C231.833 11.097 230.286 11.2206 228.654 11.3855L230.201 13.7345Z" stroke="black" stroke-width="2" mask="url(#path-1-outside-1_100_201)"/>
<path d="M301.326 100.156C299.35 101.145 297.245 101.64 295.011 101.64C292.262 101.31 289.599 100.651 287.021 99.6618C284.53 98.6727 282.683 97.4776 281.48 96.0764C280.793 92.0376 280.234 88.3285 279.805 84.9491C279.375 81.5697 279.032 78.3964 278.774 75.4291C278.516 72.3794 278.344 69.4946 278.258 66.7746C278.172 63.9721 278.13 61.1697 278.13 58.3673C278.13 54.6582 278.172 50.743 278.258 46.6218C278.344 42.5006 278.43 38.1321 278.516 33.5164C278.688 28.8182 278.817 23.8315 278.903 18.5564C278.989 13.1988 279.032 7.38788 279.032 1.12363C280.148 1.12363 281.824 1.45333 284.057 2.11273C286.291 2.6897 288.482 3.3903 290.63 4.21455C292.863 5.03879 294.839 5.90424 296.558 6.81091C298.276 7.63515 299.221 8.33576 299.393 8.91273C298.534 11.2206 297.76 14.2291 297.073 17.9382C296.472 21.6473 295.956 25.7685 295.527 30.3018C295.183 34.8352 294.925 39.6158 294.754 44.6436C294.582 49.6715 294.496 54.6582 294.496 59.6036C294.496 63.3127 294.539 66.6509 294.625 69.6182C294.711 72.503 294.796 75.1406 294.882 77.5309C295.054 79.8388 295.269 82.023 295.527 84.0837C295.784 86.0618 296.085 88.04 296.429 90.0182C298.834 83.0121 301.455 76.0061 304.29 69C307.211 61.9939 310.175 55.2764 313.182 48.8473C316.275 42.3358 319.324 36.2776 322.331 30.6727C325.338 25.0679 328.173 20.2048 330.837 16.0836C333.586 11.88 336.034 8.58303 338.182 6.19273C340.33 3.72 342.091 2.40121 343.466 2.23636C344.411 2.40121 345.399 2.77213 346.43 3.34909C347.547 3.84364 348.578 4.46181 349.523 5.20363C350.468 5.94545 351.327 6.7697 352.1 7.67637C352.873 8.58303 353.475 9.4897 353.904 10.3964C350.725 11.4679 347.289 13.9818 343.595 17.9382C339.986 21.8946 336.335 26.6752 332.641 32.28C328.947 37.8024 325.338 43.8606 321.816 50.4545C318.379 56.9661 315.244 63.3539 312.409 69.6182C309.659 75.8824 307.297 81.7346 305.321 87.1746C303.345 92.6146 302.013 96.9418 301.326 100.156Z" stroke="black" stroke-width="2" mask="url(#path-1-outside-1_100_201)"/>
<path d="M343.748 85.1964C343.748 82.2291 344.22 78.3964 345.165 73.6982C346.196 68.9176 347.485 63.8073 349.031 58.3673C350.664 52.8449 352.511 47.24 354.573 41.5527C356.635 35.783 358.739 30.3842 360.887 25.3564C363.035 20.3285 365.14 15.9188 367.202 12.1273C369.264 8.33576 371.111 5.61576 372.743 3.96727C373.602 4.04969 374.719 4.37939 376.094 4.95637C377.554 5.45091 379.015 6.06909 380.475 6.81091C381.936 7.55272 383.267 8.37697 384.47 9.28364C385.673 10.1079 386.446 10.8909 386.79 11.6327C384.298 13.7758 381.807 17.0315 379.315 21.4C376.91 25.6861 374.547 30.5903 372.228 36.1127C369.994 41.6352 367.889 47.4873 365.913 53.6691C363.937 59.7685 362.219 65.703 360.758 71.4727C359.298 77.2424 358.138 82.6 357.279 87.5455C356.506 92.4909 356.119 96.4885 356.119 99.5382C356.119 100.939 356.248 101.805 356.506 102.135C354.616 102.052 353.241 101.722 352.382 101.145C351.523 100.651 350.835 100.074 350.32 99.4146C349.89 98.8376 349.461 98.2194 349.031 97.56C348.688 96.983 348.129 96.5297 347.356 96.2C346.755 95.9527 346.239 95.3758 345.81 94.4691C345.38 93.5624 344.993 92.5733 344.65 91.5018C344.392 90.3479 344.177 89.1939 344.005 88.04C343.834 86.8861 343.748 85.9382 343.748 85.1964Z" stroke="black" stroke-width="2" mask="url(#path-1-outside-1_100_201)"/>
<path d="M385.814 68.0109C385.814 62.2412 386.501 56.5952 387.876 51.0727C389.337 45.4679 391.355 40.1927 393.933 35.2473C396.51 30.2194 399.56 25.6449 403.082 21.5236C406.691 17.32 410.6 13.6933 414.81 10.6436C419.105 7.59394 423.658 5.24485 428.47 3.59637C433.281 1.86546 438.221 1 443.289 1C449.217 1 453.814 2.19515 457.078 4.58546C460.429 6.97576 462.104 10.3139 462.104 14.6C462.104 16.2485 461.846 17.9382 461.331 19.6691C460.901 21.4 460.214 23.1309 459.269 24.8618C458.41 26.5103 457.379 28.1176 456.176 29.6836C454.974 31.2497 453.642 32.6097 452.181 33.7636C449.948 33.4339 448.015 32.4861 446.382 30.92C444.75 29.2715 443.719 27.3758 443.289 25.2327C446.296 22.8424 448.659 20.3697 450.377 17.8145C452.181 15.177 453.083 12.7867 453.083 10.6436C453.083 7.01697 450.721 5.20363 445.996 5.20363C444.02 5.20363 441.958 5.61576 439.81 6.44C437.748 7.18182 435.643 8.25333 433.495 9.65454C431.348 11.0558 429.243 12.7455 427.181 14.7236C425.205 16.7018 423.358 18.8861 421.64 21.2764C409.698 37.7612 403.727 54.617 403.727 71.8436C403.727 77.943 404.715 82.8473 406.691 86.5564C408.667 90.2655 411.287 92.4497 414.552 93.1091C418.246 92.2849 422.928 90.0182 428.598 86.3091C434.269 82.6 440.454 77.7782 447.155 71.8436C448.015 72.6679 448.53 73.5333 448.702 74.44C446.21 77.5721 443.633 80.5806 440.97 83.4655C438.307 86.3503 435.643 88.9879 432.98 91.3782C430.403 93.7685 427.825 95.8703 425.248 97.6836C422.756 99.497 420.437 100.898 418.289 101.887C407.636 101.722 399.56 98.7964 394.062 93.1091C388.563 87.4218 385.814 79.0558 385.814 68.0109Z" stroke="black" stroke-width="2" mask="url(#path-1-outside-1_100_201)"/>
<path d="M510.898 39.5745C513.733 39.5745 515.924 40.3164 517.47 41.8C519.103 43.2836 519.919 45.3442 519.919 47.9818C519.919 48.6412 519.833 49.3418 519.661 50.0836C519.575 50.743 519.446 51.32 519.274 51.8146C518.158 51.6497 516.912 51.5261 515.537 51.4436C514.163 51.2788 512.53 51.1964 510.64 51.1964C506.946 51.1964 503.209 51.5261 499.429 52.1855C495.649 52.7624 492.04 53.257 488.604 53.6691C486.628 58.0376 484.824 62.2824 483.191 66.4036C481.559 70.4424 480.141 74.1515 478.939 77.5309C477.822 80.9103 476.92 83.8364 476.232 86.3091C475.631 88.7818 475.287 90.6364 475.202 91.8727C482.16 90.4715 489.162 89.2764 496.207 88.2873C503.338 87.2982 510.812 86.5564 518.63 86.0618C519.575 87.463 520.348 88.9879 520.95 90.6364C521.637 92.2849 521.981 94.057 521.981 95.9527C521.981 96.4473 521.981 96.983 521.981 97.56C521.981 98.137 521.895 98.714 521.723 99.2909C519.317 99.2085 516.783 99.1261 514.12 99.0436C511.456 99.0436 507.977 99.0436 503.681 99.0436C500.846 99.0436 498.14 99.0849 495.563 99.1673C493.071 99.3321 490.537 99.5382 487.959 99.7855C485.382 100.033 482.633 100.362 479.712 100.775C476.877 101.187 473.655 101.681 470.047 102.258C466.095 100.775 462.272 97.1479 458.577 91.3782C460.038 88.4109 462.057 83.9188 464.634 77.9018C467.298 71.8024 470.648 63.6836 474.686 53.5455C470.82 52.3915 468.286 50.3309 467.083 47.3636C467.512 46.9515 468.758 46.457 470.82 45.88C472.882 45.2206 475.416 44.5612 478.423 43.9018C479.712 40.6873 480.786 37.8849 481.645 35.4945C482.59 33.1042 483.406 30.8788 484.093 28.8182C484.781 26.6752 485.382 24.6145 485.898 22.6364C486.499 20.5758 487.057 18.3503 487.573 15.96C484.566 15.7952 482.203 15.0121 480.485 13.6109C478.767 12.1273 477.908 10.2315 477.908 7.92364C477.908 7.26424 477.994 6.48121 478.165 5.57454C478.423 4.66788 478.681 3.88485 478.939 3.22546C480.657 3.47273 482.289 3.63758 483.836 3.72C485.468 3.80243 487.573 3.84364 490.15 3.84364C495.563 3.84364 500.632 3.72 505.357 3.47273C510.082 3.14303 514.335 2.81333 518.115 2.48364C521.981 2.15394 525.288 1.86546 528.038 1.61818C530.787 1.28848 532.892 1.12363 534.352 1.12363C536.328 1.12363 538.089 2.11273 539.636 4.09091C541.182 6.06909 542.342 8.87151 543.115 12.4982C540.452 12.2509 538.261 12.0861 536.543 12.0036C534.911 11.9212 533.45 11.88 532.161 11.88C527.436 11.88 523.098 12.1273 519.146 12.6218C515.28 13.0339 511.542 13.4873 507.934 13.9818C507.419 14.7236 506.817 15.6715 506.13 16.8255C505.529 17.9794 504.712 19.5867 503.681 21.6473C502.65 23.7079 501.362 26.3042 499.815 29.4364C498.355 32.5685 496.551 36.4836 494.403 41.1818C497.668 40.6873 500.717 40.3164 503.553 40.0691C506.474 39.7394 508.922 39.5745 510.898 39.5745Z" stroke="black" stroke-width="2" mask="url(#path-1-outside-1_100_201)"/>
<path d="M620.227 8.91273C620.484 10.3139 620.656 11.303 620.742 11.88C620.914 12.3745 621 13.0752 621 13.9818C621 16.7018 620.356 19.257 619.067 21.6473C617.864 23.9552 616.189 25.6036 614.041 26.5927C612.323 24.3673 610.218 22.4715 607.727 20.9055C605.235 19.257 602.486 17.9382 599.479 16.9491C596.558 15.8776 593.508 15.0945 590.329 14.6C587.151 14.1055 584.058 13.8582 581.051 13.8582C578.044 13.8582 575.209 14.1055 572.545 14.6C569.968 15.0121 567.648 15.6303 565.587 16.4545C563.611 17.1964 562.021 18.1442 560.818 19.2982C559.702 20.4521 559.143 21.7709 559.143 23.2546C559.401 25.0679 560.561 26.9224 562.623 28.8182C564.685 30.6315 567.219 32.4449 570.226 34.2582C573.233 35.9891 576.54 37.72 580.149 39.4509C583.843 41.1818 587.451 42.8303 590.974 44.3964C595.355 46.3746 599.135 48.2291 602.314 49.96C605.493 51.6085 608.113 53.463 610.175 55.5236C612.237 57.5018 613.783 59.7685 614.814 62.3236C615.845 64.8788 616.361 67.9697 616.361 71.5964C616.361 75.8 615.63 79.7564 614.17 83.4655C612.709 87.0921 610.562 90.2655 607.727 92.9855C604.977 95.7055 601.627 97.8073 597.675 99.2909C593.723 100.857 589.298 101.64 584.401 101.64C579.59 101.64 574.393 100.939 568.808 99.5382C563.224 98.137 557.983 96.2 553.086 93.7273C548.275 91.337 544.237 88.5758 540.973 85.4436C537.794 82.2291 536.205 78.8497 536.205 75.3055C536.205 73.657 536.677 71.5552 537.622 69C538.653 66.4449 540.457 63.7661 543.035 60.9636C543.292 63.4364 544.667 66.3624 547.158 69.7418C549.736 73.1212 553.559 76.2533 558.628 79.1382C563.353 81.7758 568.207 83.7127 573.19 84.9491C578.259 86.103 582.984 86.68 587.365 86.68C592.176 86.68 596.085 86.103 599.092 84.9491C602.099 83.7952 604.462 82.4352 606.18 80.8691C607.898 79.2206 609.101 77.5721 609.788 75.9237C610.476 74.2752 610.862 72.9564 610.948 71.9673C610.862 70.3188 610.046 68.7527 608.5 67.2691C607.039 65.703 605.02 64.2194 602.443 62.8182C599.951 61.3346 597.03 59.8509 593.68 58.3673C590.329 56.8836 586.85 55.4 583.242 53.9164C577.829 51.6085 573.147 49.4655 569.195 47.4873C565.329 45.4267 562.107 43.3661 559.53 41.3055C557.038 39.1624 555.191 36.937 553.988 34.6291C552.872 32.3212 552.313 29.6836 552.313 26.7164C552.313 22.1006 553.774 17.7321 556.695 13.6109C559.616 9.4897 563.825 6.35758 569.324 4.21455C572.073 3.06061 574.994 2.23637 578.087 1.74182C581.266 1.24727 584.358 1 587.365 1C593.036 1 598.577 1.74182 603.989 3.22546C609.402 4.70909 614.814 6.60485 620.227 8.91273Z" stroke="black" stroke-width="2" mask="url(#path-1-outside-1_100_201)"/>
</g>
<defs>
<filter id="filter0_d_100_201" x="0" y="0" width="626" height="112" filterUnits="userSpaceOnUse" color-interpolation-filters="sRGB">
<feFlood flood-opacity="0" result="BackgroundImageFix"/>
<feColorMatrix in="SourceAlpha" type="matrix" values="0 0 0 0 0 0 0 0 0 0 0 0 0 0 0 0 0 0 127 0" result="hardAlpha"/>
<feOffset dy="4"/>
<feGaussianBlur stdDeviation="2"/>
<feComposite in2="hardAlpha" operator="out"/>
<feColorMatrix type="matrix" values="0 0 0 0 0 0 0 0 0 0 0 0 0 0 0 0 0 0 0.25 0"/>
<feBlend mode="normal" in2="BackgroundImageFix" result="effect1_dropShadow_100_201"/>
<feBlend mode="normal" in="SourceGraphic" in2="effect1_dropShadow_100_201" result="shape"/>
</filter>
<linearGradient id="paint0_linear_100_201" x1="5" y1="52" x2="621" y2="52" gradientUnits="userSpaceOnUse">
<stop stop-color="#FFE259"/>
<stop offset="1" stop-color="#FFA751"/>
</linearGradient>
<linearGradient id="paint1_linear_100_201" x1="5" y1="52" x2="621" y2="52" gradientUnits="userSpaceOnUse">
<stop stop-color="#FFE259"/>
<stop offset="1" stop-color="#FFA751"/>
</linearGradient>
<linearGradient id="paint2_linear_100_201" x1="5" y1="52" x2="621" y2="52" gradientUnits="userSpaceOnUse">
<stop stop-color="#FFE259"/>
<stop offset="1" stop-color="#FFA751"/>
</linearGradient>
<linearGradient id="paint3_linear_100_201" x1="5" y1="52" x2="621" y2="52" gradientUnits="userSpaceOnUse">
<stop stop-color="#FFE259"/>
<stop offset="1" stop-color="#FFA751"/>
</linearGradient>
<linearGradient id="paint4_linear_100_201" x1="5" y1="52" x2="621" y2="52" gradientUnits="userSpaceOnUse">
<stop stop-color="#FFE259"/>
<stop offset="1" stop-color="#FFA751"/>
</linearGradient>
<linearGradient id="paint5_linear_100_201" x1="5" y1="52" x2="621" y2="52" gradientUnits="userSpaceOnUse">
<stop stop-color="#FFE259"/>
<stop offset="1" stop-color="#FFA751"/>
</linearGradient>
<linearGradient id="paint6_linear_100_201" x1="5" y1="52" x2="621" y2="52" gradientUnits="userSpaceOnUse">
<stop stop-color="#FFE259"/>
<stop offset="1" stop-color="#FFA751"/>
</linearGradient>
<linearGradient id="paint7_linear_100_201" x1="5" y1="52" x2="621" y2="52" gradientUnits="userSpaceOnUse">
<stop stop-color="#FFE259"/>
<stop offset="1" stop-color="#FFA751"/>
</linearGradient>
</defs>
</svg>
