<svg width="626" height="114" viewBox="0 0 626 114" fill="none" xmlns="http://www.w3.org/2000/svg">
<g filter="url(#filter0_d_100_96)">
<mask id="path-1-outside-1_100_96" maskUnits="userSpaceOnUse" x="4" y="0" width="618" height="106" fill="black">
<rect fill="white" x="4" width="618" height="106"/>
<path d="M107.959 10.8803C108.274 12.2781 108.485 13.2648 108.59 13.8404C108.801 14.3337 108.906 15.0326 108.906 15.9371C108.906 18.6505 108.117 21.1995 106.537 23.584C105.064 25.8863 103.011 27.5308 100.379 28.5175C98.2734 26.2975 95.6942 24.4063 92.6412 22.844C89.5882 21.1995 86.2194 19.8839 82.5348 18.8972C78.9555 17.8283 75.2182 17.0472 71.3231 16.5538C67.4279 16.0605 63.638 15.8138 59.9534 15.8138C56.2688 15.8138 52.7947 16.0605 49.5312 16.5538C46.373 16.9649 43.5305 17.5816 41.0039 18.4039C38.5826 19.1439 36.635 20.0895 35.1612 21.2406C33.7926 22.3918 33.1083 23.7074 33.1083 25.1874C33.4242 26.9964 34.8454 28.8464 37.372 30.7376C39.8986 32.5466 43.0042 34.3555 46.6888 36.1645C50.3734 37.8912 54.4265 39.6179 58.848 41.3446C63.3748 43.0713 67.7964 44.7158 72.1126 46.2781C77.4816 48.2515 82.1137 50.1016 86.0089 51.8283C89.904 53.4728 93.1149 55.3229 95.6415 57.3785C98.1681 59.3519 100.063 61.6131 101.326 64.162C102.59 66.711 103.221 69.7944 103.221 73.4123C103.221 77.6058 102.326 81.5526 100.537 85.2527C98.7471 88.8706 96.1152 92.0363 92.6412 94.7497C89.2724 97.4631 85.1667 99.5599 80.324 101.04C75.4814 102.602 70.0598 103.383 64.0591 103.383C58.1637 103.383 51.7946 102.684 44.9517 101.287C38.1089 99.8888 31.6871 97.9565 25.6865 95.4897C19.7911 93.1052 14.8432 90.3507 10.8427 87.2261C6.94758 84.0193 5 80.6481 5 77.1125C5 75.468 5.57901 73.3712 6.73703 70.8223C8.00033 68.2733 10.2111 65.601 13.3693 62.8053C13.6852 65.2721 15.3696 68.191 18.4225 71.5623C21.5808 74.9335 26.2655 78.058 32.4767 80.9359C38.2668 83.5671 44.2148 85.4994 50.3208 86.7328C56.532 87.8839 62.3221 88.4595 67.6911 88.4595C73.5865 88.4595 78.3765 87.8839 82.0611 86.7328C85.7457 85.5816 88.6407 84.2249 90.7462 82.6626C92.8517 81.0181 94.3256 79.3736 95.1678 77.7291C96.01 76.0846 96.4837 74.7691 96.589 73.7823C96.4837 72.1379 95.4836 70.5756 93.5887 69.0955C91.799 67.5333 89.325 66.0532 86.1668 64.6554C83.1138 63.1753 79.5345 61.6953 75.4288 60.2152C71.3231 58.7352 67.0594 57.2551 62.6379 55.7751C56.0056 53.4728 50.2681 51.3349 45.4255 49.3615C40.6881 47.3059 36.7403 45.2503 33.5821 43.1947C30.5291 41.0568 28.2657 38.8368 26.7919 36.5345C25.4233 34.2322 24.739 31.601 24.739 28.6409C24.739 24.0363 26.5287 19.6784 30.108 15.5671C33.6874 11.4559 38.8458 8.33132 45.5834 6.19348C48.9522 5.04233 52.5315 4.22007 56.3214 3.72672C60.2166 3.23337 64.0065 2.9867 67.6911 2.9867C74.6392 2.9867 81.4294 3.72673 88.0617 5.20677C94.694 6.68682 101.326 8.578 107.959 10.8803Z"/>
<path d="M223.416 27.5308C223.416 32.0532 221.942 36.37 218.994 40.4813C216.152 44.5925 212.257 48.2104 207.309 51.3349C202.466 54.3773 196.729 56.8029 190.096 58.6119C183.569 60.4208 176.621 61.3253 169.252 61.3253C166.62 61.3253 164.515 61.0786 162.935 60.5853C161.462 60.0097 159.777 58.9408 157.882 57.3785C152.619 66.341 148.302 74.6046 144.934 82.1693C141.67 89.6517 139.091 96.9287 137.196 104C133.195 103.26 129.932 101.944 127.405 100.053C124.879 98.2443 122.563 95.942 120.457 93.1463C121.51 91.584 122.773 89.5284 124.247 86.9794C125.721 84.4305 127.511 81.3059 129.616 77.6058C131.722 73.8235 134.143 69.3422 136.88 64.162C139.722 58.8996 143.039 52.7739 146.828 45.7848C148.513 42.578 149.987 39.7823 151.25 37.3978C152.513 35.0133 153.619 32.7932 154.566 30.7376C155.514 28.5998 156.356 26.503 157.093 24.4474C157.935 22.3918 158.777 20.1306 159.619 17.6638C154.671 18.8972 150.092 20.3362 145.881 21.9806C141.775 23.6252 138.354 25.3519 135.617 27.1608C134.669 26.6675 133.669 25.9275 132.616 24.9408C131.669 23.9541 130.774 22.8851 129.932 21.734C129.09 20.5006 128.353 19.2672 127.721 18.0339C127.089 16.8005 126.721 15.6904 126.616 14.7038C129.669 13.0592 133.459 11.5381 137.985 10.1403C142.512 8.74244 147.355 7.55018 152.513 6.56348C157.672 5.49456 162.988 4.67231 168.462 4.09674C174.042 3.52116 179.358 3.23337 184.412 3.23337C190.412 3.23337 195.834 3.85006 200.676 5.08344C205.519 6.23459 209.625 7.87908 212.994 10.0169C216.362 12.1548 218.942 14.7038 220.731 17.6638C222.521 20.6239 223.416 23.9129 223.416 27.5308ZM195.307 12.7304C191.307 12.7304 187.201 12.977 182.99 13.4704L184.885 15.6904C183.832 16.7594 182.517 18.3628 180.937 20.5006C179.358 22.6384 177.621 25.2285 175.726 28.2709C173.831 31.231 171.726 34.5611 169.41 38.2612C167.199 41.9613 164.83 45.867 162.304 49.9782C170.515 49.9782 177.99 49.4027 184.727 48.2515C191.465 47.0181 197.202 45.3736 201.94 43.318C206.782 41.1802 210.52 38.7134 213.152 35.9178C215.889 33.1221 217.257 30.1209 217.257 26.9141C217.257 22.6385 215.415 19.2261 211.73 16.6771C208.046 14.0459 202.571 12.7304 195.307 12.7304Z"/>
<path d="M282.412 41.468C285.886 41.468 288.571 42.208 290.465 43.688C292.466 45.1681 293.466 47.2237 293.466 49.8549C293.466 50.5127 293.361 51.2116 293.15 51.9516C293.045 52.6094 292.887 53.185 292.676 53.6784C291.308 53.5139 289.781 53.3906 288.097 53.3083C286.412 53.1439 284.412 53.0617 282.096 53.0617C277.569 53.0617 272.99 53.3906 268.358 54.0484C263.726 54.6239 259.304 55.1173 255.093 55.5284C252.672 59.8863 250.461 64.1209 248.461 68.2322C246.461 72.2612 244.724 75.9613 243.25 79.3325C241.881 82.7038 240.776 85.6227 239.934 88.0895C239.197 90.5562 238.776 92.4063 238.67 93.6397C247.198 92.2418 255.777 91.0496 264.41 90.0629C273.148 89.0762 282.307 88.3362 291.887 87.8428C293.045 89.2406 293.992 90.7618 294.729 92.4063C295.571 94.0508 295.992 95.8186 295.992 97.7098C295.992 98.2031 295.992 98.7376 295.992 99.3132C295.992 99.8888 295.887 100.464 295.677 101.04C292.729 100.958 289.623 100.875 286.36 100.793C283.096 100.793 278.833 100.793 273.569 100.793C270.095 100.793 266.779 100.834 263.62 100.917C260.567 101.081 257.462 101.287 254.304 101.533C251.145 101.78 247.777 102.109 244.197 102.52C240.723 102.931 236.775 103.424 232.354 104C227.511 102.52 222.826 98.9021 218.3 93.1463C220.089 90.1862 222.563 85.705 225.722 79.7025C228.985 73.6179 233.091 65.5187 238.039 55.4051C233.301 54.2539 230.196 52.1983 228.722 49.2382C229.248 48.8271 230.775 48.3337 233.301 47.7582C235.828 47.1004 238.934 46.4426 242.618 45.7848C244.197 42.578 245.513 39.7823 246.566 37.3978C247.724 35.0133 248.724 32.7932 249.566 30.7376C250.408 28.5998 251.145 26.5441 251.777 24.5707C252.514 22.5151 253.198 20.295 253.83 17.9105C250.145 17.7461 247.25 16.9649 245.145 15.5671C243.039 14.0871 241.986 12.1959 241.986 9.89359C241.986 9.23579 242.092 8.45466 242.302 7.55018C242.618 6.64571 242.934 5.86457 243.25 5.20677C245.355 5.45345 247.355 5.6179 249.25 5.70012C251.251 5.78235 253.83 5.82346 256.988 5.82346C263.62 5.82346 269.832 5.70012 275.622 5.45345C281.412 5.12455 286.623 4.79565 291.255 4.46675C295.992 4.13785 300.045 3.85006 303.414 3.60339C306.783 3.27449 309.362 3.11004 311.152 3.11004C313.573 3.11004 315.731 4.09674 317.626 6.07013C319.521 8.04353 320.943 10.8392 321.89 14.4571C318.626 14.2104 315.942 14.046 313.836 13.9637C311.836 13.8815 310.047 13.8404 308.467 13.8404C302.677 13.8404 297.361 14.0871 292.518 14.5804C287.781 14.9915 283.202 15.4438 278.78 15.9371C278.148 16.6772 277.411 17.6227 276.569 18.7739C275.832 19.925 274.832 21.5284 273.569 23.584C272.306 25.6397 270.727 28.2297 268.832 31.3543C267.042 34.4788 264.831 38.3845 262.199 43.0713C266.2 42.578 269.937 42.208 273.411 41.9613C276.99 41.6324 279.991 41.468 282.412 41.468Z"/>
<path d="M318.354 69.8356C318.354 64.0798 319.196 58.4474 320.881 52.9383C322.671 47.347 325.144 42.0846 328.303 37.1511C331.461 32.1354 335.198 27.5719 339.514 23.4607C343.936 19.2672 348.726 15.6493 353.884 12.607C359.148 9.56469 364.728 7.22128 370.623 5.57679C376.518 3.85006 382.572 2.9867 388.783 2.9867C396.047 2.9867 401.679 4.17896 405.68 6.56348C409.785 8.94801 411.838 12.2781 411.838 16.5538C411.838 18.1983 411.522 19.8839 410.891 21.6106C410.364 23.3374 409.522 25.0641 408.364 26.7908C407.311 28.4353 406.048 30.0387 404.574 31.601C403.1 33.1632 401.469 34.52 399.679 35.6711C396.942 35.3422 394.573 34.3966 392.573 32.8343C390.573 31.1898 389.309 29.2987 388.783 27.1608C392.468 24.7763 395.363 22.3095 397.468 19.7606C399.679 17.1294 400.784 14.7449 400.784 12.607C400.784 8.98912 397.889 7.18017 392.099 7.18017C389.678 7.18017 387.151 7.59129 384.519 8.41355C381.993 9.15357 379.414 10.2225 376.782 11.6203C374.15 13.0181 371.571 14.7037 369.044 16.6771C366.623 18.6505 364.359 20.8295 362.254 23.214C347.621 39.659 340.304 56.474 340.304 73.659C340.304 79.7437 341.515 84.636 343.936 88.3362C346.357 92.0363 349.568 94.2152 353.569 94.873C358.095 94.0508 363.833 91.7896 370.781 88.0895C377.729 84.3894 385.309 79.5792 393.52 73.659C394.573 74.4813 395.205 75.3446 395.415 76.2491C392.362 79.3736 389.204 82.3748 385.941 85.2527C382.677 88.1306 379.414 90.7618 376.15 93.1463C372.992 95.5308 369.834 97.6276 366.675 99.4365C363.622 101.245 360.78 102.643 358.148 103.63C345.094 103.466 335.198 100.547 328.461 94.873C321.723 89.1995 318.354 80.8537 318.354 69.8356Z"/>
<path d="M411.92 86.9794C411.92 84.0193 412.499 80.1959 413.657 75.5091C414.92 70.74 416.499 65.6421 418.394 60.2152C420.394 54.7062 422.658 49.1149 425.184 43.4414C427.711 37.6856 430.29 32.2999 432.922 27.2842C435.554 22.2684 438.133 17.8694 440.66 14.0871C443.186 10.3047 445.45 7.5913 447.45 5.9468C448.503 6.02902 449.871 6.35792 451.555 6.9335C453.345 7.42684 455.135 8.04353 456.924 8.78356C458.714 9.52358 460.346 10.3458 461.82 11.2503C463.294 12.0726 464.241 12.8537 464.662 13.5937C461.609 15.7316 458.556 18.9794 455.503 23.3374C452.556 27.6131 449.661 32.5054 446.818 38.0145C444.081 43.5236 441.502 49.3615 439.08 55.5284C436.659 61.6131 434.554 67.5333 432.764 73.289C430.974 79.0447 429.553 84.3894 428.5 89.3229C427.553 94.2563 427.079 98.2443 427.079 101.287C427.079 102.684 427.237 103.548 427.553 103.877C425.237 103.794 423.552 103.466 422.5 102.89C421.447 102.397 420.605 101.821 419.973 101.163C419.447 100.588 418.92 99.971 418.394 99.3132C417.973 98.7376 417.289 98.2854 416.341 97.9565C415.604 97.7098 414.973 97.1342 414.446 96.2297C413.92 95.3253 413.446 94.3386 413.025 93.2697C412.709 92.1185 412.446 90.9674 412.235 89.8162C412.025 88.6651 411.92 87.7195 411.92 86.9794Z"/>
<path d="M464.098 103.383C459.045 102.232 455.519 101.081 453.518 99.9299C451.623 98.7787 450.676 97.3398 450.676 95.6131C450.676 94.2975 451.15 92.4474 452.097 90.0629C453.045 87.6784 454.413 84.8827 456.203 81.6759C458.098 78.3869 460.309 74.769 462.835 70.8223C465.467 66.8755 468.415 62.6409 471.678 58.1185C468.941 58.0363 466.467 57.9952 464.256 57.9952C462.151 57.9129 460.414 57.8718 459.045 57.8718C459.677 56.6385 461.467 55.5695 464.414 54.6651C467.362 53.7606 471.257 52.9794 476.1 52.3216C480.205 46.977 484.574 41.8791 489.206 37.0278C493.944 32.1765 498.681 27.7364 503.419 23.7074C508.156 19.5961 512.893 16.0194 517.631 12.977C522.368 9.85248 526.895 7.38573 531.211 5.57679C531.316 5.00121 531.369 4.50786 531.369 4.09674C531.474 3.68561 531.527 3.39782 531.527 3.23337C533.001 3.23337 534.948 3.52116 537.37 4.09674C539.896 4.67231 542.318 5.37122 544.634 6.19348C547.055 7.01572 549.16 7.87908 550.95 8.78356C552.845 9.6058 553.898 10.3047 554.108 10.8803C550.634 15.6493 547.213 22.8029 543.844 32.341C540.475 41.7969 537.685 53.1439 535.475 66.3821C534.948 69.6711 534.475 73.4123 534.053 77.6058C533.738 81.7993 533.58 86.4861 533.58 91.6663C533.58 93.4752 533.58 95.3253 533.58 97.2164C533.58 99.1076 533.685 101.081 533.896 103.137C533.685 103.219 533.474 103.26 533.264 103.26C533.053 103.26 532.632 103.26 532.001 103.26C530.527 103.26 528.79 103.054 526.789 102.643C524.895 102.314 523 101.862 521.105 101.287C519.315 100.793 517.736 100.218 516.367 99.5599C515.104 98.9021 514.314 98.3265 513.999 97.8331C513.893 96.7642 513.841 95.6953 513.841 94.6264C513.841 93.6397 513.841 92.5707 513.841 91.4196C513.841 86.3216 514.051 81.1415 514.472 75.8791C514.999 70.6167 515.841 65.1898 516.999 59.5985C515.525 59.5163 513.578 59.4341 511.156 59.3519C508.735 59.1874 505.998 59.0641 502.945 58.9819C499.997 58.8996 496.786 58.8174 493.312 58.7352C489.943 58.5707 486.627 58.4474 483.364 58.3652C480.837 62.0653 478.468 65.7654 476.258 69.4655C474.047 73.0834 472.152 76.7424 470.573 80.4426C468.783 84.3894 467.309 88.3362 466.151 92.2829C465.099 96.2297 464.414 99.9299 464.098 103.383ZM525.052 29.2576C525.474 28.1064 525.947 26.5441 526.474 24.5707C527.105 22.5151 527.684 20.3773 528.211 18.1572C525.579 18.8972 522.631 20.2539 519.368 22.2273C516.209 24.2007 512.893 26.6675 509.419 29.6276C506.05 32.5054 502.576 35.7944 498.997 39.4946C495.523 43.1125 492.154 46.977 488.891 51.0883C497.734 50.5127 507.787 50.1427 519.052 49.9782C519.894 46.5248 520.789 43.1125 521.736 39.7412C522.789 36.2878 523.894 32.7932 525.052 29.2576Z"/>
<path d="M617.052 86.9794C619.684 90.5151 621 93.9275 621 97.2164C621 97.9565 620.895 98.6143 620.684 99.1898C620.579 99.8476 620.421 100.505 620.211 101.163C618.421 100.999 616.526 100.875 614.526 100.793C612.631 100.711 610.63 100.67 608.525 100.67C605.998 100.67 603.419 100.711 600.787 100.793C598.261 100.958 595.418 101.163 592.26 101.41C589.102 101.657 585.575 101.985 581.68 102.397C577.785 102.808 573.258 103.342 568.099 104C565.678 103.342 563.257 102.027 560.836 100.053C558.414 98.162 556.151 95.8597 554.045 93.1463C555.098 91.3374 556.414 89.1173 557.993 86.4861C559.572 83.7727 561.415 80.5248 563.52 76.7424C565.626 72.8779 567.942 68.3966 570.468 63.2987C573.1 58.1185 575.89 52.1572 578.838 45.4148C580.732 40.9746 582.364 37.0689 583.733 33.6977C585.101 30.3265 586.312 27.0786 587.365 23.9541C588.523 20.7473 589.628 17.4172 590.681 13.9637C591.734 10.5103 592.892 6.52237 594.155 2C598.366 2.6578 601.998 3.89117 605.051 5.70012C608.209 7.42684 611.209 9.9347 614.052 13.2237C613.21 14.2926 612.104 16.0194 610.736 18.4039C609.367 20.7884 607.735 23.7074 605.841 27.1608C604.051 30.532 602.051 34.3966 599.84 38.7545C597.629 43.0302 595.313 47.6348 592.892 52.5683C590.576 57.4196 588.312 61.9831 586.102 66.2588C583.891 70.5345 581.891 74.399 580.101 77.8525C578.416 81.3059 577.048 84.266 575.995 86.7328C574.942 89.1995 574.416 91.0496 574.416 92.2829C576.1 92.2007 577.627 92.1185 578.995 92.0363C580.364 91.954 581.785 91.8307 583.259 91.6663C584.733 91.4196 586.312 91.1729 587.996 90.9262C589.786 90.5973 591.892 90.1862 594.313 89.6929C596.418 89.2817 598.366 88.9528 600.156 88.7062C601.945 88.3773 603.682 88.1306 605.367 87.9661C607.156 87.7195 608.946 87.555 610.736 87.4728C612.631 87.3083 614.736 87.1439 617.052 86.9794Z"/>
</mask>
<path d="M107.959 10.8803C108.274 12.2781 108.485 13.2648 108.59 13.8404C108.801 14.3337 108.906 15.0326 108.906 15.9371C108.906 18.6505 108.117 21.1995 106.537 23.584C105.064 25.8863 103.011 27.5308 100.379 28.5175C98.2734 26.2975 95.6942 24.4063 92.6412 22.844C89.5882 21.1995 86.2194 19.8839 82.5348 18.8972C78.9555 17.8283 75.2182 17.0472 71.3231 16.5538C67.4279 16.0605 63.638 15.8138 59.9534 15.8138C56.2688 15.8138 52.7947 16.0605 49.5312 16.5538C46.373 16.9649 43.5305 17.5816 41.0039 18.4039C38.5826 19.1439 36.635 20.0895 35.1612 21.2406C33.7926 22.3918 33.1083 23.7074 33.1083 25.1874C33.4242 26.9964 34.8454 28.8464 37.372 30.7376C39.8986 32.5466 43.0042 34.3555 46.6888 36.1645C50.3734 37.8912 54.4265 39.6179 58.848 41.3446C63.3748 43.0713 67.7964 44.7158 72.1126 46.2781C77.4816 48.2515 82.1137 50.1016 86.0089 51.8283C89.904 53.4728 93.1149 55.3229 95.6415 57.3785C98.1681 59.3519 100.063 61.6131 101.326 64.162C102.59 66.711 103.221 69.7944 103.221 73.4123C103.221 77.6058 102.326 81.5526 100.537 85.2527C98.7471 88.8706 96.1152 92.0363 92.6412 94.7497C89.2724 97.4631 85.1667 99.5599 80.324 101.04C75.4814 102.602 70.0598 103.383 64.0591 103.383C58.1637 103.383 51.7946 102.684 44.9517 101.287C38.1089 99.8888 31.6871 97.9565 25.6865 95.4897C19.7911 93.1052 14.8432 90.3507 10.8427 87.2261C6.94758 84.0193 5 80.6481 5 77.1125C5 75.468 5.57901 73.3712 6.73703 70.8223C8.00033 68.2733 10.2111 65.601 13.3693 62.8053C13.6852 65.2721 15.3696 68.191 18.4225 71.5623C21.5808 74.9335 26.2655 78.058 32.4767 80.9359C38.2668 83.5671 44.2148 85.4994 50.3208 86.7328C56.532 87.8839 62.3221 88.4595 67.6911 88.4595C73.5865 88.4595 78.3765 87.8839 82.0611 86.7328C85.7457 85.5816 88.6407 84.2249 90.7462 82.6626C92.8517 81.0181 94.3256 79.3736 95.1678 77.7291C96.01 76.0846 96.4837 74.7691 96.589 73.7823C96.4837 72.1379 95.4836 70.5756 93.5887 69.0955C91.799 67.5333 89.325 66.0532 86.1668 64.6554C83.1138 63.1753 79.5345 61.6953 75.4288 60.2152C71.3231 58.7352 67.0594 57.2551 62.6379 55.7751C56.0056 53.4728 50.2681 51.3349 45.4255 49.3615C40.6881 47.3059 36.7403 45.2503 33.5821 43.1947C30.5291 41.0568 28.2657 38.8368 26.7919 36.5345C25.4233 34.2322 24.739 31.601 24.739 28.6409C24.739 24.0363 26.5287 19.6784 30.108 15.5671C33.6874 11.4559 38.8458 8.33132 45.5834 6.19348C48.9522 5.04233 52.5315 4.22007 56.3214 3.72672C60.2166 3.23337 64.0065 2.9867 67.6911 2.9867C74.6392 2.9867 81.4294 3.72673 88.0617 5.20677C94.694 6.68682 101.326 8.578 107.959 10.8803Z" fill="url(#paint0_linear_100_96)"/>
<path d="M223.416 27.5308C223.416 32.0532 221.942 36.37 218.994 40.4813C216.152 44.5925 212.257 48.2104 207.309 51.3349C202.466 54.3773 196.729 56.8029 190.096 58.6119C183.569 60.4208 176.621 61.3253 169.252 61.3253C166.62 61.3253 164.515 61.0786 162.935 60.5853C161.462 60.0097 159.777 58.9408 157.882 57.3785C152.619 66.341 148.302 74.6046 144.934 82.1693C141.67 89.6517 139.091 96.9287 137.196 104C133.195 103.26 129.932 101.944 127.405 100.053C124.879 98.2443 122.563 95.942 120.457 93.1463C121.51 91.584 122.773 89.5284 124.247 86.9794C125.721 84.4305 127.511 81.3059 129.616 77.6058C131.722 73.8235 134.143 69.3422 136.88 64.162C139.722 58.8996 143.039 52.7739 146.828 45.7848C148.513 42.578 149.987 39.7823 151.25 37.3978C152.513 35.0133 153.619 32.7932 154.566 30.7376C155.514 28.5998 156.356 26.503 157.093 24.4474C157.935 22.3918 158.777 20.1306 159.619 17.6638C154.671 18.8972 150.092 20.3362 145.881 21.9806C141.775 23.6252 138.354 25.3519 135.617 27.1608C134.669 26.6675 133.669 25.9275 132.616 24.9408C131.669 23.9541 130.774 22.8851 129.932 21.734C129.09 20.5006 128.353 19.2672 127.721 18.0339C127.089 16.8005 126.721 15.6904 126.616 14.7038C129.669 13.0592 133.459 11.5381 137.985 10.1403C142.512 8.74244 147.355 7.55018 152.513 6.56348C157.672 5.49456 162.988 4.67231 168.462 4.09674C174.042 3.52116 179.358 3.23337 184.412 3.23337C190.412 3.23337 195.834 3.85006 200.676 5.08344C205.519 6.23459 209.625 7.87908 212.994 10.0169C216.362 12.1548 218.942 14.7038 220.731 17.6638C222.521 20.6239 223.416 23.9129 223.416 27.5308ZM195.307 12.7304C191.307 12.7304 187.201 12.977 182.99 13.4704L184.885 15.6904C183.832 16.7594 182.517 18.3628 180.937 20.5006C179.358 22.6384 177.621 25.2285 175.726 28.2709C173.831 31.231 171.726 34.5611 169.41 38.2612C167.199 41.9613 164.83 45.867 162.304 49.9782C170.515 49.9782 177.99 49.4027 184.727 48.2515C191.465 47.0181 197.202 45.3736 201.94 43.318C206.782 41.1802 210.52 38.7134 213.152 35.9178C215.889 33.1221 217.257 30.1209 217.257 26.9141C217.257 22.6385 215.415 19.2261 211.73 16.6771C208.046 14.0459 202.571 12.7304 195.307 12.7304Z" fill="url(#paint1_linear_100_96)"/>
<path d="M282.412 41.468C285.886 41.468 288.571 42.208 290.465 43.688C292.466 45.1681 293.466 47.2237 293.466 49.8549C293.466 50.5127 293.361 51.2116 293.15 51.9516C293.045 52.6094 292.887 53.185 292.676 53.6784C291.308 53.5139 289.781 53.3906 288.097 53.3083C286.412 53.1439 284.412 53.0617 282.096 53.0617C277.569 53.0617 272.99 53.3906 268.358 54.0484C263.726 54.6239 259.304 55.1173 255.093 55.5284C252.672 59.8863 250.461 64.1209 248.461 68.2322C246.461 72.2612 244.724 75.9613 243.25 79.3325C241.881 82.7038 240.776 85.6227 239.934 88.0895C239.197 90.5562 238.776 92.4063 238.67 93.6397C247.198 92.2418 255.777 91.0496 264.41 90.0629C273.148 89.0762 282.307 88.3362 291.887 87.8428C293.045 89.2406 293.992 90.7618 294.729 92.4063C295.571 94.0508 295.992 95.8186 295.992 97.7098C295.992 98.2031 295.992 98.7376 295.992 99.3132C295.992 99.8888 295.887 100.464 295.677 101.04C292.729 100.958 289.623 100.875 286.36 100.793C283.096 100.793 278.833 100.793 273.569 100.793C270.095 100.793 266.779 100.834 263.62 100.917C260.567 101.081 257.462 101.287 254.304 101.533C251.145 101.78 247.777 102.109 244.197 102.52C240.723 102.931 236.775 103.424 232.354 104C227.511 102.52 222.826 98.9021 218.3 93.1463C220.089 90.1862 222.563 85.705 225.722 79.7025C228.985 73.6179 233.091 65.5187 238.039 55.4051C233.301 54.2539 230.196 52.1983 228.722 49.2382C229.248 48.8271 230.775 48.3337 233.301 47.7582C235.828 47.1004 238.934 46.4426 242.618 45.7848C244.197 42.578 245.513 39.7823 246.566 37.3978C247.724 35.0133 248.724 32.7932 249.566 30.7376C250.408 28.5998 251.145 26.5441 251.777 24.5707C252.514 22.5151 253.198 20.295 253.83 17.9105C250.145 17.7461 247.25 16.9649 245.145 15.5671C243.039 14.0871 241.986 12.1959 241.986 9.89359C241.986 9.23579 242.092 8.45466 242.302 7.55018C242.618 6.64571 242.934 5.86457 243.25 5.20677C245.355 5.45345 247.355 5.6179 249.25 5.70012C251.251 5.78235 253.83 5.82346 256.988 5.82346C263.62 5.82346 269.832 5.70012 275.622 5.45345C281.412 5.12455 286.623 4.79565 291.255 4.46675C295.992 4.13785 300.045 3.85006 303.414 3.60339C306.783 3.27449 309.362 3.11004 311.152 3.11004C313.573 3.11004 315.731 4.09674 317.626 6.07013C319.521 8.04353 320.943 10.8392 321.89 14.4571C318.626 14.2104 315.942 14.046 313.836 13.9637C311.836 13.8815 310.047 13.8404 308.467 13.8404C302.677 13.8404 297.361 14.0871 292.518 14.5804C287.781 14.9915 283.202 15.4438 278.78 15.9371C278.148 16.6772 277.411 17.6227 276.569 18.7739C275.832 19.925 274.832 21.5284 273.569 23.584C272.306 25.6397 270.727 28.2297 268.832 31.3543C267.042 34.4788 264.831 38.3845 262.199 43.0713C266.2 42.578 269.937 42.208 273.411 41.9613C276.99 41.6324 279.991 41.468 282.412 41.468Z" fill="url(#paint2_linear_100_96)"/>
<path d="M318.354 69.8356C318.354 64.0798 319.196 58.4474 320.881 52.9383C322.671 47.347 325.144 42.0846 328.303 37.1511C331.461 32.1354 335.198 27.5719 339.514 23.4607C343.936 19.2672 348.726 15.6493 353.884 12.607C359.148 9.56469 364.728 7.22128 370.623 5.57679C376.518 3.85006 382.572 2.9867 388.783 2.9867C396.047 2.9867 401.679 4.17896 405.68 6.56348C409.785 8.94801 411.838 12.2781 411.838 16.5538C411.838 18.1983 411.522 19.8839 410.891 21.6106C410.364 23.3374 409.522 25.0641 408.364 26.7908C407.311 28.4353 406.048 30.0387 404.574 31.601C403.1 33.1632 401.469 34.52 399.679 35.6711C396.942 35.3422 394.573 34.3966 392.573 32.8343C390.573 31.1898 389.309 29.2987 388.783 27.1608C392.468 24.7763 395.363 22.3095 397.468 19.7606C399.679 17.1294 400.784 14.7449 400.784 12.607C400.784 8.98912 397.889 7.18017 392.099 7.18017C389.678 7.18017 387.151 7.59129 384.519 8.41355C381.993 9.15357 379.414 10.2225 376.782 11.6203C374.15 13.0181 371.571 14.7037 369.044 16.6771C366.623 18.6505 364.359 20.8295 362.254 23.214C347.621 39.659 340.304 56.474 340.304 73.659C340.304 79.7437 341.515 84.636 343.936 88.3362C346.357 92.0363 349.568 94.2152 353.569 94.873C358.095 94.0508 363.833 91.7896 370.781 88.0895C377.729 84.3894 385.309 79.5792 393.52 73.659C394.573 74.4813 395.205 75.3446 395.415 76.2491C392.362 79.3736 389.204 82.3748 385.941 85.2527C382.677 88.1306 379.414 90.7618 376.15 93.1463C372.992 95.5308 369.834 97.6276 366.675 99.4365C363.622 101.245 360.78 102.643 358.148 103.63C345.094 103.466 335.198 100.547 328.461 94.873C321.723 89.1995 318.354 80.8537 318.354 69.8356Z" fill="url(#paint3_linear_100_96)"/>
<path d="M411.92 86.9794C411.92 84.0193 412.499 80.1959 413.657 75.5091C414.92 70.74 416.499 65.6421 418.394 60.2152C420.394 54.7062 422.658 49.1149 425.184 43.4414C427.711 37.6856 430.29 32.2999 432.922 27.2842C435.554 22.2684 438.133 17.8694 440.66 14.0871C443.186 10.3047 445.45 7.5913 447.45 5.9468C448.503 6.02902 449.871 6.35792 451.555 6.9335C453.345 7.42684 455.135 8.04353 456.924 8.78356C458.714 9.52358 460.346 10.3458 461.82 11.2503C463.294 12.0726 464.241 12.8537 464.662 13.5937C461.609 15.7316 458.556 18.9794 455.503 23.3374C452.556 27.6131 449.661 32.5054 446.818 38.0145C444.081 43.5236 441.502 49.3615 439.08 55.5284C436.659 61.6131 434.554 67.5333 432.764 73.289C430.974 79.0447 429.553 84.3894 428.5 89.3229C427.553 94.2563 427.079 98.2443 427.079 101.287C427.079 102.684 427.237 103.548 427.553 103.877C425.237 103.794 423.552 103.466 422.5 102.89C421.447 102.397 420.605 101.821 419.973 101.163C419.447 100.588 418.92 99.971 418.394 99.3132C417.973 98.7376 417.289 98.2854 416.341 97.9565C415.604 97.7098 414.973 97.1342 414.446 96.2297C413.92 95.3253 413.446 94.3386 413.025 93.2697C412.709 92.1185 412.446 90.9674 412.235 89.8162C412.025 88.6651 411.92 87.7195 411.92 86.9794Z" fill="url(#paint4_linear_100_96)"/>
<path d="M464.098 103.383C459.045 102.232 455.519 101.081 453.518 99.9299C451.623 98.7787 450.676 97.3398 450.676 95.6131C450.676 94.2975 451.15 92.4474 452.097 90.0629C453.045 87.6784 454.413 84.8827 456.203 81.6759C458.098 78.3869 460.309 74.769 462.835 70.8223C465.467 66.8755 468.415 62.6409 471.678 58.1185C468.941 58.0363 466.467 57.9952 464.256 57.9952C462.151 57.9129 460.414 57.8718 459.045 57.8718C459.677 56.6385 461.467 55.5695 464.414 54.6651C467.362 53.7606 471.257 52.9794 476.1 52.3216C480.205 46.977 484.574 41.8791 489.206 37.0278C493.944 32.1765 498.681 27.7364 503.419 23.7074C508.156 19.5961 512.893 16.0194 517.631 12.977C522.368 9.85248 526.895 7.38573 531.211 5.57679C531.316 5.00121 531.369 4.50786 531.369 4.09674C531.474 3.68561 531.527 3.39782 531.527 3.23337C533.001 3.23337 534.948 3.52116 537.37 4.09674C539.896 4.67231 542.318 5.37122 544.634 6.19348C547.055 7.01572 549.16 7.87908 550.95 8.78356C552.845 9.6058 553.898 10.3047 554.108 10.8803C550.634 15.6493 547.213 22.8029 543.844 32.341C540.475 41.7969 537.685 53.1439 535.475 66.3821C534.948 69.6711 534.475 73.4123 534.053 77.6058C533.738 81.7993 533.58 86.4861 533.58 91.6663C533.58 93.4752 533.58 95.3253 533.58 97.2164C533.58 99.1076 533.685 101.081 533.896 103.137C533.685 103.219 533.474 103.26 533.264 103.26C533.053 103.26 532.632 103.26 532.001 103.26C530.527 103.26 528.79 103.054 526.789 102.643C524.895 102.314 523 101.862 521.105 101.287C519.315 100.793 517.736 100.218 516.367 99.5599C515.104 98.9021 514.314 98.3265 513.999 97.8331C513.893 96.7642 513.841 95.6953 513.841 94.6264C513.841 93.6397 513.841 92.5707 513.841 91.4196C513.841 86.3216 514.051 81.1415 514.472 75.8791C514.999 70.6167 515.841 65.1898 516.999 59.5985C515.525 59.5163 513.578 59.4341 511.156 59.3519C508.735 59.1874 505.998 59.0641 502.945 58.9819C499.997 58.8996 496.786 58.8174 493.312 58.7352C489.943 58.5707 486.627 58.4474 483.364 58.3652C480.837 62.0653 478.468 65.7654 476.258 69.4655C474.047 73.0834 472.152 76.7424 470.573 80.4426C468.783 84.3894 467.309 88.3362 466.151 92.2829C465.099 96.2297 464.414 99.9299 464.098 103.383ZM525.052 29.2576C525.474 28.1064 525.947 26.5441 526.474 24.5707C527.105 22.5151 527.684 20.3773 528.211 18.1572C525.579 18.8972 522.631 20.2539 519.368 22.2273C516.209 24.2007 512.893 26.6675 509.419 29.6276C506.05 32.5054 502.576 35.7944 498.997 39.4946C495.523 43.1125 492.154 46.977 488.891 51.0883C497.734 50.5127 507.787 50.1427 519.052 49.9782C519.894 46.5248 520.789 43.1125 521.736 39.7412C522.789 36.2878 523.894 32.7932 525.052 29.2576Z" fill="url(#paint5_linear_100_96)"/>
<path d="M617.052 86.9794C619.684 90.5151 621 93.9275 621 97.2164C621 97.9565 620.895 98.6143 620.684 99.1898C620.579 99.8476 620.421 100.505 620.211 101.163C618.421 100.999 616.526 100.875 614.526 100.793C612.631 100.711 610.63 100.67 608.525 100.67C605.998 100.67 603.419 100.711 600.787 100.793C598.261 100.958 595.418 101.163 592.26 101.41C589.102 101.657 585.575 101.985 581.68 102.397C577.785 102.808 573.258 103.342 568.099 104C565.678 103.342 563.257 102.027 560.836 100.053C558.414 98.162 556.151 95.8597 554.045 93.1463C555.098 91.3374 556.414 89.1173 557.993 86.4861C559.572 83.7727 561.415 80.5248 563.52 76.7424C565.626 72.8779 567.942 68.3966 570.468 63.2987C573.1 58.1185 575.89 52.1572 578.838 45.4148C580.732 40.9746 582.364 37.0689 583.733 33.6977C585.101 30.3265 586.312 27.0786 587.365 23.9541C588.523 20.7473 589.628 17.4172 590.681 13.9637C591.734 10.5103 592.892 6.52237 594.155 2C598.366 2.6578 601.998 3.89117 605.051 5.70012C608.209 7.42684 611.209 9.9347 614.052 13.2237C613.21 14.2926 612.104 16.0194 610.736 18.4039C609.367 20.7884 607.735 23.7074 605.841 27.1608C604.051 30.532 602.051 34.3966 599.84 38.7545C597.629 43.0302 595.313 47.6348 592.892 52.5683C590.576 57.4196 588.312 61.9831 586.102 66.2588C583.891 70.5345 581.891 74.399 580.101 77.8525C578.416 81.3059 577.048 84.266 575.995 86.7328C574.942 89.1995 574.416 91.0496 574.416 92.2829C576.1 92.2007 577.627 92.1185 578.995 92.0363C580.364 91.954 581.785 91.8307 583.259 91.6663C584.733 91.4196 586.312 91.1729 587.996 90.9262C589.786 90.5973 591.892 90.1862 594.313 89.6929C596.418 89.2817 598.366 88.9528 600.156 88.7062C601.945 88.3773 603.682 88.1306 605.367 87.9661C607.156 87.7195 608.946 87.555 610.736 87.4728C612.631 87.3083 614.736 87.1439 617.052 86.9794Z" fill="url(#paint6_linear_100_96)"/>
<path d="M107.959 10.8803C108.274 12.2781 108.485 13.2648 108.59 13.8404C108.801 14.3337 108.906 15.0326 108.906 15.9371C108.906 18.6505 108.117 21.1995 106.537 23.584C105.064 25.8863 103.011 27.5308 100.379 28.5175C98.2734 26.2975 95.6942 24.4063 92.6412 22.844C89.5882 21.1995 86.2194 19.8839 82.5348 18.8972C78.9555 17.8283 75.2182 17.0472 71.3231 16.5538C67.4279 16.0605 63.638 15.8138 59.9534 15.8138C56.2688 15.8138 52.7947 16.0605 49.5312 16.5538C46.373 16.9649 43.5305 17.5816 41.0039 18.4039C38.5826 19.1439 36.635 20.0895 35.1612 21.2406C33.7926 22.3918 33.1083 23.7074 33.1083 25.1874C33.4242 26.9964 34.8454 28.8464 37.372 30.7376C39.8986 32.5466 43.0042 34.3555 46.6888 36.1645C50.3734 37.8912 54.4265 39.6179 58.848 41.3446C63.3748 43.0713 67.7964 44.7158 72.1126 46.2781C77.4816 48.2515 82.1137 50.1016 86.0089 51.8283C89.904 53.4728 93.1149 55.3229 95.6415 57.3785C98.1681 59.3519 100.063 61.6131 101.326 64.162C102.59 66.711 103.221 69.7944 103.221 73.4123C103.221 77.6058 102.326 81.5526 100.537 85.2527C98.7471 88.8706 96.1152 92.0363 92.6412 94.7497C89.2724 97.4631 85.1667 99.5599 80.324 101.04C75.4814 102.602 70.0598 103.383 64.0591 103.383C58.1637 103.383 51.7946 102.684 44.9517 101.287C38.1089 99.8888 31.6871 97.9565 25.6865 95.4897C19.7911 93.1052 14.8432 90.3507 10.8427 87.2261C6.94758 84.0193 5 80.6481 5 77.1125C5 75.468 5.57901 73.3712 6.73703 70.8223C8.00033 68.2733 10.2111 65.601 13.3693 62.8053C13.6852 65.2721 15.3696 68.191 18.4225 71.5623C21.5808 74.9335 26.2655 78.058 32.4767 80.9359C38.2668 83.5671 44.2148 85.4994 50.3208 86.7328C56.532 87.8839 62.3221 88.4595 67.6911 88.4595C73.5865 88.4595 78.3765 87.8839 82.0611 86.7328C85.7457 85.5816 88.6407 84.2249 90.7462 82.6626C92.8517 81.0181 94.3256 79.3736 95.1678 77.7291C96.01 76.0846 96.4837 74.7691 96.589 73.7823C96.4837 72.1379 95.4836 70.5756 93.5887 69.0955C91.799 67.5333 89.325 66.0532 86.1668 64.6554C83.1138 63.1753 79.5345 61.6953 75.4288 60.2152C71.3231 58.7352 67.0594 57.2551 62.6379 55.7751C56.0056 53.4728 50.2681 51.3349 45.4255 49.3615C40.6881 47.3059 36.7403 45.2503 33.5821 43.1947C30.5291 41.0568 28.2657 38.8368 26.7919 36.5345C25.4233 34.2322 24.739 31.601 24.739 28.6409C24.739 24.0363 26.5287 19.6784 30.108 15.5671C33.6874 11.4559 38.8458 8.33132 45.5834 6.19348C48.9522 5.04233 52.5315 4.22007 56.3214 3.72672C60.2166 3.23337 64.0065 2.9867 67.6911 2.9867C74.6392 2.9867 81.4294 3.72673 88.0617 5.20677C94.694 6.68682 101.326 8.578 107.959 10.8803Z" stroke="black" stroke-width="2" mask="url(#path-1-outside-1_100_96)"/>
<path d="M223.416 27.5308C223.416 32.0532 221.942 36.37 218.994 40.4813C216.152 44.5925 212.257 48.2104 207.309 51.3349C202.466 54.3773 196.729 56.8029 190.096 58.6119C183.569 60.4208 176.621 61.3253 169.252 61.3253C166.62 61.3253 164.515 61.0786 162.935 60.5853C161.462 60.0097 159.777 58.9408 157.882 57.3785C152.619 66.341 148.302 74.6046 144.934 82.1693C141.67 89.6517 139.091 96.9287 137.196 104C133.195 103.26 129.932 101.944 127.405 100.053C124.879 98.2443 122.563 95.942 120.457 93.1463C121.51 91.584 122.773 89.5284 124.247 86.9794C125.721 84.4305 127.511 81.3059 129.616 77.6058C131.722 73.8235 134.143 69.3422 136.88 64.162C139.722 58.8996 143.039 52.7739 146.828 45.7848C148.513 42.578 149.987 39.7823 151.25 37.3978C152.513 35.0133 153.619 32.7932 154.566 30.7376C155.514 28.5998 156.356 26.503 157.093 24.4474C157.935 22.3918 158.777 20.1306 159.619 17.6638C154.671 18.8972 150.092 20.3362 145.881 21.9806C141.775 23.6252 138.354 25.3519 135.617 27.1608C134.669 26.6675 133.669 25.9275 132.616 24.9408C131.669 23.9541 130.774 22.8851 129.932 21.734C129.09 20.5006 128.353 19.2672 127.721 18.0339C127.089 16.8005 126.721 15.6904 126.616 14.7038C129.669 13.0592 133.459 11.5381 137.985 10.1403C142.512 8.74244 147.355 7.55018 152.513 6.56348C157.672 5.49456 162.988 4.67231 168.462 4.09674C174.042 3.52116 179.358 3.23337 184.412 3.23337C190.412 3.23337 195.834 3.85006 200.676 5.08344C205.519 6.23459 209.625 7.87908 212.994 10.0169C216.362 12.1548 218.942 14.7038 220.731 17.6638C222.521 20.6239 223.416 23.9129 223.416 27.5308ZM195.307 12.7304C191.307 12.7304 187.201 12.977 182.99 13.4704L184.885 15.6904C183.832 16.7594 182.517 18.3628 180.937 20.5006C179.358 22.6384 177.621 25.2285 175.726 28.2709C173.831 31.231 171.726 34.5611 169.41 38.2612C167.199 41.9613 164.83 45.867 162.304 49.9782C170.515 49.9782 177.99 49.4027 184.727 48.2515C191.465 47.0181 197.202 45.3736 201.94 43.318C206.782 41.1802 210.52 38.7134 213.152 35.9178C215.889 33.1221 217.257 30.1209 217.257 26.9141C217.257 22.6385 215.415 19.2261 211.73 16.6771C208.046 14.0459 202.571 12.7304 195.307 12.7304Z" stroke="black" stroke-width="2" mask="url(#path-1-outside-1_100_96)"/>
<path d="M282.412 41.468C285.886 41.468 288.571 42.208 290.465 43.688C292.466 45.1681 293.466 47.2237 293.466 49.8549C293.466 50.5127 293.361 51.2116 293.15 51.9516C293.045 52.6094 292.887 53.185 292.676 53.6784C291.308 53.5139 289.781 53.3906 288.097 53.3083C286.412 53.1439 284.412 53.0617 282.096 53.0617C277.569 53.0617 272.99 53.3906 268.358 54.0484C263.726 54.6239 259.304 55.1173 255.093 55.5284C252.672 59.8863 250.461 64.1209 248.461 68.2322C246.461 72.2612 244.724 75.9613 243.25 79.3325C241.881 82.7038 240.776 85.6227 239.934 88.0895C239.197 90.5562 238.776 92.4063 238.67 93.6397C247.198 92.2418 255.777 91.0496 264.41 90.0629C273.148 89.0762 282.307 88.3362 291.887 87.8428C293.045 89.2406 293.992 90.7618 294.729 92.4063C295.571 94.0508 295.992 95.8186 295.992 97.7098C295.992 98.2031 295.992 98.7376 295.992 99.3132C295.992 99.8888 295.887 100.464 295.677 101.04C292.729 100.958 289.623 100.875 286.36 100.793C283.096 100.793 278.833 100.793 273.569 100.793C270.095 100.793 266.779 100.834 263.62 100.917C260.567 101.081 257.462 101.287 254.304 101.533C251.145 101.78 247.777 102.109 244.197 102.52C240.723 102.931 236.775 103.424 232.354 104C227.511 102.52 222.826 98.9021 218.3 93.1463C220.089 90.1862 222.563 85.705 225.722 79.7025C228.985 73.6179 233.091 65.5187 238.039 55.4051C233.301 54.2539 230.196 52.1983 228.722 49.2382C229.248 48.8271 230.775 48.3337 233.301 47.7582C235.828 47.1004 238.934 46.4426 242.618 45.7848C244.197 42.578 245.513 39.7823 246.566 37.3978C247.724 35.0133 248.724 32.7932 249.566 30.7376C250.408 28.5998 251.145 26.5441 251.777 24.5707C252.514 22.5151 253.198 20.295 253.83 17.9105C250.145 17.7461 247.25 16.9649 245.145 15.5671C243.039 14.0871 241.986 12.1959 241.986 9.89359C241.986 9.23579 242.092 8.45466 242.302 7.55018C242.618 6.64571 242.934 5.86457 243.25 5.20677C245.355 5.45345 247.355 5.6179 249.25 5.70012C251.251 5.78235 253.83 5.82346 256.988 5.82346C263.62 5.82346 269.832 5.70012 275.622 5.45345C281.412 5.12455 286.623 4.79565 291.255 4.46675C295.992 4.13785 300.045 3.85006 303.414 3.60339C306.783 3.27449 309.362 3.11004 311.152 3.11004C313.573 3.11004 315.731 4.09674 317.626 6.07013C319.521 8.04353 320.943 10.8392 321.89 14.4571C318.626 14.2104 315.942 14.046 313.836 13.9637C311.836 13.8815 310.047 13.8404 308.467 13.8404C302.677 13.8404 297.361 14.0871 292.518 14.5804C287.781 14.9915 283.202 15.4438 278.78 15.9371C278.148 16.6772 277.411 17.6227 276.569 18.7739C275.832 19.925 274.832 21.5284 273.569 23.584C272.306 25.6397 270.727 28.2297 268.832 31.3543C267.042 34.4788 264.831 38.3845 262.199 43.0713C266.2 42.578 269.937 42.208 273.411 41.9613C276.99 41.6324 279.991 41.468 282.412 41.468Z" stroke="black" stroke-width="2" mask="url(#path-1-outside-1_100_96)"/>
<path d="M318.354 69.8356C318.354 64.0798 319.196 58.4474 320.881 52.9383C322.671 47.347 325.144 42.0846 328.303 37.1511C331.461 32.1354 335.198 27.5719 339.514 23.4607C343.936 19.2672 348.726 15.6493 353.884 12.607C359.148 9.56469 364.728 7.22128 370.623 5.57679C376.518 3.85006 382.572 2.9867 388.783 2.9867C396.047 2.9867 401.679 4.17896 405.68 6.56348C409.785 8.94801 411.838 12.2781 411.838 16.5538C411.838 18.1983 411.522 19.8839 410.891 21.6106C410.364 23.3374 409.522 25.0641 408.364 26.7908C407.311 28.4353 406.048 30.0387 404.574 31.601C403.1 33.1632 401.469 34.52 399.679 35.6711C396.942 35.3422 394.573 34.3966 392.573 32.8343C390.573 31.1898 389.309 29.2987 388.783 27.1608C392.468 24.7763 395.363 22.3095 397.468 19.7606C399.679 17.1294 400.784 14.7449 400.784 12.607C400.784 8.98912 397.889 7.18017 392.099 7.18017C389.678 7.18017 387.151 7.59129 384.519 8.41355C381.993 9.15357 379.414 10.2225 376.782 11.6203C374.15 13.0181 371.571 14.7037 369.044 16.6771C366.623 18.6505 364.359 20.8295 362.254 23.214C347.621 39.659 340.304 56.474 340.304 73.659C340.304 79.7437 341.515 84.636 343.936 88.3362C346.357 92.0363 349.568 94.2152 353.569 94.873C358.095 94.0508 363.833 91.7896 370.781 88.0895C377.729 84.3894 385.309 79.5792 393.52 73.659C394.573 74.4813 395.205 75.3446 395.415 76.2491C392.362 79.3736 389.204 82.3748 385.941 85.2527C382.677 88.1306 379.414 90.7618 376.15 93.1463C372.992 95.5308 369.834 97.6276 366.675 99.4365C363.622 101.245 360.78 102.643 358.148 103.63C345.094 103.466 335.198 100.547 328.461 94.873C321.723 89.1995 318.354 80.8537 318.354 69.8356Z" stroke="black" stroke-width="2" mask="url(#path-1-outside-1_100_96)"/>
<path d="M411.92 86.9794C411.92 84.0193 412.499 80.1959 413.657 75.5091C414.92 70.74 416.499 65.6421 418.394 60.2152C420.394 54.7062 422.658 49.1149 425.184 43.4414C427.711 37.6856 430.29 32.2999 432.922 27.2842C435.554 22.2684 438.133 17.8694 440.66 14.0871C443.186 10.3047 445.45 7.5913 447.45 5.9468C448.503 6.02902 449.871 6.35792 451.555 6.9335C453.345 7.42684 455.135 8.04353 456.924 8.78356C458.714 9.52358 460.346 10.3458 461.82 11.2503C463.294 12.0726 464.241 12.8537 464.662 13.5937C461.609 15.7316 458.556 18.9794 455.503 23.3374C452.556 27.6131 449.661 32.5054 446.818 38.0145C444.081 43.5236 441.502 49.3615 439.08 55.5284C436.659 61.6131 434.554 67.5333 432.764 73.289C430.974 79.0447 429.553 84.3894 428.5 89.3229C427.553 94.2563 427.079 98.2443 427.079 101.287C427.079 102.684 427.237 103.548 427.553 103.877C425.237 103.794 423.552 103.466 422.5 102.89C421.447 102.397 420.605 101.821 419.973 101.163C419.447 100.588 418.92 99.971 418.394 99.3132C417.973 98.7376 417.289 98.2854 416.341 97.9565C415.604 97.7098 414.973 97.1342 414.446 96.2297C413.92 95.3253 413.446 94.3386 413.025 93.2697C412.709 92.1185 412.446 90.9674 412.235 89.8162C412.025 88.6651 411.92 87.7195 411.92 86.9794Z" stroke="black" stroke-width="2" mask="url(#path-1-outside-1_100_96)"/>
<path d="M464.098 103.383C459.045 102.232 455.519 101.081 453.518 99.9299C451.623 98.7787 450.676 97.3398 450.676 95.6131C450.676 94.2975 451.15 92.4474 452.097 90.0629C453.045 87.6784 454.413 84.8827 456.203 81.6759C458.098 78.3869 460.309 74.769 462.835 70.8223C465.467 66.8755 468.415 62.6409 471.678 58.1185C468.941 58.0363 466.467 57.9952 464.256 57.9952C462.151 57.9129 460.414 57.8718 459.045 57.8718C459.677 56.6385 461.467 55.5695 464.414 54.6651C467.362 53.7606 471.257 52.9794 476.1 52.3216C480.205 46.977 484.574 41.8791 489.206 37.0278C493.944 32.1765 498.681 27.7364 503.419 23.7074C508.156 19.5961 512.893 16.0194 517.631 12.977C522.368 9.85248 526.895 7.38573 531.211 5.57679C531.316 5.00121 531.369 4.50786 531.369 4.09674C531.474 3.68561 531.527 3.39782 531.527 3.23337C533.001 3.23337 534.948 3.52116 537.37 4.09674C539.896 4.67231 542.318 5.37122 544.634 6.19348C547.055 7.01572 549.16 7.87908 550.95 8.78356C552.845 9.6058 553.898 10.3047 554.108 10.8803C550.634 15.6493 547.213 22.8029 543.844 32.341C540.475 41.7969 537.685 53.1439 535.475 66.3821C534.948 69.6711 534.475 73.4123 534.053 77.6058C533.738 81.7993 533.58 86.4861 533.58 91.6663C533.58 93.4752 533.58 95.3253 533.58 97.2164C533.58 99.1076 533.685 101.081 533.896 103.137C533.685 103.219 533.474 103.26 533.264 103.26C533.053 103.26 532.632 103.26 532.001 103.26C530.527 103.26 528.79 103.054 526.789 102.643C524.895 102.314 523 101.862 521.105 101.287C519.315 100.793 517.736 100.218 516.367 99.5599C515.104 98.9021 514.314 98.3265 513.999 97.8331C513.893 96.7642 513.841 95.6953 513.841 94.6264C513.841 93.6397 513.841 92.5707 513.841 91.4196C513.841 86.3216 514.051 81.1415 514.472 75.8791C514.999 70.6167 515.841 65.1898 516.999 59.5985C515.525 59.5163 513.578 59.4341 511.156 59.3519C508.735 59.1874 505.998 59.0641 502.945 58.9819C499.997 58.8996 496.786 58.8174 493.312 58.7352C489.943 58.5707 486.627 58.4474 483.364 58.3652C480.837 62.0653 478.468 65.7654 476.258 69.4655C474.047 73.0834 472.152 76.7424 470.573 80.4426C468.783 84.3894 467.309 88.3362 466.151 92.2829C465.099 96.2297 464.414 99.9299 464.098 103.383ZM525.052 29.2576C525.474 28.1064 525.947 26.5441 526.474 24.5707C527.105 22.5151 527.684 20.3773 528.211 18.1572C525.579 18.8972 522.631 20.2539 519.368 22.2273C516.209 24.2007 512.893 26.6675 509.419 29.6276C506.05 32.5054 502.576 35.7944 498.997 39.4946C495.523 43.1125 492.154 46.977 488.891 51.0883C497.734 50.5127 507.787 50.1427 519.052 49.9782C519.894 46.5248 520.789 43.1125 521.736 39.7412C522.789 36.2878 523.894 32.7932 525.052 29.2576Z" stroke="black" stroke-width="2" mask="url(#path-1-outside-1_100_96)"/>
<path d="M617.052 86.9794C619.684 90.5151 621 93.9275 621 97.2164C621 97.9565 620.895 98.6143 620.684 99.1898C620.579 99.8476 620.421 100.505 620.211 101.163C618.421 100.999 616.526 100.875 614.526 100.793C612.631 100.711 610.63 100.67 608.525 100.67C605.998 100.67 603.419 100.711 600.787 100.793C598.261 100.958 595.418 101.163 592.26 101.41C589.102 101.657 585.575 101.985 581.68 102.397C577.785 102.808 573.258 103.342 568.099 104C565.678 103.342 563.257 102.027 560.836 100.053C558.414 98.162 556.151 95.8597 554.045 93.1463C555.098 91.3374 556.414 89.1173 557.993 86.4861C559.572 83.7727 561.415 80.5248 563.52 76.7424C565.626 72.8779 567.942 68.3966 570.468 63.2987C573.1 58.1185 575.89 52.1572 578.838 45.4148C580.732 40.9746 582.364 37.0689 583.733 33.6977C585.101 30.3265 586.312 27.0786 587.365 23.9541C588.523 20.7473 589.628 17.4172 590.681 13.9637C591.734 10.5103 592.892 6.52237 594.155 2C598.366 2.6578 601.998 3.89117 605.051 5.70012C608.209 7.42684 611.209 9.9347 614.052 13.2237C613.21 14.2926 612.104 16.0194 610.736 18.4039C609.367 20.7884 607.735 23.7074 605.841 27.1608C604.051 30.532 602.051 34.3966 599.84 38.7545C597.629 43.0302 595.313 47.6348 592.892 52.5683C590.576 57.4196 588.312 61.9831 586.102 66.2588C583.891 70.5345 581.891 74.399 580.101 77.8525C578.416 81.3059 577.048 84.266 575.995 86.7328C574.942 89.1995 574.416 91.0496 574.416 92.2829C576.1 92.2007 577.627 92.1185 578.995 92.0363C580.364 91.954 581.785 91.8307 583.259 91.6663C584.733 91.4196 586.312 91.1729 587.996 90.9262C589.786 90.5973 591.892 90.1862 594.313 89.6929C596.418 89.2817 598.366 88.9528 600.156 88.7062C601.945 88.3773 603.682 88.1306 605.367 87.9661C607.156 87.7195 608.946 87.555 610.736 87.4728C612.631 87.3083 614.736 87.1439 617.052 86.9794Z" stroke="black" stroke-width="2" mask="url(#path-1-outside-1_100_96)"/>
</g>
<defs>
<filter id="filter0_d_100_96" x="0" y="0.874779" width="626" height="112.277" filterUnits="userSpaceOnUse" color-interpolation-filters="sRGB">
<feFlood flood-opacity="0" result="BackgroundImageFix"/>
<feColorMatrix in="SourceAlpha" type="matrix" values="0 0 0 0 0 0 0 0 0 0 0 0 0 0 0 0 0 0 127 0" result="hardAlpha"/>
<feOffset dy="4"/>
<feGaussianBlur stdDeviation="2"/>
<feComposite in2="hardAlpha" operator="out"/>
<feColorMatrix type="matrix" values="0 0 0 0 0 0 0 0 0 0 0 0 0 0 0 0 0 0 0.25 0"/>
<feBlend mode="normal" in2="BackgroundImageFix" result="effect1_dropShadow_100_96"/>
<feBlend mode="normal" in="SourceGraphic" in2="effect1_dropShadow_100_96" result="shape"/>
</filter>
<linearGradient id="paint0_linear_100_96" x1="5" y1="53" x2="621" y2="53" gradientUnits="userSpaceOnUse">
<stop stop-color="#FFE259"/>
<stop offset="1" stop-color="#FFA751"/>
</linearGradient>
<linearGradient id="paint1_linear_100_96" x1="5" y1="53" x2="621" y2="53" gradientUnits="userSpaceOnUse">
<stop stop-color="#FFE259"/>
<stop offset="1" stop-color="#FFA751"/>
</linearGradient>
<linearGradient id="paint2_linear_100_96" x1="5" y1="53" x2="621" y2="53" gradientUnits="userSpaceOnUse">
<stop stop-color="#FFE259"/>
<stop offset="1" stop-color="#FFA751"/>
</linearGradient>
<linearGradient id="paint3_linear_100_96" x1="5" y1="53" x2="621" y2="53" gradientUnits="userSpaceOnUse">
<stop stop-color="#FFE259"/>
<stop offset="1" stop-color="#FFA751"/>
</linearGradient>
<linearGradient id="paint4_linear_100_96" x1="5" y1="53" x2="621" y2="53" gradientUnits="userSpaceOnUse">
<stop stop-color="#FFE259"/>
<stop offset="1" stop-color="#FFA751"/>
</linearGradient>
<linearGradient id="paint5_linear_100_96" x1="5" y1="53" x2="621" y2="53" gradientUnits="userSpaceOnUse">
<stop stop-color="#FFE259"/>
<stop offset="1" stop-color="#FFA751"/>
</linearGradient>
<linearGradient id="paint6_linear_100_96" x1="5" y1="53" x2="621" y2="53" gradientUnits="userSpaceOnUse">
<stop stop-color="#FFE259"/>
<stop offset="1" stop-color="#FFA751"/>
</linearGradient>
</defs>
</svg>
