<svg width="41" height="40" viewBox="0 0 41 40" fill="none" xmlns="http://www.w3.org/2000/svg">
<path d="M27.1667 5H2.16675V26.6667H27.1667V5Z" stroke="black" stroke-width="2" stroke-linecap="round" stroke-linejoin="round"/>
<path d="M27.1667 13.3333H33.8334L38.8334 18.3333V26.6666H27.1667V13.3333Z" stroke="black" stroke-width="2" stroke-linecap="round" stroke-linejoin="round"/>
<path d="M9.66667 35.0001C11.9679 35.0001 13.8333 33.1346 13.8333 30.8334C13.8333 28.5322 11.9679 26.6667 9.66667 26.6667C7.36548 26.6667 5.5 28.5322 5.5 30.8334C5.5 33.1346 7.36548 35.0001 9.66667 35.0001Z" stroke="black" stroke-width="2" stroke-linecap="round" stroke-linejoin="round"/>
<path d="M31.3334 35.0001C33.6346 35.0001 35.5001 33.1346 35.5001 30.8334C35.5001 28.5322 33.6346 26.6667 31.3334 26.6667C29.0322 26.6667 27.1667 28.5322 27.1667 30.8334C27.1667 33.1346 29.0322 35.0001 31.3334 35.0001Z" stroke="black" stroke-width="2" stroke-linecap="round" stroke-linejoin="round"/>
</svg>
