<svg width="81" height="85" viewBox="0 0 81 85" fill="none" xmlns="http://www.w3.org/2000/svg">
<path d="M59.8267 85C61.6779 85 63.4532 84.2625 64.7622 82.9497C66.0711 81.637 66.8065 79.8565 66.8065 78C66.8065 76.1435 66.0711 74.363 64.7622 73.0503C63.4532 71.7375 61.6779 71 59.8267 71C57.9756 71 56.2002 71.7375 54.8913 73.0503C53.5823 74.363 52.8469 76.1435 52.8469 78C52.8469 79.8565 53.5823 81.637 54.8913 82.9497C56.2002 84.2625 57.9756 85 59.8267 85ZM27.9191 85C29.7703 85 31.5456 84.2625 32.8546 82.9497C34.1635 81.637 34.8989 79.8565 34.8989 78C34.8989 76.1435 34.1635 74.363 32.8546 73.0503C31.5456 71.7375 29.7703 71 27.9191 71C26.068 71 24.2926 71.7375 22.9837 73.0503C21.6747 74.363 20.9393 76.1435 20.9393 78C20.9393 79.8565 21.6747 81.637 22.9837 82.9497C24.2926 84.2625 26.068 85 27.9191 85ZM14.3185 10.76L13.5208 20.56C13.3613 22.44 14.837 24 16.7116 24H77.7747C79.4499 24 80.8458 22.72 80.9655 21.04C81.484 13.96 76.0996 8.2 69.04 8.2H20.022C19.6232 6.44 18.8255 4.76 17.5891 3.36C15.5948 1.24 12.8029 0 9.93123 0H2.99134C1.35607 0 0 1.36 0 3C0 4.64 1.35607 6 2.99134 6H9.93123C11.1677 6 12.3243 6.52 13.1619 7.4C13.9995 8.32 14.3983 9.52 14.3185 10.76ZM76.8175 30H15.6347C13.9596 30 12.6035 31.28 12.444 32.92L11.0081 50.32C10.8712 51.9322 11.0695 53.5553 11.5905 55.0866C12.1116 56.6179 12.9439 58.0241 14.035 59.216C15.126 60.408 16.4519 61.3597 17.9287 62.0111C19.4056 62.6625 21.0012 62.9992 22.6145 63H66.966C72.9487 63 78.2134 58.08 78.6522 52.08L79.9684 33.4C80.0063 32.9642 79.9528 32.5253 79.8111 32.1116C79.6694 31.6979 79.4428 31.3186 79.1458 30.9982C78.8489 30.6778 78.4883 30.4234 78.0872 30.2515C77.6862 30.0795 77.2536 29.9939 76.8175 30Z" fill="url(#paint0_linear_100_148)"/>
<defs>
<linearGradient id="paint0_linear_100_148" x1="0" y1="42.5" x2="81" y2="42.5" gradientUnits="userSpaceOnUse">
<stop stop-color="#FFE259"/>
<stop offset="1" stop-color="#FFA751"/>
</linearGradient>
</defs>
</svg>
