<svg width="100" height="100" viewBox="0 0 100 100" fill="none" xmlns="http://www.w3.org/2000/svg">
<path d="M46.6362 0.964964C47.5825 0.33579 48.6948 0 49.8325 0C50.9703 0 52.0826 0.33579 53.0288 0.964964C57.9574 4.05188 62.6859 7.44476 67.1863 11.1235C67.1863 11.1235 68.4121 11.9693 68.4456 10.5401C68.3245 8.68776 68.4356 6.82758 68.7761 5.00253C68.9581 4.52735 69.2799 4.11797 69.6994 3.82801C70.119 3.53806 70.6166 3.38103 71.1273 3.37751C71.1273 3.37751 76.6873 3.65251 80.2183 4.12335C81.7956 4.33169 83.0255 5.59004 83.1929 7.16507C83.1929 7.16507 85.4646 22.2487 85.975 27.6863C85.975 27.6863 86.4143 30.453 90.439 35.1447C90.439 35.1447 98.6096 46.5407 99.5593 48.7241C99.5593 48.7241 101.459 52.6658 97.3712 53.1992C97.3712 53.1992 89.9118 53.9492 89.1922 54.1159C88.7103 54.1745 88.2702 54.418 87.9656 54.7945C87.6609 55.1711 87.5157 55.6511 87.5606 56.1326C87.5606 56.1326 87.1674 82.3664 85.2387 94.9666C85.2387 94.9666 84.7325 99.9667 81.9671 99.8542C81.9671 99.8542 74.2985 99.6083 72.5162 99.6583C72.5162 99.6583 71.7506 99.6583 71.8636 98.6333C71.8636 98.6333 75.7711 57.7284 73.1229 37.0489C73.1229 37.0489 73.0057 34.3822 70.9641 33.7905C70.9641 33.7905 69.1024 33.0405 67.3202 35.4197C59.5861 46.203 55.3521 59.0861 55.1876 72.337C55.1876 72.337 54.9784 78.8496 55.9741 80.4747C55.9741 80.4747 56.5933 81.6163 59.7687 81.8747L63.785 82.4164C63.785 82.4164 64.5213 82.4164 64.4544 83.3872C64.4544 83.3872 63.5423 95.3874 63.2829 97.525C63.2661 98.0106 63.1657 98.4899 62.9859 98.9416C62.9859 98.9416 62.8395 99.35 61.5802 99.3C61.5802 99.3 43.8583 99.175 41.8627 99.3C41.8627 99.3 41.026 99.3 40.8503 98.8625C40.6704 98.4208 39.6203 83.3747 39.6537 81.2413C39.6385 81.0251 39.6901 80.8094 39.8016 80.6232C39.913 80.437 40.0789 80.2892 40.2771 80.1997C41.6291 79.3496 42.7718 78.2076 43.6205 76.8581C44.4693 75.5086 45.0024 73.9862 45.1803 72.4037C45.3979 70.1203 45.4313 67.8286 45.2807 65.5452C45.2807 65.5452 45.9334 42.5365 46.0965 38.8364C46.0965 38.8364 46.2262 37.5864 44.5904 37.3573C44.1983 37.2659 43.7857 37.3329 43.4431 37.5438C43.1004 37.7546 42.8556 38.0921 42.7622 38.4823V38.6073C42.7622 38.7406 41.6159 53.7867 41.8292 59.7785C41.8292 59.7785 42.2225 63.7035 39.4948 63.7827C39.4948 63.7827 36.8423 64.1785 36.7126 60.9077C36.7126 60.9077 36.9093 46.1491 37.5619 38.8573C37.5653 38.4543 37.4182 38.0644 37.1492 37.7633C36.8801 37.4622 36.5083 37.2715 36.106 37.2281C35.6897 37.1708 35.2672 37.2757 34.9266 37.521C34.586 37.7663 34.3535 38.133 34.2778 38.5448C34.2673 38.5872 34.2673 38.6315 34.2778 38.6739C34.2778 38.6739 33.1314 52.7992 33.3448 60.2535C33.3448 60.2535 33.6711 63.8702 30.7761 63.7369C30.7761 63.7369 28.3579 64.0119 28.224 60.8035C28.224 60.8035 28.8809 40.5948 29.0608 39.0364C29.042 38.6494 28.885 38.2817 28.618 37.9998C28.3511 37.7178 27.9917 37.5402 27.6049 37.4989H27.4417C27.0328 37.4651 26.6261 37.5855 26.3021 37.8363C25.9782 38.0872 25.7608 38.4501 25.6929 38.8531C25.6878 38.9016 25.6878 38.9505 25.6929 38.9989C25.6929 38.9989 24.6135 63.166 24.76 70.262C24.76 70.262 24.6638 77.5579 30.0732 80.5205C30.0732 80.5205 30.8765 80.9788 30.8932 81.6747C30.8932 81.6747 31.4998 94.4916 32.0521 98.6291C32.0521 98.6291 32.2487 99.6208 31.3659 99.6208L17.7482 100C17.0345 99.9958 16.3492 99.7205 15.8322 99.2304C15.3153 98.7403 15.0055 98.0722 14.9661 97.3624C13.2018 83.7829 12.3617 70.1001 12.4517 56.4076C12.4992 55.9012 12.3591 55.395 12.0578 54.9843C11.7565 54.5737 11.3148 54.287 10.8159 54.1784C10.8159 54.1784 3.85014 53.5409 2.16413 53.12C1.73115 53.0075 1.33025 52.7965 0.992913 52.5037C0.655576 52.2109 0.390984 51.8442 0.219914 51.4324C0.0488433 51.0206 -0.0240491 50.5748 0.00696013 50.1302C0.0379694 49.6856 0.172036 49.2543 0.398633 48.8699C11.7153 29.4266 27.5747 12.9926 46.6362 0.964964Z" fill="black"/>
</svg>
