<svg width="81" height="87" viewBox="0 0 81 87" fill="none" xmlns="http://www.w3.org/2000/svg">
<path d="M59.8267 86.7686C61.6779 86.7686 63.4532 86.0217 64.7622 84.6923C66.0711 83.3628 66.8065 81.5597 66.8065 79.6796C66.8065 77.7994 66.0711 75.9963 64.7622 74.6669C63.4532 73.3374 61.6779 72.5905 59.8267 72.5905C57.9756 72.5905 56.2002 73.3374 54.8913 74.6669C53.5823 75.9963 52.8469 77.7994 52.8469 79.6796C52.8469 81.5597 53.5823 83.3628 54.8913 84.6923C56.2002 86.0217 57.9756 86.7686 59.8267 86.7686ZM27.9191 86.7686C29.7703 86.7686 31.5456 86.0217 32.8546 84.6923C34.1635 83.3628 34.8989 81.5597 34.8989 79.6796C34.8989 77.7994 34.1635 75.9963 32.8546 74.6669C31.5456 73.3374 29.7703 72.5905 27.9191 72.5905C26.068 72.5905 24.2926 73.3374 22.9837 74.6669C21.6747 75.9963 20.9393 77.7994 20.9393 79.6796C20.9393 81.5597 21.6747 83.3628 22.9837 84.6923C24.2926 86.0217 26.068 86.7686 27.9191 86.7686ZM14.3185 11.5841L13.5208 21.5088C13.3613 23.4127 14.837 24.9926 16.7116 24.9926H77.7747C79.4499 24.9926 80.8458 23.6963 80.9655 21.9949C81.484 14.8249 76.0996 8.99158 69.04 8.99158H20.022C19.6232 7.20919 18.8255 5.50781 17.5891 4.09C15.5948 1.94303 12.8029 0.687256 9.93123 0.687256H2.99134C1.35607 0.687256 0 2.06456 0 3.72542C0 5.38629 1.35607 6.76359 2.99134 6.76359H9.93123C11.1677 6.76359 12.3243 7.2902 13.1619 8.1814C13.9995 9.1131 14.3983 10.3284 14.3185 11.5841ZM76.8175 31.0689H15.6347C13.9596 31.0689 12.6035 32.3652 12.444 34.0261L11.0081 51.6474C10.8712 53.2801 11.0695 54.9239 11.5905 56.4747C12.1116 58.0255 12.9439 59.4495 14.035 60.6566C15.126 61.8637 16.4519 62.8276 17.9287 63.4873C19.4056 64.1469 21.0012 64.4879 22.6145 64.4887H66.966C72.9487 64.4887 78.2134 59.5062 78.6522 53.4298L79.9684 34.5122C80.0063 34.0709 79.9528 33.6264 79.8111 33.2074C79.6694 32.7884 79.4428 32.4043 79.1458 32.0798C78.8489 31.7553 78.4883 31.4977 78.0872 31.3236C77.6862 31.1495 77.2536 31.0627 76.8175 31.0689Z" fill="url(#paint0_linear_140_110)"/>
<defs>
<linearGradient id="paint0_linear_140_110" x1="0" y1="43.7279" x2="81" y2="43.7279" gradientUnits="userSpaceOnUse">
<stop stop-color="#FFE259"/>
<stop offset="1" stop-color="#FFA751"/>
</linearGradient>
</defs>
</svg>
