<svg width="82" height="82" viewBox="0 0 82 82" fill="none" xmlns="http://www.w3.org/2000/svg">
<path d="M11.6679 80.5616L11.7875 80.5992C16.2292 82 20.3292 82 28.5292 82H53.4025C61.6367 82 65.7367 82 70.1442 80.6333C72.5242 79.7646 74.6879 78.3906 76.4862 76.6058C78.2845 74.8211 79.6749 72.6679 80.5616 70.2945L80.5992 70.1749C82 65.7298 82 61.6264 82 53.4264V28.6453C82 20.4077 82 16.3043 80.5992 11.8627C79.7315 9.49159 78.3619 7.33595 76.5839 5.54327C74.806 3.75059 72.6618 2.36318 70.2979 1.476L70.1783 1.435C65.7025 0 61.6367 0 53.3683 0H28.5633C20.3633 0 16.2292 0 11.8217 1.36667C9.44747 2.23875 7.29014 3.61435 5.49782 5.399C3.70551 7.18365 2.32067 9.33506 1.43842 11.7055L1.40083 11.8251C0 16.2702 0 20.3702 0 28.5736V53.423C0 61.6606 0 65.7264 1.36667 70.1715C2.23428 72.543 3.60389 74.6991 5.3818 76.4923C7.15971 78.2856 9.30397 79.6736 11.6679 80.5616ZM22.4099 53.9047L25.8266 50.5906C26.1361 50.2981 26.546 50.1354 26.9718 50.1361C27.3977 50.1367 27.8071 50.3006 28.1157 50.594C31.2249 53.5323 35.3932 55.1758 39.6982 55.1074C44.1399 55.1074 47.1124 53.2282 47.1124 50.2523C47.1124 47.2764 44.1057 46.494 38.4341 44.3722C32.4207 42.2197 26.7149 39.1755 26.7149 32.0688C26.7149 23.7971 33.5824 19.7654 41.7141 19.3862L42.5682 15.1837C42.6471 14.8163 42.8496 14.487 43.1418 14.2508C43.434 14.0145 43.7983 13.8855 44.1741 13.8853H50.2899L50.6316 13.9195C51.5199 14.1245 52.1007 14.9787 51.8957 15.867L50.9732 20.5512C54.0482 21.5762 56.9524 23.1821 59.4466 25.3038L59.5149 25.3722C60.1641 26.0555 60.1641 27.0805 59.5149 27.6955L56.3408 30.873C56.0313 31.1627 55.625 31.3267 55.2011 31.333C54.7773 31.3393 54.3662 31.1875 54.0482 30.9072C50.9743 28.3026 47.079 26.8739 43.05 26.8755C39.7358 26.8755 36.4217 27.9688 36.4217 31.0131C36.4217 34.0881 39.975 35.1131 44.075 36.654C51.25 39.0457 57.195 42.0557 57.195 49.0975C57.195 56.7542 51.25 62.0193 41.5467 62.6002L40.6583 66.7036C40.5798 67.0804 40.3738 67.4186 40.0751 67.6613C39.7764 67.904 39.4032 68.0363 39.0183 68.0361H32.9025L32.595 68.0019C32.156 67.9022 31.7738 67.6338 31.5309 67.2548C31.288 66.8757 31.2039 66.4164 31.2967 65.9758L31.2932 65.9861L32.2499 61.6435C28.562 60.7166 25.1709 58.8658 22.3962 56.2657L22.4099 56.2759V56.2418C22.1044 55.9295 21.9333 55.5101 21.9333 55.0732C21.9333 54.6364 22.1044 54.217 22.4099 53.9047Z" fill="#01D031"/>
</svg>
