<svg width="43" height="42" viewBox="0 0 43 42" fill="none" xmlns="http://www.w3.org/2000/svg">
<path d="M21.7612 0C16.0366 0 15.3231 0.027566 13.0828 0.122078C10.8332 0.232342 9.31155 0.580198 7.96891 1.10001C6.58416 1.64083 5.40474 2.35886 4.23981 3.52713C3.06697 4.68884 2.34037 5.86498 1.80595 7.24591C1.28469 8.58482 0.935868 10.1023 0.825298 12.3456C0.723942 14.5811 0.702881 15.2912 0.702881 21C0.702881 26.7088 0.730523 27.4202 0.825298 29.6544C0.935868 31.8912 1.28469 33.4152 1.80595 34.7541C2.34827 36.135 3.06829 37.3112 4.23981 38.4729C5.40474 39.6425 6.58416 40.367 7.96891 40.9C9.31155 41.4132 10.8398 41.7677 13.0828 41.8779C15.3245 41.979 16.0366 42 21.7612 42C27.4858 42 28.1993 41.9724 30.4396 41.8779C32.6826 41.7677 34.2109 41.4119 35.5535 40.9C36.9383 40.3592 38.1177 39.6411 39.2826 38.4729C40.4555 37.3112 41.1821 36.1416 41.7165 34.7541C42.2312 33.4152 42.5866 31.8912 42.6971 29.6544C42.7985 27.4189 42.8195 26.7088 42.8195 21C42.8195 15.2912 42.7919 14.5798 42.6971 12.3456C42.5866 10.1088 42.2298 8.57695 41.7165 7.24591C41.1742 5.86498 40.4541 4.68884 39.2826 3.52713C38.1177 2.35754 36.9449 1.63295 35.5535 1.10001C34.2109 0.580198 32.6826 0.232342 30.4396 0.122078C28.198 0.0210026 27.4858 0 21.7612 0ZM21.7612 3.78047C27.3832 3.78047 28.0545 3.80804 30.2764 3.90255C32.3259 3.99837 33.4422 4.33967 34.1832 4.62845C35.1718 5.01044 35.8628 5.462 36.6105 6.19971C37.3437 6.93087 37.7965 7.62789 38.1796 8.6137C38.4691 9.35273 38.8114 10.4659 38.9075 12.5097C39.0022 14.7255 39.0299 15.3962 39.0299 21.0013C39.0299 26.6064 39.0022 27.2772 38.8996 29.4929C38.789 31.5368 38.4468 32.6499 38.1585 33.3889C37.7597 34.3747 37.3147 35.0639 36.5802 35.8095C35.8392 36.5406 35.1336 36.9922 34.153 37.3742C33.4211 37.663 32.2891 38.0042 30.2317 38.1001C27.9979 38.1946 27.3397 38.2222 21.7033 38.2222C16.0669 38.2222 15.41 38.1946 13.1736 38.0922C11.1241 37.9819 9.9934 37.6406 9.25232 37.3532C8.25192 36.9554 7.56612 36.5117 6.83162 35.7793C6.09054 35.0403 5.6193 34.3367 5.256 33.3587C4.96114 32.6289 4.62417 31.5 4.51492 29.4483C4.43989 27.247 4.40435 26.5644 4.40435 20.9698C4.40435 15.3779 4.43989 14.694 4.51492 12.4651C4.62417 10.4134 4.96114 9.2871 5.256 8.55463C5.6193 7.55569 6.09186 6.87311 6.83162 6.13408C7.56481 5.40293 8.25192 4.93037 9.25232 4.56019C9.9934 4.27272 11.0965 3.93143 13.1539 3.82904C15.3876 3.74897 16.0458 3.72009 21.6743 3.72009L21.7612 3.78047ZM21.7612 10.2217C15.7838 10.2217 10.9504 15.0484 10.9504 21.0026C10.9504 26.9634 15.7904 31.7835 21.7612 31.7835C27.7386 31.7835 32.5721 26.9569 32.5721 21.0026C32.5721 15.0418 27.732 10.2217 21.7612 10.2217ZM21.7612 28.0031C17.8807 28.0031 14.7413 24.8724 14.7413 21.0026C14.7413 17.1329 17.8807 14.0022 21.7612 14.0022C25.6417 14.0022 28.7811 17.1329 28.7811 21.0026C28.7811 24.8724 25.6417 28.0031 21.7612 28.0031ZM35.5351 9.79116C35.5351 11.1865 34.3965 12.3128 33.0038 12.3128C31.6046 12.3128 30.4752 11.1852 30.4752 9.79116C30.4752 8.40368 31.6125 7.27478 33.0038 7.27478C34.3952 7.27478 35.5351 8.40368 35.5351 9.79116Z" fill="url(#paint0_linear_181_31093)"/>
<defs>
<linearGradient id="paint0_linear_181_31093" x1="28.1618" y1="-0.285238" x2="3.39819" y2="66.5053" gradientUnits="userSpaceOnUse">
<stop stop-color="#C8009C"/>
<stop offset="1" stop-color="#FFD600" stop-opacity="0"/>
</linearGradient>
</defs>
</svg>
