<svg width="45" height="44" viewBox="0 0 45 44" fill="none" xmlns="http://www.w3.org/2000/svg">
<path d="M43.8348 32.4451V38.7678C43.8372 39.3547 43.7164 39.9357 43.4802 40.4735C43.2439 41.0113 42.8974 41.4941 42.4628 41.8909C42.0282 42.2877 41.5152 42.5898 40.9565 42.7778C40.3978 42.9659 39.8058 43.0357 39.2184 42.9829C32.7022 42.2782 26.4429 40.0621 20.9434 36.5127C15.8269 33.2769 11.489 28.9595 8.23775 23.8673C4.65893 18.3691 2.43176 12.1092 1.73667 5.5947C1.68375 5.01188 1.75335 4.42449 1.94102 3.86992C2.1287 3.31534 2.43034 2.80573 2.82675 2.37354C3.22315 1.94134 3.70564 1.59603 4.24348 1.35959C4.78133 1.12315 5.36275 1.00076 5.95072 1.0002H12.3036C13.3313 0.990138 14.3276 1.35233 15.1068 2.01928C15.886 2.68623 16.395 3.61242 16.5388 4.62522C16.8069 6.64862 17.3042 8.63534 18.0211 10.5475C18.306 11.3018 18.3677 12.1216 18.1988 12.9098C18.0299 13.698 17.6375 14.4214 17.0682 14.9944L14.3788 17.671C17.3934 22.9474 21.783 27.3162 27.0845 30.3164L29.7739 27.6398C30.3496 27.0732 31.0765 26.6827 31.8685 26.5146C32.6604 26.3465 33.4841 26.4079 34.242 26.6914C36.1633 27.4049 38.1595 27.8998 40.1925 28.1667C41.2212 28.3111 42.1607 28.8268 42.8322 29.6157C43.5038 30.4045 43.8606 31.4115 43.8348 32.4451Z" stroke="white" stroke-width="2" stroke-linecap="round" stroke-linejoin="round"/>
</svg>
