<svg width="43" height="42" viewBox="0 0 43 42" fill="none" xmlns="http://www.w3.org/2000/svg">
<path d="M31.4225 25.1698C30.8948 24.9034 28.3243 23.6526 27.8439 23.4741C27.3635 23.3034 27.0148 23.2142 26.6647 23.7405C26.3225 24.2537 25.3143 25.4284 25.0063 25.7709C24.6983 26.1135 24.3956 26.1397 23.8758 25.9074C23.348 25.641 21.662 25.0937 19.6601 23.3034C18.0966 21.9161 17.0555 20.2073 16.7462 19.6809C16.4382 19.1612 16.712 18.8672 16.9726 18.6073C17.2121 18.3684 17.5003 18.0062 17.7675 17.6912C18.0215 17.3762 18.1031 17.1649 18.2887 16.8236C18.4598 16.4548 18.3716 16.1674 18.2413 15.9075C18.111 15.6476 17.0621 13.0712 16.6238 12.0448C16.2053 11.0263 15.767 11.1562 15.4445 11.1562C15.1431 11.1287 14.793 11.1287 14.4443 11.1287C14.0955 11.1287 13.5256 11.2586 13.0452 11.7574C12.5648 12.2837 11.2078 13.5411 11.2078 16.0847C11.2078 18.6349 13.086 21.1024 13.3466 21.4712C13.6138 21.8124 17.041 27.0624 22.299 29.3186C23.5533 29.8449 24.5272 30.1599 25.288 30.4198C26.5423 30.8162 27.6873 30.7611 28.5915 30.6311C29.5918 30.4671 31.6897 29.3659 32.1293 28.1361C32.5755 26.8984 32.5755 25.8733 32.4452 25.641C32.3149 25.4021 31.9727 25.2722 31.4449 25.0399L31.4225 25.1698ZM21.8871 38.0625H21.8594C18.7467 38.0625 15.6696 37.2212 12.982 35.6488L12.3516 35.2734L5.77085 36.9823L7.53975 30.597L7.11463 29.9408C5.37995 27.1858 4.4547 24.0069 4.4547 20.7401C4.4547 11.2114 12.2766 3.43875 21.9002 3.43875C26.562 3.43875 30.9356 5.25 34.2259 8.53125C37.5163 11.7849 39.3326 16.1464 39.3326 20.7677C39.3194 30.2899 31.5041 38.0625 21.8936 38.0625H21.8871ZM36.7279 6.03619C32.7242 2.18006 27.4596 0 21.8594 0C10.3089 0 0.903743 9.33844 0.897162 20.8149C0.897162 24.4794 1.85663 28.0547 3.69397 31.2191L0.719482 42L11.8383 39.1086C14.9023 40.7558 18.3506 41.6377 21.8607 41.6443H21.8673C33.4244 41.6443 42.8296 32.3059 42.8361 20.8215C42.8361 15.2644 40.6632 10.0341 36.7016 6.10313L36.7279 6.03619Z" fill="#10E818"/>
</svg>
