<svg width="43" height="42" viewBox="0 0 43 42" fill="none" xmlns="http://www.w3.org/2000/svg">
<path d="M21.7611 0C16.0365 0 15.323 0.027566 13.0827 0.122078C10.8331 0.232342 9.31143 0.580198 7.96879 1.10001C6.58403 1.64083 5.40462 2.35886 4.23968 3.52713C3.06685 4.68884 2.34025 5.86498 1.80583 7.24591C1.28457 8.58482 0.935746 10.1023 0.825176 12.3456C0.72382 14.5811 0.702759 15.2912 0.702759 21C0.702759 26.7088 0.730401 27.4202 0.825176 29.6544C0.935746 31.8912 1.28457 33.4152 1.80583 34.7541C2.34815 36.135 3.06817 37.3112 4.23968 38.4729C5.40462 39.6425 6.58403 40.367 7.96879 40.9C9.31143 41.4132 10.8397 41.7677 13.0827 41.8779C15.3243 41.979 16.0365 42 21.7611 42C27.4857 42 28.1992 41.9724 30.4395 41.8779C32.6825 41.7677 34.2108 41.4119 35.5534 40.9C36.9382 40.3592 38.1176 39.6411 39.2825 38.4729C40.4553 37.3112 41.1819 36.1416 41.7164 34.7541C42.231 33.4152 42.5864 31.8912 42.697 29.6544C42.7984 27.4189 42.8194 26.7088 42.8194 21C42.8194 15.2912 42.7918 14.5798 42.697 12.3456C42.5864 10.1088 42.2297 8.57695 41.7164 7.24591C41.174 5.86498 40.454 4.68884 39.2825 3.52713C38.1176 2.35754 36.9447 1.63295 35.5534 1.10001C34.2108 0.580198 32.6825 0.232342 30.4395 0.122078C28.1978 0.0210026 27.4857 0 21.7611 0ZM21.7611 3.78047C27.3831 3.78047 28.0544 3.80804 30.2763 3.90255C32.3258 3.99837 33.442 4.33967 34.1831 4.62845C35.1717 5.01044 35.8627 5.462 36.6104 6.19971C37.3436 6.93087 37.7964 7.62789 38.1794 8.6137C38.469 9.35273 38.8113 10.4659 38.9073 12.5097C39.0021 14.7255 39.0298 15.3962 39.0298 21.0013C39.0298 26.6064 39.0021 27.2772 38.8995 29.4929C38.7889 31.5368 38.4466 32.6499 38.1584 33.3889C37.7595 34.3747 37.3146 35.0639 36.5801 35.8095C35.839 36.5406 35.1335 36.9922 34.1528 37.3742C33.421 37.663 32.2889 38.0042 30.2315 38.1001C27.9978 38.1946 27.3396 38.2222 21.7032 38.2222C16.0667 38.2222 15.4099 38.1946 13.1735 38.0922C11.124 37.9819 9.99328 37.6406 9.2522 37.3532C8.2518 36.9554 7.566 36.5117 6.8315 35.7793C6.09042 35.0403 5.61918 34.3367 5.25588 33.3587C4.96102 32.6289 4.62405 31.5 4.51479 29.4483C4.43976 27.247 4.40422 26.5644 4.40422 20.9698C4.40422 15.3779 4.43976 14.694 4.51479 12.4651C4.62405 10.4134 4.96102 9.2871 5.25588 8.55463C5.61918 7.55569 6.09173 6.87311 6.8315 6.13408C7.56468 5.40293 8.2518 4.93037 9.2522 4.56019C9.99328 4.27272 11.0963 3.93143 13.1537 3.82904C15.3875 3.74897 16.0457 3.72009 21.6742 3.72009L21.7611 3.78047ZM21.7611 10.2217C15.7837 10.2217 10.9502 15.0484 10.9502 21.0026C10.9502 26.9634 15.7903 31.7835 21.7611 31.7835C27.7385 31.7835 32.5719 26.9569 32.5719 21.0026C32.5719 15.0418 27.7319 10.2217 21.7611 10.2217ZM21.7611 28.0031C17.8806 28.0031 14.7412 24.8724 14.7412 21.0026C14.7412 17.1329 17.8806 14.0022 21.7611 14.0022C25.6416 14.0022 28.781 17.1329 28.781 21.0026C28.781 24.8724 25.6416 28.0031 21.7611 28.0031ZM35.535 9.79116C35.535 11.1865 34.3964 12.3128 33.0037 12.3128C31.6045 12.3128 30.4751 11.1852 30.4751 9.79116C30.4751 8.40368 31.6124 7.27478 33.0037 7.27478C34.395 7.27478 35.535 8.40368 35.535 9.79116Z" fill="url(#paint0_linear_181_31074)"/>
<defs>
<linearGradient id="paint0_linear_181_31074" x1="28.1617" y1="-0.285238" x2="3.39806" y2="66.5053" gradientUnits="userSpaceOnUse">
<stop stop-color="#C8009C"/>
<stop offset="1" stop-color="#FFD600" stop-opacity="0"/>
</linearGradient>
</defs>
</svg>
