<svg width="43" height="42" viewBox="0 0 43 42" fill="none" xmlns="http://www.w3.org/2000/svg">
<path d="M31.4223 25.1698C30.8945 24.9034 28.3241 23.6526 27.8437 23.4741C27.3633 23.3034 27.0145 23.2142 26.6644 23.7405C26.3222 24.2537 25.3141 25.4284 25.0061 25.7709C24.6981 26.1135 24.3954 26.1397 23.8755 25.9074C23.3477 25.641 21.6617 25.0937 19.6599 23.3034C18.0963 21.9161 17.0552 20.2073 16.7459 19.6809C16.438 19.1612 16.7117 18.8672 16.9723 18.6073C17.2119 18.3684 17.5001 18.0062 17.7673 17.6912C18.0213 17.3762 18.1029 17.1649 18.2885 16.8236C18.4596 16.4548 18.3714 16.1674 18.2411 15.9075C18.1108 15.6476 17.0618 13.0712 16.6235 12.0448C16.205 11.0263 15.7667 11.1562 15.4443 11.1562C15.1429 11.1287 14.7928 11.1287 14.444 11.1287C14.0952 11.1287 13.5253 11.2586 13.0449 11.7574C12.5646 12.2837 11.2076 13.5411 11.2076 16.0847C11.2076 18.6349 13.0857 21.1024 13.3463 21.4712C13.6135 21.8124 17.0408 27.0624 22.2988 29.3186C23.5531 29.8449 24.527 30.1599 25.2877 30.4198C26.542 30.8162 27.6871 30.7611 28.5913 30.6311C29.5915 30.4671 31.6895 29.3659 32.1291 28.1361C32.5752 26.8984 32.5752 25.8733 32.4449 25.641C32.3146 25.4021 31.9724 25.2722 31.4447 25.0399L31.4223 25.1698ZM21.8868 38.0625H21.8592C18.7465 38.0625 15.6693 37.2212 12.9818 35.6488L12.3513 35.2734L5.77061 36.9823L7.53951 30.597L7.11439 29.9408C5.37971 27.1858 4.45446 24.0069 4.45446 20.7401C4.45446 11.2114 12.2763 3.43875 21.9 3.43875C26.5618 3.43875 30.9353 5.25 34.2257 8.53125C37.516 11.7849 39.3323 16.1464 39.3323 20.7677C39.3192 30.2899 31.5039 38.0625 21.8934 38.0625H21.8868ZM36.7277 6.03619C32.724 2.18006 27.4594 0 21.8592 0C10.3087 0 0.903499 9.33844 0.896918 20.8149C0.896918 24.4794 1.85639 28.0547 3.69373 31.2191L0.719238 42L11.838 39.1086C14.902 40.7558 18.3503 41.6377 21.8605 41.6443H21.8671C33.4241 41.6443 42.8293 32.3059 42.8359 20.8215C42.8359 15.2644 40.6629 10.0341 36.7013 6.10313L36.7277 6.03619Z" fill="#10E818"/>
</svg>
