<svg width="45" height="44" viewBox="0 0 45 44" fill="none" xmlns="http://www.w3.org/2000/svg">
<path d="M43.8346 32.4451V38.7678C43.837 39.3547 43.7162 39.9357 43.4799 40.4735C43.2437 41.0113 42.8971 41.4941 42.4625 41.8909C42.028 42.2877 41.5149 42.5898 40.9562 42.7778C40.3975 42.9659 39.8056 43.0357 39.2182 42.9829C32.7019 42.2782 26.4426 40.0621 20.9432 36.5127C15.8267 33.2769 11.4888 28.9595 8.2375 23.8673C4.65869 18.3691 2.43152 12.1092 1.73643 5.5947C1.68351 5.01188 1.7531 4.42449 1.94078 3.86992C2.12845 3.31534 2.43009 2.80573 2.8265 2.37354C3.22291 1.94134 3.70539 1.59603 4.24324 1.35959C4.78108 1.12315 5.3625 1.00076 5.95048 1.0002H12.3033C13.331 0.990138 14.3273 1.35233 15.1065 2.01928C15.8858 2.68623 16.3947 3.61242 16.5385 4.62522C16.8067 6.64862 17.304 8.63534 18.0209 10.5475C18.3058 11.3018 18.3675 12.1216 18.1986 12.9098C18.0297 13.698 17.6373 14.4214 17.068 14.9944L14.3786 17.671C17.3931 22.9474 21.7827 27.3162 27.0843 30.3164L29.7736 27.6398C30.3494 27.0732 31.0763 26.6827 31.8682 26.5146C32.6601 26.3465 33.4839 26.4079 34.2418 26.6914C36.1631 27.4049 38.1593 27.8998 40.1923 28.1667C41.221 28.3111 42.1604 28.8268 42.832 29.6157C43.5035 30.4045 43.8604 31.4115 43.8346 32.4451Z" stroke="white" stroke-width="2" stroke-linecap="round" stroke-linejoin="round"/>
</svg>
