<svg width="43" height="42" viewBox="0 0 43 42" fill="none" xmlns="http://www.w3.org/2000/svg">
<path d="M21.761 0C16.0363 0 15.3229 0.027566 13.0825 0.122078C10.833 0.232342 9.31131 0.580198 7.96867 1.10001C6.58391 1.64083 5.4045 2.35886 4.23956 3.52713C3.06673 4.68884 2.34013 5.86498 1.8057 7.24591C1.28445 8.58482 0.935624 10.1023 0.825054 12.3456C0.723698 14.5811 0.702637 15.2912 0.702637 21C0.702637 26.7088 0.730279 27.4202 0.825054 29.6544C0.935624 31.8912 1.28445 33.4152 1.8057 34.7541C2.34802 36.135 3.06805 37.3112 4.23956 38.4729C5.4045 39.6425 6.58391 40.367 7.96867 40.9C9.31131 41.4132 10.8395 41.7677 13.0825 41.8779C15.3242 41.979 16.0363 42 21.761 42C27.4856 42 28.199 41.9724 30.4394 41.8779C32.6824 41.7677 34.2106 41.4119 35.5533 40.9C36.938 40.3592 38.1174 39.6411 39.2824 38.4729C40.4552 37.3112 41.1818 36.1416 41.7162 34.7541C42.2309 33.4152 42.5863 31.8912 42.6969 29.6544C42.7982 27.4189 42.8193 26.7088 42.8193 21C42.8193 15.2912 42.7917 14.5798 42.6969 12.3456C42.5863 10.1088 42.2296 8.57695 41.7162 7.24591C41.1739 5.86498 40.4539 4.68884 39.2824 3.52713C38.1174 2.35754 36.9446 1.63295 35.5533 1.10001C34.2106 0.580198 32.6824 0.232342 30.4394 0.122078C28.1977 0.0210026 27.4856 0 21.761 0ZM21.761 3.78047C27.3829 3.78047 28.0542 3.80804 30.2762 3.90255C32.3257 3.99837 33.4419 4.33967 34.183 4.62845C35.1715 5.01044 35.8626 5.462 36.6103 6.19971C37.3435 6.93087 37.7963 7.62789 38.1793 8.6137C38.4689 9.35273 38.8111 10.4659 38.9072 12.5097C39.002 14.7255 39.0296 15.3962 39.0296 21.0013C39.0296 26.6064 39.002 27.2772 38.8993 29.4929C38.7888 31.5368 38.4465 32.6499 38.1582 33.3889C37.7594 34.3747 37.3145 35.0639 36.58 35.8095C35.8389 36.5406 35.1334 36.9922 34.1527 37.3742C33.4208 37.663 32.2888 38.0042 30.2314 38.1001C27.9976 38.1946 27.3395 38.2222 21.7031 38.2222C16.0666 38.2222 15.4098 38.1946 13.1734 38.0922C11.1239 37.9819 9.99316 37.6406 9.25207 37.3532C8.25168 36.9554 7.56588 36.5117 6.83138 35.7793C6.0903 35.0403 5.61906 34.3367 5.25575 33.3587C4.9609 32.6289 4.62393 31.5 4.51467 29.4483C4.43964 27.247 4.4041 26.5644 4.4041 20.9698C4.4041 15.3779 4.43964 14.694 4.51467 12.4651C4.62393 10.4134 4.9609 9.2871 5.25575 8.55463C5.61906 7.55569 6.09161 6.87311 6.83138 6.13408C7.56456 5.40293 8.25168 4.93037 9.25207 4.56019C9.99316 4.27272 11.0962 3.93143 13.1536 3.82904C15.3874 3.74897 16.0456 3.72009 21.6741 3.72009L21.761 3.78047ZM21.761 10.2217C15.7836 10.2217 10.9501 15.0484 10.9501 21.0026C10.9501 26.9634 15.7902 31.7835 21.761 31.7835C27.7383 31.7835 32.5718 26.9569 32.5718 21.0026C32.5718 15.0418 27.7318 10.2217 21.761 10.2217ZM21.761 28.0031C17.8805 28.0031 14.7411 24.8724 14.7411 21.0026C14.7411 17.1329 17.8805 14.0022 21.761 14.0022C25.6415 14.0022 28.7809 17.1329 28.7809 21.0026C28.7809 24.8724 25.6415 28.0031 21.761 28.0031ZM35.5348 9.79116C35.5348 11.1865 34.3962 12.3128 33.0036 12.3128C31.6043 12.3128 30.4749 11.1852 30.4749 9.79116C30.4749 8.40368 31.6122 7.27478 33.0036 7.27478C34.3949 7.27478 35.5348 8.40368 35.5348 9.79116Z" fill="url(#paint0_linear_179_172)"/>
<defs>
<linearGradient id="paint0_linear_179_172" x1="28.1615" y1="-0.285238" x2="3.39794" y2="66.5053" gradientUnits="userSpaceOnUse">
<stop stop-color="#C8009C"/>
<stop offset="1" stop-color="#FFD600" stop-opacity="0"/>
</linearGradient>
</defs>
</svg>
